<svg xmlns="http://www.w3.org/2000/svg" viewBox="0 0 1589.44 1186.41"><defs><style>.cls-1,.cls-3{fill:#272525;}.cls-1{opacity:0.11;}.cls-2{fill:#e59c40;}.cls-3{opacity:0.1;}.cls-4{fill:#efcd42;}.cls-5{fill:#e89f40;}.cls-6{fill:#f2d042;}.cls-7{fill:#677b91;}.cls-8{fill:#2e4661;}.cls-9{fill:#3a3029;}.cls-10{fill:#fff;}.cls-11{fill:#e7caad;}.cls-12{fill:#b99a6f;}.cls-13{fill:#273140;}.cls-14{fill:#a0a4a9;}.cls-15{fill:#c5cccc;}.cls-16{fill:#363636;}.cls-17{fill:#a9adb3;}.cls-18{fill:#647380;}.cls-19{fill:#e8cbae;}.cls-20{fill:#4e4e4e;}.cls-21{fill:#514943;}.cls-22{fill:#556678;}.cls-23{fill:#6c7c8a;}.cls-24{fill:#e5bd3d;}</style></defs><g id="shadow"><path class="cls-1" d="M441.71,1017.26q-46,.74-92,1c-54.62.16-126.21-8-167,23-20.52,15.55-13.77,46.58,18.79,52.08,9.22,1.56,19.14,1.39,27.78,4s15.49,9.86,10.7,15.38c-2.46,2.81-7.18,4.32-11.7,5.51-28.62,7.48-60.35,8.43-88.82,16.16-67.66,18.38-56,55.32,5.53,67.25,55.31,10.72,116.82,9.23,173.85,10,333.75,4.25,668.41,9.29,1000.31-5,71.58-3.09,142.74-7,214-10.62,32.61-1.67,73.44-6,73.57-15.72.09-6.76-21.45-11.81-42.67-14.45-37.17-4.62-85.7-8.65-78.67-23.78,2.56-5.51,14.66-10.58,31.47-13.16,13-2,27.91-2.53,42-3.73s28.5-3.42,34.42-7.35c15.93-10.6-24.2-16.91-52.44-17.88-33.83-1.16-61.41-8.61-49.75-19.85,8.12-7.83,34.56-13.13,42.6-21,3.24-3.16,3.23-6.55,1.08-9.78-21.47-32.27-133.64-29.51-175.44-31.92-77.34-4.47-155-5.33-232.6-5.73-176-.91-352,.61-527.92,3C546.5,1015.26,494.1,1016.43,441.71,1017.26Z" transform="translate(-73.34 -29.59)"/></g><g id="object"><circle class="cls-2" cx="1420.85" cy="167.16" r="74.75" transform="translate(224.62 1024.06) rotate(-45)"/><path class="cls-3" d="M1464.69,98.47A81.49,81.49,0,1,0,1489.53,211,81.5,81.5,0,0,0,1464.69,98.47ZM1384.36,224.3A67.8,67.8,0,1,1,1478,203.64,67.8,67.8,0,0,1,1384.36,224.3Z" transform="translate(-73.34 -29.59)"/><path class="cls-4" d="M1469.19,91.43a89.84,89.84,0,1,0,27.38,124.07A89.84,89.84,0,0,0,1469.19,91.43Zm-88.57,138.73a74.75,74.75,0,1,1,103.23-22.78A74.74,74.74,0,0,1,1380.62,230.16Z" transform="translate(-73.34 -29.59)"/><path class="cls-4" d="M1388,172.93c.13-3.67,2.66-8.26,7.62-5.83,4.14,2,6.18,7.47,8.59,11.38a26,26,0,0,0,8.15,8.17q5.55,3.58,10.64,3a10.34,10.34,0,0,0,8-4.93q2.88-4.46,1.4-8.08t-8-7.86L1421.5,167q-10.68-6.91-13.39-15t2.77-16.56q5.37-8.3,13.8-9.34t18.32,5.35a31.73,31.73,0,0,1,7.35,6.67c4.59,5.63,10.82,16.13,5.39,21-8.57,7.67-10.56-11-13.14-14.87a22.15,22.15,0,0,0-6.51-6.12,13.91,13.91,0,0,0-9.61-2.52,10,10,0,0,0-7.3,4.67q-2.55,4-.57,7.65t12,10.55q10.68,7.35,13,14.85t-3.45,16.34q-5.49,8.48-14.32,10t-18.26-4.6a45.34,45.34,0,0,1-6.22-5c-4.48-4.19-12.13-9.08-13.2-15.47A8.55,8.55,0,0,1,1388,172.93Z" transform="translate(-73.34 -29.59)"/><path class="cls-4" d="M1395.89,208.58l-.08-.05c-2.17-1.4-2.61-4.57-1-7.08l50.06-77.38c1.62-2.5,4.69-3.4,6.86-2l.08.05c2.17,1.41,2.61,4.58,1,7.08l-50.06,77.38C1401.12,209.09,1398.05,210,1395.89,208.58Z" transform="translate(-73.34 -29.59)"/><circle class="cls-5" cx="557.12" cy="154.9" r="74.59" transform="translate(-88.61 207.42) rotate(-23.7)"/><path class="cls-3" d="M522.31,81.42A81.31,81.31,0,1,0,630.6,120.1,81.3,81.3,0,0,0,522.31,81.42ZM586.08,216a67.65,67.65,0,1,1,32.18-90.1A67.66,67.66,0,0,1,586.08,216Z" transform="translate(-73.34 -29.59)"/><path class="cls-6" d="M518.74,73.88a89.65,89.65,0,1,0,119.4,42.65A89.65,89.65,0,0,0,518.74,73.88Zm70.31,148.43A74.59,74.59,0,1,1,624.53,123,74.59,74.59,0,0,1,589.05,222.31Z" transform="translate(-73.34 -29.59)"/><path class="cls-6" d="M586,146.23q-4.86-2.55-12-1.86a16.47,16.47,0,0,0,3.12-8.2,17.12,17.12,0,0,0-1.78-8.72q-4.2-8.9-12.7-10.58t-20.5,4l-2.88,1.36-3.81-8c-1.17-2.46-5.64-.35-4.47,2.12l3.81,8-2.9,1.37-3.81-8c-1.17-2.47-5.63-.35-4.46,2.12l3.81,8-11.72,5.55a4.28,4.28,0,0,0-2.44,2.44,4.58,4.58,0,0,0,.41,3.51c.73,1.55,1.65,2.41,2.76,2.61s3.11-.41,6-1.78l1.87-.89,24.15,51-1.87.88q-4.7,2.23-5.55,3.64c-.57.94-.5,2.17.22,3.67a4.64,4.64,0,0,0,2.43,2.59,4.37,4.37,0,0,0,3.46-.39L559.19,195c1.27,2.69,2.55,5.37,3.82,8.05,1.17,2.47,5.63.36,4.46-2.11l-3.81-8,2.9-1.38,3.81,8c1.17,2.47,5.63.36,4.47-2.11L571,189.35l1.47-.7,4.87-2.3a55.24,55.24,0,0,0,9.29-5.27,23.17,23.17,0,0,0,5.08-5.21,22,22,0,0,0,3.89-10.37,19.76,19.76,0,0,0-1.9-10.6A18.09,18.09,0,0,0,586,146.23Zm-38.76-17.81q6.57-3.12,11.35-2.09a10.14,10.14,0,0,1,7.17,6.07q2.52,5.31-.15,9.7t-10.71,8.19l-1.93.91q-4.92-10.41-9.86-20.83Zm-8.59,4.07q4.92,10.41,9.86,20.83l-2.9,1.37-9.87-20.83Zm21.25,52.37q-5.5-11.61-11-23.21l2.9-1.37,11,23.2Zm23.75-14.54q-3.09,4.76-13.73,9.79l-2.66,1.26q-5.49-11.61-11-23.21l3.23-1.52q10.47-5,15.89-4.27t8.39,7Q586.72,165.57,583.63,170.32Z" transform="translate(-73.34 -29.59)"/><polygon class="cls-7" points="455.66 392.31 366.66 373.41 407.66 257.41 373.66 245.41 314.66 359.41 317.66 417.41 440.66 457.41 455.66 392.31"/><polygon class="cls-8" points="659.67 609.21 657.5 797.4 677.55 1039.66 704.82 1039.66 737.45 816.15 774.76 592.27 659.67 609.21"/><polygon class="cls-9" points="704.66 1051.16 675.17 1065.9 660.43 1051.16 675.17 1036.41 704.66 1036.41 704.66 1051.16"/><polygon class="cls-8" points="837.04 613.02 847.16 721.43 857.17 1043.37 830.01 1045.77 765.77 837.22 720.9 606.28 837.04 613.02"/><polygon class="cls-9" points="831.17 1057.21 861.85 1069.3 875.24 1053.31 859.25 1039.93 829.88 1042.52 831.17 1057.21"/><path class="cls-8" d="M940.25,714.87c-1,17.26-3.55,40.23-10.87,40.41a7.22,7.22,0,0,1-3.76-1.38c-12-7.29-20.19-16.78-32-23.85-12.43-7.41-26.91-12-41.15-15.62a442.26,442.26,0,0,0-64.62-11.79c-18.63-1.9-38.81,4.79-56.87,7.82C724,711.63,718,716.05,712,719.41c-8.86,4.94-12.72,6.87-10.49-4.72,3.64-18.92,7.34-37.83,11.47-56.65,8.23-37.54,18.15-74.82,32.37-110.58,5.44-13.66,11.49-27.06,17.53-40.46q11.05-24.47,22.09-48.95c9.15-20.28,22.68-33.9,44.62-39.24,19-4.62,41.95-4.22,59,6.32,18.95,11.71,25.26,46.16,33.24,65,7,16.51,13.64,60.39,15.22,77.64,1.91,20.75,3.53,41.39,4.41,61.9a628.71,628.71,0,0,1-.4,67.57C940.89,699.72,940.74,706.63,940.25,714.87Z" transform="translate(-73.34 -29.59)"/><path class="cls-10" d="M868.22,426.21l-36.72-3.08S779.28,557,775.61,580.62c-3.59,23.15-22.36,116.61-22.36,116.61s40.54,4.76,86.83,14.83c44.85,14.07,49.24,8.64,49.24,8.64s-15.43-101.52-13.59-130.1c1.89-29.23,7.15-125.87,7.15-125.87Z" transform="translate(-73.34 -29.59)"/><path class="cls-11" d="M846.17,429.2a4.21,4.21,0,0,0,1.6.66,8.37,8.37,0,0,0,3.57-.35l14.29-3.57c-3.48-14.6,4.75-19.05,12-29.65s3-23.42,1-35.18c-.56-3.27-1.15-6.64-2.92-9.45-3.11-4.93-9.16-7.1-14.9-8.11-14.64-2.58-30.61.54-42,10.11-3,2.54-5.77,5.6-7.11,9.32-2.07,5.74-.55,12.08,1,18,2.35,9.07,6.24,17.79,12.45,24.9,5.78,6.63,15.49,8.92,17.66,17.48C843.37,425.56,844.37,428,846.17,429.2Z" transform="translate(-73.34 -29.59)"/><path class="cls-9" d="M811.74,370.19c1.3,3.62,3.51,7.16,3.08,11-6.17-1.26-10.8-6.81-13.67-12.69a21.87,21.87,0,0,1-2.51-8.5,10.41,10.41,0,0,1,2.88-8.07c3-2.73,8.89-2.56,10.36,1.53S809.79,364.75,811.74,370.19Z" transform="translate(-73.34 -29.59)"/><path class="cls-9" d="M776.2,341.5a13.36,13.36,0,0,1,4.41-11.88c3.14-2.75,6.85-5.18,8.47-9.14,1.25-3.06,1-6.64,2.28-9.71,2.25-5.57,8.36-7.9,13.62-10.36,13.17-6.16,19.91-12.19,35.17-8.4,10.84,2.7,24.27,1.54,34.61,6.17,4.32,1.93,8.23,5.43,11.58,9.44C898,321.54,903,342.56,898.7,359.17a64.9,64.9,0,0,1-3.87,10.55c-3,6.72-6.18,14.91-12.59,18.82-.8-2.88-3.19-4.22-4.24-7a22.63,22.63,0,0,1-1-6.36c-.64-8.36.23-21.82-8.59-24.89-11.16-3.87-30.25,3.33-39.79,9-8.45,5-22.9,12-33,9.07C786.28,365.62,777.11,351.06,776.2,341.5Z" transform="translate(-73.34 -29.59)"/><path class="cls-8" d="M859.7,426l-18.07-1.68a5.11,5.11,0,0,0-4.81,7.8l6.51,10.41L806.6,622.64l22,26.14L848,622l12-177.95,4-11.28A5.12,5.12,0,0,0,859.7,426Z" transform="translate(-73.34 -29.59)"/><polygon class="cls-8" points="762.13 387.98 683.66 334.41 657.66 185.41 632.66 190.41 627.66 347.41 639.66 376.41 705.21 442.72 751.66 394.41 762.13 387.98"/><polygon class="cls-8" points="795.67 388 882.66 372.41 924.66 209.41 951.66 214.41 932.66 391.41 913.66 422.41 834.66 450.41 808.66 402.41 795.67 388"/><path class="cls-12" d="M1193.93,1076.33l.09-.13-.1,0-5-65-32.14,6.89,15.94,56.59-8.21,17.22s-3.13,8.63-.2,7.74,15.61-4.43,16.6-5.37,9.63-13.19,12.3-17Z" transform="translate(-73.34 -29.59)"/><polygon class="cls-12" points="977.33 998.99 982.39 1043.23 973.98 1054.91 974.86 1062.61 997.39 1055.16 1007.53 1050.1 1008.19 987.66 977.33 998.99"/><polygon class="cls-13" points="1015.47 667.46 1031.29 792.57 1041.09 839.24 1083.96 1011.65 1123.03 1003.63 1104.94 815.01 1113.78 695.04 1117.26 663.52 1126.88 625.51 1015.47 667.46"/><polygon class="cls-13" points="935.74 673.96 942.05 801.32 974.17 1013.97 1012.64 1009.57 1013.84 883.73 1034.68 648.47 990.68 630.11 955.48 620.5 935.74 673.96"/><path class="cls-13" d="M1055.73,1072.82,1026,1102.53l2.29,11.43,24-2.75,31.46-23.09.06-16.57-3.22-2.55s-29.13,17.94-31.16,17.2S1055.73,1072.82,1055.73,1072.82Z" transform="translate(-73.34 -29.59)"/><path class="cls-13" d="M1172.72,1075l-15.08,16.16-9.13,7.26,3.72,12.44,13.36,2.33,35.17-21.38-3.22-15.3-3.32-3.53s-13.77,11.35-26.72,17.94C1163.84,1092.75,1172.72,1075,1172.72,1075Z" transform="translate(-73.34 -29.59)"/><polygon class="cls-14" points="982.78 417.4 954.78 431.92 897.66 532.61 915.09 563.58 940.26 546.16 978.01 495.82 982.78 417.4"/><path class="cls-14" d="M1048.45,452.43s13.55-16.09,64.86-16.09S1202.94,598.84,1201,628s5.24,94.89,5.24,94.89l-120-30.11s-67.74.13-84.2,16.22,32-114.83,33-145S1032,467.52,1048.45,452.43Z" transform="translate(-73.34 -29.59)"/><polygon class="cls-15" points="1030.43 410.42 1035.13 410.63 1019.93 540.11 993.5 485.17 988.66 426.12 993.5 417.4 1030.43 410.42"/><path class="cls-12" d="M1031.28,388.1c-3.17-39.25,47.47-46.14,70-19.81,14.72,17.17,10.64,49.58-7.41,64.24a21.26,21.26,0,0,0,.77,2.2,71.91,71.91,0,0,1,3.27,9.88c.34,1.26-19.14,5.65-21.32,6.13a3,3,0,0,1-2.26-.1c-1.21-.81-1.49-4.65-1.9-6-.49-1.55-1-3.1-1.48-4.65-12.29-.52-23.28-8.26-29.74-18.2S1032.23,399.89,1031.28,388.1Z" transform="translate(-73.34 -29.59)"/><path class="cls-16" d="M1047.2,344.43c3.49,1.39,5.93,4.4,8.06,7.38a15.49,15.49,0,0,1,3,5.78c1.71,8.48-6.15,11.43-11,16.52a43.19,43.19,0,0,0-11.08,23c-2,13,6.68,24.92,14.21,35.06,2.65,3.57,7.08,8.67,5.54,13.56s-9,7.57-13.6,7.36c-4.16-.2-8.35-2.1-12.38-1.09-4.28,1.08-8.9,5.18-12.35,2.33-1-.79-1.55-2-2.6-2.66-3.58-2.18-7.44,3.89-11.51,3-2.51-.53-3.76-3.45-4.12-6s-.3-5.39-1.77-7.53c-1.26-1.85-3.41-2.8-5.1-4.24a11.67,11.67,0,0,1-3.49-12c2.42-7.82,12.38-10.89,15.31-18.52,1.52-4,.83-8.45.19-12.7s-1.16-8.78.64-12.63c2.23-4.75,7.69-6.49,9.61-11.82,1.13-3.13,1.26-6.62,2.77-9.58,2-3.89,7.2-8.49,10.49-11.47A18.45,18.45,0,0,1,1047.2,344.43Z" transform="translate(-73.34 -29.59)"/><path class="cls-16" d="M1099.48,386.44c5.11,11.14,4.84,25.71,14.33,33.34s23.38,3.81,34.7-.51c1.86-.71,25.68-9.08,26.06-9.4,12.19-10.32-.84-17.41-2.25-26-2-12.37,17.34-10.44,13.06-21.24-2.43.6-4.78-1.67-5.53-4.11s-.47-5.08-.75-7.63a17.17,17.17,0,0,0-11-14c-11.65-4.1-25.26,5.66-36.23-.1-6.81-3.58-9.77-11.78-15-17.48-10.13-11-25.53-7.54-38.7-8.77-13.92-1.29-26-.07-38,7.74-14.87,9.68-19.66,31.21-6.77,43.88,16.55,16.24,47.52.69,62.2,18.11A26.7,26.7,0,0,1,1099.48,386.44Z" transform="translate(-73.34 -29.59)"/><polygon class="cls-17" points="897.66 532.41 926.66 508.41 982.66 495.41 990.66 517.41 914.66 563.41 897.66 532.41"/><polygon class="cls-18" points="1232.66 449.41 1187.1 519.35 1157.45 575.99 1168.3 597.95 1207.75 586.91 1232.66 449.41"/><polygon class="cls-18" points="1287.25 696.39 1287.25 731.8 1240.04 885.25 1251.84 1044.61 1222.33 1050.51 1175.11 855.74 1176.92 798.44 1198.72 681.57 1287.25 696.39"/><polygon class="cls-16" points="1226.2 1047.48 1203.68 1071.33 1210.18 1083.41 1256.67 1061.1 1248.11 1043.44 1226.2 1047.48"/><polygon class="cls-16" points="1297.64 1058.37 1269.87 1075.83 1273.15 1089.16 1323.73 1079.17 1319.86 1059.92 1297.64 1058.37"/><path class="cls-18" d="M1305.85,478.82,1376.09,451s25,62,53.35,161.33-13.18,225.77-13.18,225.77-160.93-38.25-193.06-44.55l40.31-181.57Z" transform="translate(-73.34 -29.59)"/><polygon class="cls-18" points="1249.8 738.32 1297.24 1062.93 1318.8 1062.93 1332.42 885.87 1361.93 708.81 1249.8 738.32"/><path class="cls-19" d="M1303.52,381.37c19.13,1.41,37-14.3,55.84-10.4,12.24,2.53,21.9,13.39,25.63,25.63,1.75,5.7,2.36,11.91.66,17.59a29.43,29.43,0,0,1-5.55,9.94,41.71,41.71,0,0,1-11.49,9.73,74.64,74.64,0,0,0,8.19,10.86l-26.47,10.14q-2.92-7.61-5.84-15.21a40.57,40.57,0,0,1-7.89-1.2c-15.66-4.06-28.64-17.78-32.14-33.95C1302.83,396.93,1303.14,389.09,1303.52,381.37Z" transform="translate(-73.34 -29.59)"/><polygon class="cls-20" points="1235.01 357.56 1294.15 350.53 1305.63 395.7 1322.33 382.45 1313.73 308.53 1230.27 306.73 1194.13 327.93 1195.65 349.18 1227.97 370.93 1235.01 357.56"/><path class="cls-10" d="M1331.31,461.85,1401.55,434s25,62,53.35,161.34-13.18,225.77-13.18,225.77-144-71.13-176.09-77.44L1289,595Z" transform="translate(-73.34 -29.59)"/><path class="cls-18" d="M1456,597.44C1427.58,498.11,1403,436,1403,436l-70.63,28-.12.36c1.56,4.06,3.19,8.09,4.6,12.21a282.92,282.92,0,0,1,12.2,49.93c4.44,29.85,4.9,60.53,4,90.65a592.34,592.34,0,0,1-9,86.2,583.85,583.85,0,0,1-31.55,109.75c65.33,13.28,142.22,29,142.22,29S1484.34,696.77,1456,597.44Z" transform="translate(-73.34 -29.59)"/><path class="cls-8" d="M1298.2,613.52c-3.18,13.38-6.58,28.45-3.87,41.45,0,0,8.76,18.31,9.52,17.56,0-.59,10-8.81,12.77-14.94,4.76-10.45,5.78-23.5,5.88-35.3.35-41.85-2.13-84,4.93-125.29,8.24-2.5,15.3-8.56,10.24-17.16-16,6.08-17.73,42.15-21.23,56.89Z" transform="translate(-73.34 -29.59)"/><polygon class="cls-18" points="1323.73 408.76 1393.66 365.41 1380.66 246.41 1411.66 234.41 1462.66 370.41 1452.66 392.41 1356.81 484.91 1323.73 408.76"/><polygon class="cls-18" points="1194.66 540.41 1201.66 457.41 1167.66 457.41 1141.66 571.41 1159.66 606.41 1188.61 592.27 1194.66 540.41"/><polygon class="cls-19" points="1171.66 457.41 1171.66 429.41 1192.66 421.41 1211.66 436.41 1211.66 449.41 1197.66 457.41 1171.66 457.41"/><path class="cls-16" d="M422.82,1113.16l-23.7-21.89c-6.88-3.48-14.16-5.91-20.05-5.84-4.28,0-7.83,1.43-10,4.68a11.52,11.52,0,0,0-1.07,10.56,14.33,14.33,0,0,0,2.06,3.33h0c.71.89,1.48,1.72,2.25,2.55.49.53,1,1.09,1.6,1.68,4.91,5.32,13.12,14,16.39,15.93,4.78,2.87,15.31,10.53,27.76,1.92l-.15-.12C422.47,1122.9,423.8,1117.87,422.82,1113.16Z" transform="translate(-73.34 -29.59)"/><path class="cls-11" d="M404.22,922.48,402.3,950l-9.39,133.76,9.39,15.56s1.92,12.45-12.44,11.49c-4.27-.28-19.4-19.52-19.4-19.52l2.19-8.81L362,982l.1-29.17L357,920.44Z" transform="translate(-73.34 -29.59)"/><path class="cls-16" d="M254,1079.19c-4.41-1.38-8.52-1.17-11.82,1.44a12.42,12.42,0,0,0-4.66,10.48,22.78,22.78,0,0,0,2.44,7.5c5.73,12.41,21.78,40.46,40.2,35.32,7.74-2.16,10.67-10.06,9.1-17C286.85,1106.37,268.7,1083.84,254,1079.19Z" transform="translate(-73.34 -29.59)"/><path class="cls-11" d="M346.8,906.43,343.59,946l-77.66,139.83s11.16,19.5,4.08,21.2-27.84-4.21-27.89-26.24c8.17-26.67,40.26-117.23,40.26-117.23l15-23.37-.22-43.92Z" transform="translate(-73.34 -29.59)"/><path class="cls-15" d="M259.05,774c-.61-11.67,3.12-42.1,6.95-53,14-39.76,16.67-59.35,16.67-91.72s-14.36-135-14.36-135l49.88-29.94L378,466.05,412,478s6.22,128.1,8.21,169.7c1.43,29.7,3.49,55.41,6.2,89.82,0,0,7.62,78.47-4.14,162.59,0,0-2.63,27.94-3.8,30.38-.16.83-.25,1.28-.25,1.28H284.78V883.83q-6.64-23.08-12.66-46.34C267,817.8,260.19,795.64,259.05,774Z" transform="translate(-73.34 -29.59)"/><path class="cls-18" d="M287.18,473.41l-22.7,17.07s17.26,118.18,18.19,138.8-25.66,103-25.66,103l110.08,14.36s16.19-88,20.85-131.73S326,464.64,326,464.64Z" transform="translate(-73.34 -29.59)"/><path class="cls-18" d="M397.53,471.34,420,482s-3.16,131.37,2.6,164.74c3.51,20.34,17.18,86.2,17.18,86.2l-35.55,12.17S382.35,662.72,378,619s.39-152.45.39-152.45Z" transform="translate(-73.34 -29.59)"/><path class="cls-21" d="M393.17,423.21c2.92,11.29-3.77,22.44-9.63,32-2.4,3.89-6.11,9.3-3,13.74,3.46,5,12.05,4,15.83.26,2.66-2.62,4-6.18,5.11-9.65,5.1-15.55,12.22-37.32,10.83-53.66-1.12-13.11-17.18-36.37-33.74-28.05-3,1.51-4.93,4.35-6.58,7.14a13.67,13.67,0,0,0-2.13,5.32c-.78,7.59,6.54,9.54,11.35,13.62A38.35,38.35,0,0,1,393.17,423.21Z" transform="translate(-73.34 -29.59)"/><path class="cls-11" d="M365.55,463.76c11.06-1.4,20.3-9.13,25.25-18.43s6.12-20,5.93-30.45c-.65-34.74-46.71-36.67-64.62-11.7C316.5,424.93,333.41,467.84,365.55,463.76Z" transform="translate(-73.34 -29.59)"/><path class="cls-21" d="M334.11,419.57c-.38,4.21-2.52,8.67-3.11,13-1.09,8,.69,18.28-2.22,25.55-8.08-1.11-17.9-6.16-23.88-11.7s-5-14.08-6.38-22.42c-1.27-7.71-2.88-15.46-2.44-23.27,2.42-42.72,45.05-66.08,82.61-46.81,14.21,7.29,20.43,25.82,10,38C377.42,405,354.58,399.32,341.11,409,338.13,411.2,335.83,415.07,334.11,419.57Z" transform="translate(-73.34 -29.59)"/><path class="cls-11" d="M366.48,460.18l-1.68,7.76c-.26,1.18-.16,4.58-1.18,5.39a2.73,2.73,0,0,1-2,.27c-2-.24-19.88-2.52-19.68-3.65A62.48,62.48,0,0,1,344,461c.77-2.35,1.07-6.78,2.48-8.56a32.3,32.3,0,0,0,9.76,4.37q5.18,1.47,10.4,2.77C366.57,459.78,366.52,460,366.48,460.18Z" transform="translate(-73.34 -29.59)"/><polygon class="cls-14" points="1027.66 407.41 1121.66 380.41 1107.66 265.41 1136.66 258.41 1172.66 404.41 1152.66 427.41 1071.66 457.41 1036.16 408.91 1027.66 407.41"/><polygon class="cls-12" points="1133.61 259.18 1137.64 233.62 1112.62 221.55 1091.68 247.74 1110.47 264.89 1133.61 259.18"/><path class="cls-12" d="M1046,544.75c0,.25-7-6.75-7-6.75l-2-16,25.75-9.5L1067,525Z" transform="translate(-73.34 -29.59)"/><polygon class="cls-19" points="1383.66 245.41 1377.66 221.41 1391.66 207.41 1397.66 182.41 1414.66 189.41 1414.66 221.41 1402.42 237.99 1383.66 245.41"/><polygon class="cls-11" points="927.74 209.98 929.66 185.41 943.66 165.41 949.66 168.41 943.66 179.41 970.66 157.41 984.66 166.41 946.16 213.91 927.74 209.98"/><polygon class="cls-11" points="657.66 185.41 671.66 152.41 664.66 148.41 652.66 157.41 634.66 133.41 616.66 141.41 632.66 190.41 657.66 185.41"/><polygon class="cls-7" points="495.66 393.41 562.66 354.41 529.66 218.41 563.66 205.41 618.66 351.41 605.66 387.41 548.66 435.41 514.66 395.6 495.66 393.41"/><path class="cls-13" d="M639.05,1062.52l22.87,16.2,7.62,12.39s-8.57,3.81-13.34,4.76-41.93-4.76-41.93-4.76v-21.92Z" transform="translate(-73.34 -29.59)"/><path class="cls-13" d="M516.13,1073l12.39,12.39s10.49,17.15,5.72,17.15-30.49,2.86-32.4,0-16.2-12.39-18.11-14.29-1-18.62-1-18.62Z" transform="translate(-73.34 -29.59)"/><path class="cls-22" d="M595.51,745.34,561.82,905.6l-46,167.56-33.16-3.6L498.22,891s-11.07-149.29-8.66-197.92Z" transform="translate(-73.34 -29.59)"/><polygon class="cls-22" points="602.88 711.76 574.29 1039.6 539.98 1039.6 529.5 871.87 509.8 723.37 584.77 635.52 602.88 711.76"/><path class="cls-7" d="M671,592c-5.36-19.3-9.6-38.89-13.23-58.58-3.16-17.18-4.41-35.68-11.87-51.7S624.34,453.57,613.46,440c-4.61-5.77-9.53-11.77-16.39-14.53-4.69-1.88-9.88-2.05-14.94-2.2l-46-1.32c-5.6-.16-11.42-.28-16.52,2-7.64,3.45-12,11.48-15.74,19-9.64,19.12-11.42,40.34-12.28,62,0,.21,4.42,58.23-5.56,104.15-9.94,45.7-23.76,125-23,178.94.14.44.28.89.43,1.32,8.9-5.85,16.16-12.89,25.68-18,11.86-6.34,25.42-9.71,38.72-12.07A372.6,372.6,0,0,1,588.29,753c15.93-.28,31.93,1.08,47.79,2.4,13.2,1.09,25.48,5,38.92,4.07a87.59,87.59,0,0,0,23.51-4.93C700,690,676,610,671,592Z" transform="translate(-73.34 -29.59)"/><polygon class="cls-15" points="472.7 393.46 460.31 393.46 460.31 407.75 518.45 530.69 523.21 474.46 504.15 395.36 472.7 393.46"/><path class="cls-8" d="M595.68,514.34c-.59-5-1.28-9.51-2-13.13C588.27,476.2,567,445,567,445a131.22,131.22,0,0,1-2.81-13.35l-15.25-.95,2.51,15.57,7.14,6.13s21.68,58.66,24.36,82.78c.28,2.53.5,5.14.67,7.78l8.21,17.35Z" transform="translate(-73.34 -29.59)"/><polygon class="cls-15" points="528.93 579.29 507.96 723.2 545.13 726.06 570.86 726.06 541.32 601.21 528.93 579.29"/><path class="cls-11" d="M566.46,431.83l-25.63-1.11a127.86,127.86,0,0,1,.26-20.43c-7.22-2.1-15.61-5.38-17.25-12.71a21.24,21.24,0,0,1,0-7.07l3.39-29.16c.39-3.37.81-6.83,2.47-9.78,2.9-5.19,8.94-7.72,14.73-9.06,14.77-3.41,31.2-1.08,43.3,8,3.22,2.43,6.18,5.4,7.74,9.12,2.42,5.73,1.21,12.27,0,18.36L592,394.91c-1.32,6.47-3.33,13.85-9.34,16.58-3.2,1.45-7.07,1.29-9.92,3.34C567.73,418.43,568.86,426.13,566.46,431.83Z" transform="translate(-73.34 -29.59)"/><path class="cls-9" d="M613.78,308.28a25.33,25.33,0,0,1-5.79-1.59c-6.19-2.69-10.53-8.09-17.1-10.62-13.28-5.11-29.95-4.37-43,1.12-12.49,5.25-29.54,7.28-40.72,14.34a34,34,0,0,0-11,12.14c-9.49,16.61-8.32,38.72,2.87,54.24a73.45,73.45,0,0,0,8.54,9.61c6.37,6.19,14,13.85,22.42,15.8-.22-7.41-8.25-30.36-2.91-36.74,7.09-8.46,21-8.25,31-7.31,11.88,1.11,21.66-2.71,33.51-2.11,6,.3,12.86,1.51,17.48-2.37,5.35-4.5,16.66-18.76,19.35-25,2.34-5.48.78-12.23-3.3-16.58C621.55,309.43,617.75,309,613.78,308.28Z" transform="translate(-73.34 -29.59)"/><polygon class="cls-11" points="560.66 206.27 560.66 183.77 540.66 173.77 515.66 197.1 523.16 212.1 536.4 215.55 560.66 206.27"/><polygon class="cls-11" points="378.25 247.03 375.66 226.41 393.66 217.41 417.66 229.41 421.66 247.41 403.11 255.81 378.25 247.03"/><polygon class="cls-18" points="252.66 435.41 164.66 420.41 123.66 301.41 88.66 311.41 120.66 445.41 140.66 468.41 223.66 495.41 252.66 435.41"/><polygon class="cls-18" points="346.66 452.41 384.66 550.41 384.66 592.41 339.13 592.41 329.66 465.41 346.66 452.41"/><polygon class="cls-23" points="330.66 482.41 384.66 550.41 384.66 592.41 334.66 592.41 307.66 490.41 330.66 482.41"/><polygon class="cls-11" points="118.38 302.92 124.66 272.41 111.66 252.41 103.66 255.41 106.66 272.41 80.66 249.41 66.66 261.41 97 310.1 118.38 302.92"/><polygon class="cls-11" points="327.59 483.48 331.66 468.41 314.66 453.41 291.66 473.41 296.66 483.41 309.16 489.89 327.59 483.48"/><path class="cls-5" d="M1166.65,62.75c-28.05-21.9-68-24.22-92.6-2.19-29.18,26.16-26,75.53,12.43,105.43s86.85,20.75,105-13.94C1206.68,122.84,1194.67,84.63,1166.65,62.75Z" transform="translate(-73.34 -29.59)"/><path class="cls-3" d="M1169.26,59.39c-30.22-23.59-73.47-26.45-100.51-3-32.62,28.33-29.89,82.89,12.71,116s95.89,22.26,115.25-16.3C1212.76,124.2,1199.44,83,1169.26,59.39ZM1091.5,159.53c-34.26-26.66-37.75-70.83-12-94.71,22-20.43,58.6-18.63,84.37,1.48s36.42,55.12,22.09,81.5C1169.24,178.64,1125.73,186.16,1091.5,159.53Z" transform="translate(-73.34 -29.59)"/><path class="cls-24" d="M1172.41,55.33c-32.83-25.63-76.52-27.39-106.69-2.2-28.17,28-35.94,80.76,10.36,121.54,47.91,37.25,102.06,23,124.31-15.3C1220.1,125.42,1205.2,80.93,1172.41,55.33ZM1086.48,166c-38.43-29.9-41.61-79.27-12.43-105.43,24.56-22,64.55-19.71,92.6,2.19s40,60.09,24.78,89.3C1173.33,186.74,1124.87,195.85,1086.48,166Z" transform="translate(-73.34 -29.59)"/><path class="cls-5" d="M1171.8,57.19c-28-21.9-68-24.22-92.59-2.2-29.18,26.17-26,75.54,12.43,105.44s86.84,20.75,104.95-13.94C1211.83,117.28,1199.83,79.07,1171.8,57.19Z" transform="translate(-73.34 -29.59)"/><path class="cls-3" d="M1174.41,53.83c-30.21-23.59-73.46-26.45-100.5-3-32.63,28.33-29.9,82.89,12.71,116s95.88,22.26,115.24-16.3C1217.91,118.64,1204.59,77.39,1174.41,53.83ZM1096.66,154c-34.27-26.66-37.75-70.83-12-94.71,22-20.43,58.6-18.63,84.36,1.48s36.42,55.12,22.1,81.5C1174.4,173.08,1130.88,180.6,1096.66,154Z" transform="translate(-73.34 -29.59)"/><path class="cls-6" d="M1177.56,49.77c-32.82-25.63-76.51-27.39-106.68-2.2-28.17,28-35.94,80.76,10.35,121.54,47.92,37.25,102.07,23,124.32-15.3C1225.25,119.86,1210.35,75.37,1177.56,49.77Zm-85.92,110.66C1053.21,130.53,1050,81.16,1079.21,55c24.56-22,64.54-19.7,92.59,2.2s40,60.09,24.79,89.3C1178.48,181.18,1130,190.29,1091.64,160.43Z" transform="translate(-73.34 -29.59)"/><path class="cls-6" d="M1104.86,100.48c-.36-1,.34-2.08.91-3.06,1.45-2.46,4.41-2.84,7.08-1.15,4,2.52,5.73,7.9,8,12a29.42,29.42,0,0,0,7.79,9q5.4,4.26,10.42,4.42a8.57,8.57,0,0,0,7.7-3.65c1.83-2.53,2.26-5,1.34-7.35s-3.4-5.12-7.46-8.32l-2.68-2.11c-6.62-5.21-10.69-10.33-12.21-15.31s-.41-9.36,3.16-13.35a14.16,14.16,0,0,1,12.5-5c4.88.45,10.12,2.9,15.77,7.35a36.34,36.34,0,0,1,6.33,6.47c4,5.25,10,15.2,5.22,18.09-5.58,3.39-9.42-10.84-11.71-14.41a25.46,25.46,0,0,0-5.7-6,15.39,15.39,0,0,0-8.42-3.66,7.51,7.51,0,0,0-6.58,2.54,5.26,5.26,0,0,0-.67,6.26q1.76,3.45,10.86,10.94,9.69,8,11.88,15c1.47,4.74.53,9.61-2.93,14.68s-8,7.68-13.79,7.95-12-2-18.24-7a52.11,52.11,0,0,1-6.13-5.8C1113.34,114.74,1107.32,107.71,1104.86,100.48Z" transform="translate(-73.34 -29.59)"/><path class="cls-6" d="M1110.26,137.37l-.08-.07a5.37,5.37,0,0,1-.54-7.59l48.95-61.14a4,4,0,0,1,5.63-.35l.06,0a4.05,4.05,0,0,1,1,5.57l-47.55,62.25A5.32,5.32,0,0,1,1110.26,137.37Z" transform="translate(-73.34 -29.59)"/><path class="cls-5" d="M190.53,599c-30.74-17.94-70.68-14.86-92.06,10.25-25.4,29.84-15.62,78.35,26.47,102.82s88.85,8.9,102.13-27.9C238.26,653.21,221.24,617,190.53,599Z" transform="translate(-73.34 -29.59)"/><path class="cls-3" d="M192.66,595.35C159.56,576,116.31,579,92.67,605.9c-28.53,32.46-18.5,86.16,28.17,113.28s98,9.19,112-31.62C244.47,653.74,225.73,614.65,192.66,595.35ZM129.05,705c-37.53-21.82-46.92-65.12-24.59-92.25,19.11-23.2,55.58-26.32,83.81-9.85s43.48,49.73,32.83,77.8C208.65,713.52,166.54,726.82,129.05,705Z" transform="translate(-73.34 -29.59)"/><path class="cls-24" d="M195.24,590.91c-36-21-79.5-16.88-106,12.13C65.06,634.55,64.45,687.9,115.8,722.09c52.48,30.49,104.23,9.13,121.13-31.85C251.9,654,231.16,611.87,195.24,590.91ZM124.94,712.1c-42.09-24.47-51.87-73-26.47-102.82,21.38-25.11,61.32-28.19,92.06-10.25s47.73,54.18,36.54,85.17C213.79,721,167,736.54,124.94,712.1Z" transform="translate(-73.34 -29.59)"/><path class="cls-5" d="M194.89,592.83c-30.74-17.94-70.67-14.87-92.06,10.25-25.4,29.84-15.62,78.35,26.48,102.81S218.15,714.8,231.44,678C242.62,647,225.6,610.74,194.89,592.83Z" transform="translate(-73.34 -29.59)"/><path class="cls-3" d="M197,589.15c-33.1-19.32-76.35-16.35-100,10.55C68.5,632.16,78.53,685.86,125.2,713s98,9.19,112-31.62C248.83,647.53,230.09,608.45,197,589.15ZM133.41,698.82C95.88,677,86.5,633.69,108.83,606.57c19.1-23.2,55.57-26.32,83.8-9.85s43.49,49.73,32.83,77.8C213,707.32,170.9,720.62,133.41,698.82Z" transform="translate(-73.34 -29.59)"/><path class="cls-6" d="M199.6,584.7c-36-21-79.5-16.87-106,12.14-24.15,31.51-24.77,84.85,26.58,119C172.64,746.38,224.39,725,241.3,684,256.27,647.76,235.53,605.67,199.6,584.7ZM129.31,705.89c-42.1-24.46-51.88-73-26.48-102.81,21.39-25.12,61.32-28.19,92.06-10.25S242.62,647,231.44,678C218.15,714.8,171.35,730.33,129.31,705.89Z" transform="translate(-73.34 -29.59)"/><path class="cls-6" d="M192,660.87q-.89-4.79-5.57-10.06a15.38,15.38,0,0,0,8-.87,12,12,0,0,0,5.54-4.87,13.57,13.57,0,0,0,.57-14.1q-3.66-7.28-14.93-14.31l-2.7-1.69,3.84-6.18c1.18-1.9-3-4.52-4.19-2.62l-3.84,6.18-2.73-1.7q1.94-3.09,3.85-6.18c1.18-1.9-3-4.52-4.19-2.62L171.81,608l-11-6.87a4.86,4.86,0,0,0-3.26-.92,3.33,3.33,0,0,0-2.4,1.73,3,3,0,0,0-.36,3.18q.75,1.41,4.84,4l1.75,1.1L137,649.4l-1.76-1.1c-2.94-1.83-4.92-2.78-6-2.85a2.87,2.87,0,0,0-2.65,1.64,3.47,3.47,0,0,0-.53,2.93,5,5,0,0,0,2.31,2.52l11.31,7.07-3.84,6.19c-1.18,1.89,3,4.51,4.19,2.62l3.84-6.19,2.72,1.7-3.84,6.19c-1.18,1.89,3,4.51,4.19,2.61l3.84-6.18,1.38.86,4.57,2.85a66,66,0,0,0,9.37,5.1,26.66,26.66,0,0,0,6.88,1.86,20.62,20.62,0,0,0,10.07-1.14,14,14,0,0,0,6.87-5.72A13,13,0,0,0,192,660.87Zm-9.13-37.22q6.17,3.86,8.17,8a7.8,7.8,0,0,1-.39,8,7.55,7.55,0,0,1-7.4,3.77c-3.23-.21-7.37-1.89-12.39-5l-1.81-1.12,10-16Zm-8.06-5-10,16-2.72-1.7,9.94-16ZM147.76,656.1q5.53-8.91,11.08-17.83l2.72,1.7q-5.53,8.91-11.08,17.83Zm24.77,12.6q-5.39-.48-15.36-6.72l-2.5-1.56q5.54-8.92,11.08-17.83l3,1.89q9.83,6.13,12.46,10.62t-.37,9.31A8.31,8.31,0,0,1,172.53,668.7Z" transform="translate(-73.34 -29.59)"/><path class="cls-1" d="M1494.84,1053.27c-1.5.22-62.84,8.73-46.84,34.73s139.07,33.22,175.53,6.61S1580.68,1040.53,1494.84,1053.27Z" transform="translate(-73.34 -29.59)"/><path class="cls-5" d="M1594,964.59c-33.86-11-72.22.56-87.75,29.66-18.45,34.57,1.45,79.88,47.8,94.8s88.7-10.26,93.82-49C1652.22,1007.33,1627.85,975.54,1594,964.59Z" transform="translate(-73.34 -29.59)"/><path class="cls-3" d="M1595.33,960.54c-36.47-11.81-78.08.32-95.44,31.65-20.94,37.8.31,88.12,51.69,104.65s97.71-11.93,102.69-54.79C1658.4,1006.53,1631.75,972.34,1595.33,960.54Zm-38.75,120.72c-41.32-13.31-59.73-53.61-43.7-84.88,13.71-26.74,48.68-37.57,79.77-27.51s53.1,39.31,48.68,69C1636.16,1072.58,1597.86,1094.56,1556.58,1081.26Z" transform="translate(-73.34 -29.59)"/><path class="cls-24" d="M1596.9,955.65c-39.62-12.83-81.27.48-101,34.48-16.88,35.93-6.1,88.18,51.37,110.63,57.78,18.59,103.78-13.32,111.55-57C1665.71,1005.16,1636.47,968.47,1596.9,955.65Zm-42.82,133.4c-46.35-14.92-66.25-60.23-47.8-94.8,15.53-29.1,53.89-40.62,87.75-29.66s58.19,42.74,53.87,75.41C1642.78,1078.79,1600.37,1104,1554.08,1089.05Z" transform="translate(-73.34 -29.59)"/><path class="cls-5" d="M1597,957.6c-33.86-11-72.22.56-87.75,29.66-18.45,34.57,1.45,79.88,47.8,94.8s88.7-10.26,93.82-49C1655.16,1000.34,1630.79,968.55,1597,957.6Z" transform="translate(-73.34 -29.59)"/><path class="cls-3" d="M1598.27,953.55c-36.47-11.81-78.08.32-95.44,31.65-20.95,37.8.31,88.12,51.69,104.65s97.71-11.93,102.69-54.79C1661.34,999.53,1634.69,965.35,1598.27,953.55Zm-38.75,120.72c-41.32-13.31-59.73-53.62-43.7-84.88,13.71-26.74,48.68-37.57,79.77-27.51s53.1,39.31,48.68,69C1639.1,1065.59,1600.8,1087.56,1559.52,1074.27Z" transform="translate(-73.34 -29.59)"/><path class="cls-6" d="M1599.84,948.66c-39.62-12.83-81.27.48-101,34.48-16.88,35.93-6.1,88.18,51.37,110.63,57.78,18.59,103.78-13.32,111.55-57C1668.65,998.17,1639.41,961.48,1599.84,948.66ZM1557,1082.06c-46.35-14.92-66.25-60.23-47.8-94.8,15.53-29.1,53.89-40.62,87.75-29.66s58.19,42.74,53.87,75.41C1645.72,1071.8,1603.31,1097,1557,1082.06Z" transform="translate(-73.34 -29.59)"/><path class="cls-6" d="M1548.9,1021.2c-.69-.85-.39-2.07-.19-3.18.52-2.81,3.17-4.18,6.26-3.51,4.61,1,8.09,5.46,11.56,8.51a29.53,29.53,0,0,0,10.4,5.79c4.36,1.43,8.14,1.63,11.31.58a8.57,8.57,0,0,0,6-6.07c.84-3,.41-5.44-1.26-7.35s-5-3.65-9.86-5.27l-3.24-1.06c-8-2.63-13.59-6-16.72-10.2s-3.59-8.66-1.61-13.63a14.17,14.17,0,0,1,10-8.95c4.74-1.25,10.5-.74,17.32,1.5a36.44,36.44,0,0,1,8.18,3.92c5.58,3.54,14.57,10.86,11.1,15.2-4.08,5.1-12.56-7-16-9.52a25,25,0,0,0-7.42-3.71,15.34,15.34,0,0,0-9.15-.55,7.5,7.5,0,0,0-5.32,4.64,5.25,5.25,0,0,0,1.52,6.11q2.82,2.64,14,6.55c7.9,2.82,13.33,6.15,16.3,10s3.79,8.84,2.28,14.79-4.89,10-10.23,12.2-12,2.19-19.53-.3a51.55,51.55,0,0,1-7.75-3.35C1561.75,1031.7,1553.7,1027.16,1548.9,1021.2Z" transform="translate(-73.34 -29.59)"/><path class="cls-6" d="M1566.62,1054l-.1,0a5.37,5.37,0,0,1-3.11-7l25-74.21a4,4,0,0,1,5.17-2.26l.08,0a4.05,4.05,0,0,1,2.85,4.89l-23.34,74.77A5.33,5.33,0,0,1,1566.62,1054Z" transform="translate(-73.34 -29.59)"/><path class="cls-3" d="M1499,983s24,10,58,2,47-24.76,47-34.88c0,0-31-13.52-62-1.82S1499,983,1499,983Z" transform="translate(-73.34 -29.59)"/><path class="cls-5" d="M1506.38,838.93c-34.43,9-60.54,39.39-57.94,72.27,3.09,39.07,44.27,66.5,91.35,54.1s69.19-56.43,52.61-91.87C1578.43,843.58,1540.77,829.93,1506.38,838.93Z" transform="translate(-73.34 -29.59)"/><path class="cls-3" d="M1505.29,834.82c-37.08,9.7-65.6,42.35-63.35,78.09,2.73,43.12,47.75,74.06,99.94,60.31s75.88-62.71,57-101.49C1583.2,839.57,1542.33,825.13,1505.29,834.82Zm32.41,122.57c-42,11.06-79.21-13-82.55-47.95-2.86-29.92,20.76-57.88,52.38-66.16s65.9,4.5,78.18,31.9C1600.06,907.2,1579.64,946.35,1537.7,957.39Z" transform="translate(-73.34 -29.59)"/><path class="cls-24" d="M1504,829.85c-40.28,10.54-68.2,44.2-66.49,83.47,5.15,39.36,42.39,77.57,102.89,65.52,58.69-15.48,80.25-67.15,63.28-108.1C1588.62,834.48,1544.22,819.33,1504,829.85Zm35.82,135.45c-47.08,12.4-88.26-15-91.35-54.1-2.6-32.88,23.51-63.26,57.94-72.27s72,4.65,86,34.49C1609,908.87,1586.82,952.91,1539.79,965.3Z" transform="translate(-73.34 -29.59)"/><path class="cls-5" d="M1505.08,831.46c-34.42,9-60.53,39.39-57.93,72.27,3.09,39.06,44.26,66.5,91.35,54.1s69.19-56.44,52.61-91.88C1577.14,836.11,1539.48,822.46,1505.08,831.46Z" transform="translate(-73.34 -29.59)"/><path class="cls-3" d="M1504,827.35c-37.08,9.7-65.6,42.34-63.35,78.08,2.73,43.13,47.75,74.07,99.94,60.31s75.88-62.7,57-101.49C1581.91,832.1,1541,817.66,1504,827.35Zm32.41,122.57c-42,11.06-79.21-13-82.55-47.95-2.86-29.92,20.76-57.88,52.38-66.16s65.9,4.5,78.18,31.9C1598.77,899.72,1578.35,938.88,1536.41,949.92Z" transform="translate(-73.34 -29.59)"/><path class="cls-6" d="M1502.68,822.38c-40.28,10.54-68.2,44.2-66.49,83.46,5.15,39.37,42.38,77.58,102.89,65.52,58.69-15.47,80.25-67.14,63.28-108.09C1587.33,827,1542.93,811.86,1502.68,822.38Zm35.82,135.45c-47.09,12.4-88.26-15-91.35-54.1-2.6-32.88,23.51-63.26,57.93-72.27s72.06,4.65,86,34.49C1607.69,901.39,1585.53,945.44,1538.5,957.83Z" transform="translate(-73.34 -29.59)"/><path class="cls-6" d="M1498.87,910.94c-1-.35-1.45-1.53-1.88-2.58-1.07-2.65.42-5.22,3.38-6.32,4.43-1.65,9.76.23,14.32.93a29.4,29.4,0,0,0,11.89-.73c4.44-1.14,7.73-3,9.84-5.6a8.55,8.55,0,0,0,1.77-8.34c-.9-3-2.58-4.81-5-5.52s-6.14-.4-11.14.88l-3.3.85q-12.26,3.15-19.59.41c-4.8-1.78-7.69-5.35-8.7-10.6a14.19,14.19,0,0,1,3.64-13q5-5.4,15.41-8.07a36.41,36.41,0,0,1,9-1.11c6.62,0,18.13,1.3,17.55,6.83-.69,6.49-14.33.91-18.56.57a25.16,25.16,0,0,0-8.25.87,15.41,15.41,0,0,0-8,4.47,7.49,7.49,0,0,0-2,6.78,5.26,5.26,0,0,0,4.57,4.33q3.79.69,15.28-2c8.18-1.89,14.54-2,19.14-.33s8,5.41,9.89,11.23,1.25,11-2,15.79-8.91,8.3-16.61,10.28a53.53,53.53,0,0,1-8.33,1.35C1515.35,912.86,1506.12,913.37,1498.87,910.94Z" transform="translate(-73.34 -29.59)"/><path class="cls-6" d="M1531.47,929l-.1,0a5.37,5.37,0,0,1-6.37-4.17l-18.89-76a4,4,0,0,1,3.14-4.69l.08,0a4.06,4.06,0,0,1,5,2.59L1535,922.31A5.33,5.33,0,0,1,1531.47,929Z" transform="translate(-73.34 -29.59)"/></g></svg>