<?xml version="1.0" encoding="utf-8"?>
<!-- Generator: Adobe Illustrator 25.2.3, SVG Export Plug-In . SVG Version: 6.00 Build 0)  -->
<svg version="1.1" id="Layer_1" xmlns="http://www.w3.org/2000/svg" xmlns:xlink="http://www.w3.org/1999/xlink" x="0px" y="0px"
	 viewBox="0 0 2674.2 2000" style="enable-background:new 0 0 2674.2 2000;" xml:space="preserve">
<style type="text/css">
	.st0{opacity:0.5;fill:#DAEEF7;}
	.st1{fill:#F4A640;}
	.st2{fill:#FEB546;}
	.st3{fill:#F9C27A;}
	.st4{fill:#E2881E;}
	.st5{fill:#C4DFE8;}
	.st6{fill:#FF5B7E;}
	.st7{fill:#FFC0BB;}
	.st8{fill:#02CCC0;}
	.st9{fill:#F2B955;}
	.st10{fill:#FFFFFF;}
	.st11{fill:#07085B;}
	.st12{fill:#FFCC68;}
	.st13{fill:#FBF9EB;}
	.st14{opacity:0.6;}
	.st15{fill:#FC8D84;}
	.st16{fill:#F99893;}
	.st17{fill:#333333;}
	.st18{fill:#8A452B;}
	.st19{fill:#111280;}
	.st20{fill:#00B3A9;}
	.st21{fill:#4F2305;}
	.st22{fill:#F46C0F;}
	.st23{fill:#632D07;}
</style>
<g>
	<g>
		<path class="st0" d="M2245.7,1802.8c0,0,334.8-231.9,159.3-686.2c-175.5-454.3-596.5-385.6-765-590
			c-168.5-204.4-575.5-328.6-854.1-117.9C544,591.4,578.8,792.7,375.8,1055c-332.5,429.6-106.6,734,208.9,747.8H2245.7z"/>
		<g>
			<g>
				
					<rect x="293.7" y="1589.7" transform="matrix(-1 -1.224647e-16 1.224647e-16 -1 746.8642 3246.8779)" class="st1" width="159.5" height="67.5"/>
				
					<rect x="453.2" y="1589.7" transform="matrix(-1 -1.224647e-16 1.224647e-16 -1 1065.8003 3246.8779)" class="st2" width="159.5" height="67.5"/>
				
					<rect x="612.6" y="1589.7" transform="matrix(-1 -1.224647e-16 1.224647e-16 -1 1384.7358 3246.8779)" class="st3" width="159.5" height="67.5"/>
				<g>
					<path class="st4" d="M292.4,1587.7h480.9v71.4H292.4V1587.7z M770.9,1591.7H294.9v63.5h475.9V1591.7z"/>
				</g>
			</g>
			<g>
				
					<rect x="269.3" y="1657.2" transform="matrix(-1 -1.224647e-16 1.224647e-16 -1 698.0063 3381.8389)" class="st1" width="159.5" height="67.5"/>
				
					<rect x="428.7" y="1657.2" transform="matrix(-1 -1.224647e-16 1.224647e-16 -1 1016.9419 3381.8389)" class="st2" width="159.5" height="67.5"/>
				
					<rect x="588.2" y="1657.2" transform="matrix(-1 -1.224647e-16 1.224647e-16 -1 1335.877 3381.8389)" class="st3" width="159.5" height="67.5"/>
				<g>
					<path class="st4" d="M268,1655.2h480.9v71.4H268V1655.2z M746.4,1659.2H270.5v63.5h475.9V1659.2z"/>
				</g>
			</g>
			<g>
				
					<rect x="230.8" y="1724.7" transform="matrix(-1 -1.224647e-16 1.224647e-16 -1 621.0181 3516.7998)" class="st1" width="159.5" height="67.5"/>
				
					<rect x="390.2" y="1724.7" transform="matrix(-1 -1.224647e-16 1.224647e-16 -1 939.9527 3516.7998)" class="st2" width="159.5" height="67.5"/>
				
					<rect x="549.7" y="1724.7" transform="matrix(-1 -1.224647e-16 1.224647e-16 -1 1258.8882 3516.7998)" class="st3" width="159.5" height="67.5"/>
				<g>
					<path class="st4" d="M229.5,1722.7h480.9v71.4H229.5V1722.7z M707.9,1726.6H232v63.5h475.9V1726.6z"/>
				</g>
			</g>
		</g>
		<path class="st5" d="M2515,1825.2H189.2c-6.7,0-12.1-5.4-12.1-12.1v-4.9c0-6.7,5.4-12.1,12.1-12.1H2515c6.7,0,12.1,5.4,12.1,12.1
			v4.9C2527.2,1819.8,2521.7,1825.2,2515,1825.2z"/>
		<g>
			<g>
				
					<rect x="577.2" y="1454.7" transform="matrix(-1 -1.224647e-16 1.224647e-16 -1 1313.7915 2976.9551)" class="st1" width="159.5" height="67.5"/>
				
					<rect x="736.6" y="1454.7" transform="matrix(-1 -1.224647e-16 1.224647e-16 -1 1632.7271 2976.9551)" class="st2" width="159.5" height="67.5"/>
				
					<rect x="896.1" y="1454.7" transform="matrix(-1 -1.224647e-16 1.224647e-16 -1 1951.6621 2976.9551)" class="st3" width="159.5" height="67.5"/>
				<g>
					<path class="st4" d="M575.9,1452.8h480.9v71.4H575.9V1452.8z M1054.3,1456.7H578.4v63.5h475.9V1456.7z"/>
				</g>
			</g>
			<g>
				
					<rect x="601.6" y="1589.7" transform="matrix(-1 -1.224647e-16 1.224647e-16 -1 1362.6504 3246.8779)" class="st1" width="159.5" height="67.5"/>
				
					<rect x="761.1" y="1589.7" transform="matrix(-1 -1.224647e-16 1.224647e-16 -1 1681.5854 3246.8779)" class="st2" width="159.5" height="67.5"/>
				
					<rect x="920.5" y="1589.7" transform="matrix(-1 -1.224647e-16 1.224647e-16 -1 2000.5205 3246.8779)" class="st3" width="159.5" height="67.5"/>
				<g>
					<path class="st4" d="M600.3,1587.7h480.9v71.4H600.3V1587.7z M1078.7,1591.7H602.8v63.5h475.9V1591.7z"/>
				</g>
			</g>
			<g>
				
					<rect x="577.2" y="1657.2" transform="matrix(-1 -1.224647e-16 1.224647e-16 -1 1313.7915 3381.8389)" class="st1" width="159.5" height="67.5"/>
				
					<rect x="736.6" y="1657.2" transform="matrix(-1 -1.224647e-16 1.224647e-16 -1 1632.7271 3381.8389)" class="st2" width="159.5" height="67.5"/>
				
					<rect x="896.1" y="1657.2" transform="matrix(-1 -1.224647e-16 1.224647e-16 -1 1951.6621 3381.8389)" class="st3" width="159.5" height="67.5"/>
				<g>
					<path class="st4" d="M575.9,1655.2h480.9v71.4H575.9V1655.2z M1054.3,1659.2H578.4v63.5h475.9V1659.2z"/>
				</g>
			</g>
			<g>
				
					<rect x="538.7" y="1724.7" transform="matrix(-1 -1.224647e-16 1.224647e-16 -1 1236.8022 3516.7998)" class="st1" width="159.5" height="67.5"/>
				
					<rect x="698.1" y="1724.7" transform="matrix(-1 -1.224647e-16 1.224647e-16 -1 1555.7378 3516.7998)" class="st2" width="159.5" height="67.5"/>
				
					<rect x="857.6" y="1724.7" transform="matrix(-1 -1.224647e-16 1.224647e-16 -1 1874.6733 3516.7998)" class="st3" width="159.5" height="67.5"/>
				<g>
					<path class="st4" d="M537.4,1722.7h480.9v71.4H537.4V1722.7z M1015.8,1726.6H539.9v63.5h475.9V1726.6z"/>
				</g>
			</g>
			<g>
				
					<rect x="550.9" y="1522.2" transform="matrix(-1 -1.224647e-16 1.224647e-16 -1 1261.2319 3111.915)" class="st1" width="159.5" height="67.5"/>
				
					<rect x="710.3" y="1522.2" transform="matrix(-1 -1.224647e-16 1.224647e-16 -1 1580.167 3111.915)" class="st2" width="159.5" height="67.5"/>
				
					<rect x="869.8" y="1522.2" transform="matrix(-1 -1.224647e-16 1.224647e-16 -1 1899.1021 3111.915)" class="st3" width="159.5" height="67.5"/>
				<g>
					<path class="st4" d="M549.6,1520.2h480.9v71.4H549.6V1520.2z M1028,1524.2H552.1v63.5H1028V1524.2z"/>
				</g>
			</g>
			<g>
				
					<rect x="601.6" y="1387.2" transform="matrix(-1 -1.224647e-16 1.224647e-16 -1 1362.6504 2841.96)" class="st1" width="159.5" height="67.5"/>
				
					<rect x="761.1" y="1387.2" transform="matrix(-1 -1.224647e-16 1.224647e-16 -1 1681.5854 2841.96)" class="st2" width="159.5" height="67.5"/>
				
					<rect x="920.5" y="1387.2" transform="matrix(-1 -1.224647e-16 1.224647e-16 -1 2000.5205 2841.96)" class="st3" width="159.5" height="67.5"/>
				<g>
					<path class="st4" d="M600.3,1385.3h480.9v71.4H600.3V1385.3z M1078.7,1389.2H602.8v63.5h475.9V1389.2z"/>
				</g>
			</g>
		</g>
		<g>
			<path class="st6" d="M2062.3,154.8c0,0-23.2-5-40.1,4.5c-16.9,9.4-37.3,26.3-75.4,9.9c0,0,16.1,24.6,40.6,29.9
				c24.5,5.3,20.2-15.5,75.3,2.9v-24.2L2062.3,154.8z"/>
			<polygon class="st7" points="2165.7,526.8 2169.3,759.3 2175.2,776 2193.1,759.3 2210,520.9 			"/>
			<path class="st7" d="M2272,534.7h-44.6c0,0,21,223.2,20.8,224.6c-0.2,1.4,7.5,11.4,7.5,11.4l16.2-11.4V534.7z"/>
			<polygon class="st7" points="2165.7,526.8 2169.3,759.3 2175.2,776 2193.1,759.3 2210,520.9 			"/>
			<path class="st7" d="M2272,534.7h-44.6c0,0,21,223.2,20.8,224.6c-0.2,1.4,7.5,11.4,7.5,11.4l16.2-11.4V534.7z"/>
			<path class="st8" d="M2165.7,753.8c5.6,4.7,20.1,5.5,31.6,3.6l15.8-213.7l3-32.7c2.3,2,3.6,2.9,3.6,2.9l26.6,240.8
				c0,0,12.2,4.5,28.1,1.5c0.1-12.8,1.9-234.4,1.8-243.4c-0.6-65.3-20.8-74.8-20.8-74.8l-34.4-8.7l-7.5,1.3
				c-12-3.9-33.7-8.4-42.7,6.5c-12.7,21.2-11.9,86.7-11.9,86.7S2165.6,744.8,2165.7,753.8z"/>
			<path class="st7" d="M2182,371.7l-32.2-14.9l2.9,34.1c0,0-61-27.7-64.1-30.5c-1-0.9-2.2-3.4-3.3-6.2c-1.2-3-2-6.1-2.7-9.3
				c-1.1-4.7-5.1-8.5-6.5-9.8c-0.6-0.5-2.3-3.8-2.7-5.2c-0.3-1-1.8-0.9-1.9,0.1l-0.3,2.1c-0.3,2.1,0.4,4.3,0.9,5.4l-0.8-0.3
				l-1.4,14.4l1.7,12.5l9.7,7.3c0,0,85,61.2,92.8,53.2C2182.3,416.1,2182,371.7,2182,371.7z"/>
			<path class="st6" d="M2193.1,759.3V777c0,1.5-1.2,2.6-2.7,2.6h-42.8c-3.1,0-4.3-3.9-1.7-5.5l23.4-14.8
				C2169.3,759.3,2179.3,765.9,2193.1,759.3z"/>
			<path class="st6" d="M2272,759.3V777c0,1.5-1.2,2.6-2.7,2.6h-42.8c-3.1,0-4.3-3.9-1.7-5.5l23.4-14.8
				C2248.3,759.3,2258.3,765.9,2272,759.3z"/>
			<path class="st9" d="M2174.7,299.5c0,0-6.6,1.6-16.1,13.4c-9.5,11.8-18,44.5-18,44.5l30.5,16.6l19.8-39.5L2174.7,299.5z"/>
			<g>
				<path class="st10" d="M2242.2,496.1c3.1-1.5,6.2-2.9,9.3-4.3c3.1-1.4,6.3-2.6,9.5-3.8c-1.6,0.5-3.3,1.1-4.9,1.7
					c-1.6,0.6-3.2,1.2-4.8,1.8c-3.2,1.3-6.3,2.7-9.4,4.1c-3.1,1.5-6.2,3-9.2,4.5c-3,1.6-6,3.2-9,4.9l-1.8,1l2-0.4
					c2.2-0.5,4.4-0.8,6.7-1.1c2.2-0.2,4.5-0.4,6.8-0.5c0.6,0,1.1,0,1.7,0l1.7,0c0.6,0,1.1,0.1,1.7,0.1c0.6,0,1.1,0.1,1.7,0.1
					l1.7,0.2l1.7,0.2l0.8,0.1l0.8,0.2l1.7,0.3l-1.7-0.4l-0.8-0.2l-0.8-0.2l-1.7-0.3l-1.7-0.2c-2.3-0.3-4.5-0.4-6.8-0.4
					c-2.3,0-4.6,0.1-6.8,0.3c-1.6,0.2-3.2,0.4-4.8,0.7c2.4-1.3,4.8-2.6,7.3-3.9C2236.1,499.1,2239.2,497.5,2242.2,496.1z"/>
				<path class="st10" d="M2199.1,498.8c-3-1.6-6.1-3.1-9.2-4.5c-3.1-1.4-6.2-2.8-9.4-4.1c-1.6-0.6-3.2-1.3-4.8-1.8
					c-1.6-0.6-3.2-1.1-4.9-1.7c3.2,1.2,6.4,2.5,9.5,3.8c3.1,1.4,6.2,2.8,9.3,4.3c3.1,1.5,6.1,3,9.2,4.6c2.4,1.3,4.9,2.6,7.3,3.9
					c-1.6-0.3-3.2-0.5-4.8-0.7c-2.3-0.2-4.5-0.3-6.8-0.3c-2.3,0-4.6,0.1-6.8,0.4l-1.7,0.2l-1.7,0.3l-0.8,0.2l-0.8,0.2l-1.7,0.4
					l1.7-0.3l0.8-0.2l0.8-0.1l1.7-0.2l1.7-0.2c0.6-0.1,1.1-0.1,1.7-0.1c0.6,0,1.1-0.1,1.7-0.1l1.7,0c0.6,0,1.1,0,1.7,0
					c2.3,0,4.5,0.2,6.8,0.5c2.2,0.2,4.5,0.6,6.7,1.1l2,0.4l-1.8-1C2205.2,502,2202.2,500.3,2199.1,498.8z"/>
			</g>
			<path class="st0" d="M2177.7,449c2.8,0.5,5.6,0.9,8.4,1.3c2.8,0.4,5.6,0.7,8.4,1c5.6,0.5,11.3,0.9,17,1c2.8,0.1,5.7,0.1,8.5,0
				c2.8-0.1,5.7-0.2,8.5-0.5c2.8-0.2,5.6-0.6,8.4-1c2.8-0.5,5.6-1,8.3-1.7c-2.7,0.8-5.5,1.4-8.3,1.9c-2.8,0.5-5.6,0.8-8.4,1.1
				c-2.8,0.3-5.7,0.4-8.5,0.5c-2.8,0.1-5.7,0.1-8.5,0c-5.7-0.1-11.3-0.5-17-1.1c-2.8-0.3-5.6-0.6-8.4-1
				C2183.3,450,2180.5,449.5,2177.7,449z"/>
			<path class="st11" d="M2251.6,239.2c0,0,6-31.1-11.5-42.1c-17.5-11-35.6-9-47.7-1.6c-12.1,7.4-18.6,31.8-12.5,45.4l40.5-14.7
				L2251.6,239.2z"/>
			<path class="st10" d="M2241.5,459.5c0.1,0.3,0.3,0.6,0.5,0.9l0.5,0.9l1,1.9l1.7,3.1l4.7,8.2c0.6,1.2,6.8,12,8.3,14.4
				c-1.8-2.2-4-4.3-5.5-6.7c-0.7-1.2-1.4-2.4-2.1-3.6c-0.7-1.2-1.4-2.5-2-3.7c-1.3-2.5-2.6-5-3.7-7.6c-0.6-1.3-1.2-2.6-1.7-3.8
				c-0.3-0.6-0.5-1.3-0.8-2C2241.9,460.8,2241.7,460.2,2241.5,459.5z"/>
			<path class="st12" d="M2301.5,337.6c-13.9-16.7-30.4-32.9-44-40.6c-6.3-3.6-22.7-7.1-31.5-7c-4.5,3.7-20.4,2.6-24.8,0.7
				c-12.1,2.8-28.7,6.7-35.5,14.7c-1.2,30.3-1.7,55.8-1.5,73.6c0,0.1-0.5,64.7,0,78.5c0,0,70.3,15.1,106.2,6c0,0,5.9-84.5-2.6-107.3
				l3.6,4.6C2271.3,360.8,2285.8,357.5,2301.5,337.6z"/>
			<path class="st7" d="M2299.4,340.2c-9.5,11.6-20.1,17.7-25.4,19.7l34,40.7l-62.1,67l10.9,19.1c8.6-4.2,10.6-20.1,10.6-20.1
				s76.9-51.4,76.9-63.7C2344.3,386.3,2299.4,340.2,2299.4,340.2z"/>
			<path class="st13" d="M2299.9,339.4c-0.5,0.6-1,1.2-1.6,1.8l-1.6,1.7l-0.8,0.9l-0.9,0.8l-1.7,1.7c-0.6,0.5-1.2,1.1-1.8,1.6
				c-1.2,1.1-2.5,2-3.7,3c-2.6,1.9-5.2,3.6-8,5.2l-1.1,0.6c-0.4,0.2-0.7,0.3-1.1,0.5c-0.7,0.4-1.4,0.7-2.2,1
				c-0.4,0.2-0.7,0.3-1.1,0.4c-0.4,0.1-0.7,0.3-1.1,0.4c-0.5,0.2-1,0.4-1.5,0.5l-3.7-4.4l-4.2-5c-2.8-3.3-5.7-6.6-8.5-9.9
				c-2.9-3.3-5.8-6.5-8.7-9.7c-2.9-3.2-5.9-6.4-8.9-9.6c2.6,3.5,5.2,6.9,7.9,10.3c2.7,3.4,5.4,6.8,8.1,10.2
				c2.8,3.4,5.5,6.7,8.3,10.1l4.2,5l4.2,5l0.5,0.5l0.7-0.2c0.9-0.2,1.7-0.5,2.5-0.8c0.8-0.3,1.6-0.6,2.3-1c0.8-0.3,1.5-0.7,2.2-1.1
				c0.4-0.2,0.7-0.4,1.1-0.6l1.1-0.6c2.9-1.6,5.5-3.6,8.1-5.6l1.8-1.6c0.6-0.5,1.2-1.1,1.8-1.7c0.6-0.6,1.2-1.1,1.7-1.7l1.6-1.8
				l0.8-0.9l0.8-1l1.5-1.9c1-1.3,1.8-2.7,2.7-4L2299.9,339.4z"/>
			<path class="st7" d="M2201.1,290.6c0,0,9.1,7.2,24.8,0l0,0l-2.6-20.2l-21.6-4.5L2201.1,290.6L2201.1,290.6z"/>
			<g class="st14">
				<path class="st15" d="M2201.4,279.2l0.3-13.2l21.9,6.8l0.6,4.9C2219.5,279.5,2210.2,281.7,2201.4,279.2z"/>
			</g>
			<path class="st16" d="M2186.8,238.6c1.2,3.8-0.3,7.7-3.4,8.6c-3.1,1-6.7-1.3-7.9-5.1c-1.2-3.8,0.3-7.7,3.4-8.6
				C2182,232.5,2185.6,234.8,2186.8,238.6z"/>
			<path class="st7" d="M2186.2,260.2c-0.8-1.7-1.5-3.4-2-5.2c-1.4-4.9-1.9-10-2-14.4c0-0.9-0.1-1.9-0.2-2.8
				c-0.4-3.8,0-7.8,1.2-11.8c4-13,16.6-22,30.5-21.9c18.8,0.1,33.1,15.6,31.6,33.3c2.1-0.9,4.3-1,6.2,0c3.6,1.9,4.6,7,2.1,11.4
				c-2.5,4.4-7.4,6.4-11.1,4.5c-0.5-0.3-1-0.6-1.3-1c-2.8,14.9-16.5,25.6-31.7,24.2c-7.5-0.7-14-4.1-18.7-9.3
				c-0.3-0.3-0.6-0.7-1-1.1C2188.4,264.2,2187.2,262.3,2186.2,260.2z"/>
			<path class="st17" d="M2216.7,237.7c-0.1,1.5,1,2.8,2.5,2.9c1.5,0.1,2.9-0.9,3-2.4c0.1-1.5-1-2.8-2.5-2.9
				C2218.2,235.2,2216.8,236.2,2216.7,237.7z"/>
			<path class="st17" d="M2192.8,237c-0.1,1.5,1,2.8,2.5,2.9c1.5,0.1,2.9-0.9,3-2.4c0.1-1.5-1-2.8-2.5-2.9
				C2194.3,234.5,2192.9,235.6,2192.8,237z"/>
			<path class="st11" d="M2213.9,232.1c1.4-0.4,2.7-0.7,4.1-0.9c1.3-0.2,2.6-0.2,3.9,0c1.3,0.2,2.5,0.5,3.7,1.1l0.5,0.2
				c0.2,0.1,0.3,0.2,0.4,0.2l0.9,0.5c0.6,0.3,1.2,0.7,1.8,1.1c-0.3-0.6-0.7-1.2-1.2-1.8c-0.5-0.5-1-1.1-1.6-1.5
				c-1.2-0.9-2.7-1.5-4.2-1.7c-1.5-0.2-3.1,0-4.6,0.5C2216.1,230.2,2214.8,231,2213.9,232.1z"/>
			<path class="st11" d="M2202.7,231.6c-0.9-1.2-2.1-2.1-3.5-2.7c-1.4-0.6-2.9-0.9-4.5-0.8c-1.5,0.1-3.1,0.5-4.4,1.3
				c-0.7,0.3-1.2,0.9-1.8,1.3c-0.5,0.5-1,1.1-1.4,1.7c0.7-0.3,1.3-0.6,1.9-0.9l0.9-0.4c0.2-0.1,0.3-0.1,0.5-0.2l0.5-0.1
				c1.2-0.5,2.5-0.7,3.8-0.8c1.3-0.1,2.6,0,3.9,0.3C2200,230.7,2201.3,231.1,2202.7,231.6z"/>
			<path class="st16" d="M2207,231.6c0.4,1.9,0.5,3.8,0.4,5.8c-0.1,1-0.2,2-0.5,2.9c-0.3,1-0.7,2-1.4,2.9l-0.3,0.3l-0.3,0.3
				c-0.1,0.1-0.3,0.2-0.4,0.4c-0.2,0.3-0.4,0.6-0.5,0.9c-0.2,0.6,0,1.4,0.4,2.1c0.9,1.4,2.6,2.3,4.5,2.9c-2,0.1-4.2-0.4-5.7-2.1
				c-0.7-0.8-1.2-2.1-1-3.3c0.1-0.3,0.2-0.6,0.3-0.9c0.1-0.3,0.3-0.5,0.5-0.8c0.2-0.3,0.4-0.4,0.6-0.6c0.1-0.1,0.2-0.2,0.2-0.2
				l0.2-0.2c0.5-0.5,0.8-1.4,1.2-2.2c0.3-0.8,0.5-1.7,0.7-2.6C2206.4,235.3,2206.7,233.5,2207,231.6z"/>
			<path class="st10" d="M2198.5,253.8c0.9,3.3,5,5.7,9.8,5.7c4.8-0.1,8.8-2.7,9.6-6L2198.5,253.8z"/>
			<path class="st11" d="M2244.6,238.2c1.8-1.7,3.3-1.6,3.3-1.6l-1.2-10l-3.3-5.9c0,0-12.8-15.7-13.2-16.1
				c-0.4-0.4-9.9-5.3-10.5-5.5c-0.6-0.2-13.5,2.2-13.5,2.2s-23-3.8-18.7,8c4.3,11.8,21.3,17.4,22.1,16.8c-2.8-2.6-3.4-10.2-3.4-10.2
				C2218.3,228.4,2241,236.9,2244.6,238.2z"/>
			<polygon class="st18" points="2060.5,147 2085.7,776.1 2089.4,776 2064.1,147 			"/>
			<path class="st7" d="M2062.8,350.6c0-0.7,0.2-2.9,0.2-3.3c0.3-1.3,1.3-2.4,2.6-2.8l1.5-0.5l0.1,3.4l0,0c-0.1,2.6-0.2,2.4,3.4,3.9
				c5.1,2.2,2.9,4.8,2.9,4.8s-1.4,1.9-7.6-1.2C2066,354.9,2063,353.4,2062.8,350.6z"/>
			<path class="st7" d="M2062.3,353.5c0-0.7,0.1-2.7,0.2-3.2c0.3-1.2,1.2-2.2,2.4-2.6l1.4-0.4l0.1,3.2l0,0c-0.1,2.4-0.2,2.3,3.2,3.7
				c4.8,2.1,2.8,4.6,2.8,4.6s-1.3,1.8-7.2-1.2C2065.3,357.6,2062.5,356.1,2062.3,353.5z"/>
			<path class="st7" d="M2063.1,357.3c0-0.6,0.1-2.3,0.2-2.7c0.2-1.1,1-1.9,2.1-2.2l1.2-0.4l0.1,2.7h0c-0.1,2.1-0.1,1.9,2.7,3.2
				c4.1,1.8,2.4,3.9,2.4,3.9s-1.1,1.5-6.1-1C2065.6,360.8,2063.2,359.5,2063.1,357.3z"/>
			<path class="st7" d="M2063.9,346.5c0-0.7,0.2-2.9,0.2-3.3c0.3-1.3,1.3-2.4,2.6-2.8l1.5-0.5l0.1,3.4l0,0c-0.1,2.6-0.2,2.4,3.4,3.9
				c5.1,2.2,2.9,4.8,2.9,4.8s-1.4,1.9-7.6-1.2C2067.1,350.8,2064.1,349.3,2063.9,346.5z"/>
			<path class="st16" d="M2068.4,343.3c0,0.6,0,1.1,0.1,1.7c0.1,0.6,0.6,0.9,1.1,1.1c1,0.5,2.1,0.9,3.2,1.4c0.3,0.1,0.5,0.3,0.8,0.4
				c0.2,0.2,0.5,0.3,0.7,0.5c0.5,0.4,0.8,0.9,1,1.5c0.2,0.6,0.2,1.3-0.1,1.8c-0.1,0.1-0.1,0.3-0.2,0.4c-0.1,0.2-0.3,0.3-0.4,0.3
				c-0.3,0.2-0.6,0.2-0.9,0.3c-0.6,0.1-1.2,0.1-1.8-0.1c-0.6-0.1-1.2-0.3-1.7-0.4c-1.1-0.4-2.2-0.8-3.2-1.4c-1-0.6-1.9-1.5-2.4-2.5
				c-0.3-0.5-0.4-1.1-0.5-1.7c0-0.3,0-0.6,0-0.9l0.1-0.8l0,0.8c0,0.3,0,0.6,0.1,0.8c0.1,0.5,0.3,1.1,0.6,1.5
				c0.6,0.9,1.4,1.7,2.4,2.3c1,0.5,2.1,1,3.2,1.3c1.1,0.3,2.2,0.6,3.3,0.4c0.3,0,0.5-0.1,0.7-0.2c0.1-0.1,0.2-0.1,0.2-0.2
				c0.1-0.1,0.1-0.2,0.2-0.3c0.2-0.5,0.3-1,0.1-1.5c-0.2-0.5-0.5-0.9-0.9-1.3c-0.2-0.2-0.4-0.3-0.6-0.5c-0.2-0.2-0.5-0.3-0.7-0.5
				c-1-0.5-2.1-1-3.1-1.5c-0.3-0.1-0.5-0.3-0.7-0.5c-0.2-0.2-0.4-0.5-0.4-0.8C2068.2,344.4,2068.3,343.8,2068.4,343.3z"/>
			<path class="st16" d="M2072.8,352.6c0.7,0.5,1.3,1.3,1.4,2.2c0,0.5-0.1,0.9-0.3,1.3c0,0.1-0.1,0.2-0.2,0.3
				c-0.1,0.1-0.2,0.2-0.3,0.2c-0.2,0.1-0.4,0.2-0.7,0.2c-0.9,0.2-1.9,0.1-2.8-0.1c-0.9-0.2-1.7-0.5-2.6-0.9
				c-0.4-0.2-0.8-0.4-1.2-0.6c-0.4-0.2-0.8-0.5-1.2-0.8c-0.7-0.6-1.3-1.3-1.7-2.1c-0.2-0.4-0.3-0.8-0.4-1.3c0-0.2-0.1-0.4-0.1-0.7
				l0-0.7c0.1-0.9,0.2-1.7,0.4-2.6c-0.1,0.9-0.1,1.7-0.1,2.6l0,0.6c0,0.2,0.1,0.4,0.1,0.6c0.1,0.4,0.2,0.8,0.5,1.2
				c0.4,0.7,1,1.3,1.7,1.9c0.3,0.3,0.7,0.5,1.1,0.7c0.4,0.2,0.8,0.4,1.2,0.5c0.8,0.4,1.6,0.6,2.5,0.9c0.8,0.2,1.7,0.3,2.5,0.2
				c0.4-0.1,0.8-0.2,1-0.5c0.2-0.3,0.3-0.7,0.4-1.1c0-0.4-0.1-0.8-0.3-1.2C2073.4,353.2,2073.1,352.9,2072.8,352.6z"/>
			<path class="st16" d="M2072.8,356.7c0.3,0.6,0.3,1.3,0,1.9c-0.1,0.1-0.1,0.3-0.3,0.4c-0.1,0.1-0.3,0.2-0.4,0.3
				c-0.3,0.1-0.7,0.2-1,0.2c-1.4,0.1-2.6-0.3-3.9-0.7c-0.6-0.2-1.2-0.5-1.8-0.8c-0.6-0.3-1.1-0.7-1.6-1.1c-0.5-0.5-0.9-1-1.2-1.5
				c-0.3-0.6-0.4-1.2-0.4-1.8c0.2,1.2,1,2.3,1.9,3.1c0.5,0.4,1,0.8,1.5,1c0.6,0.3,1.1,0.5,1.7,0.7c0.6,0.2,1.2,0.4,1.8,0.6
				c0.6,0.2,1.2,0.2,1.8,0.2c0.3,0,0.6,0,0.9-0.1c0.1-0.1,0.3-0.1,0.4-0.2c0.1-0.1,0.2-0.2,0.3-0.3
				C2072.9,357.9,2073,357.3,2072.8,356.7z"/>
			<path class="st16" d="M2071.5,359.2c0.4,0.4,0.7,0.9,0.7,1.5c0,0.3-0.1,0.6-0.2,0.9c0,0.1-0.1,0.1-0.1,0.2
				c-0.1,0.1-0.1,0.1-0.2,0.2c-0.1,0.1-0.3,0.2-0.4,0.2c-0.6,0.2-1.2,0.2-1.8,0.1c-0.6-0.1-1.2-0.2-1.7-0.4
				c-0.6-0.2-1.1-0.4-1.6-0.7c-0.3-0.1-0.5-0.2-0.8-0.4c-0.3-0.2-0.5-0.3-0.7-0.5c-0.9-0.8-1.5-1.9-1.5-3c0.2,1.1,0.9,2,1.8,2.7
				c0.2,0.2,0.4,0.3,0.7,0.5c0.2,0.1,0.5,0.2,0.8,0.4c0.5,0.2,1,0.5,1.6,0.6c0.5,0.2,1.1,0.3,1.6,0.4c0.5,0.1,1.1,0.1,1.6,0
				c0.1,0,0.2-0.1,0.3-0.1c0,0,0.1-0.1,0.1-0.1c0,0,0.1-0.1,0.1-0.2c0.1-0.2,0.2-0.5,0.3-0.7c0-0.3,0-0.5-0.1-0.8
				C2071.8,359.7,2071.7,359.5,2071.5,359.2z"/>
		</g>
		<g>
			<g>
				<g>
					
						<rect x="1005.1" y="1456.7" transform="matrix(-1 -1.224647e-16 1.224647e-16 -1 2169.7583 2980.9229)" class="st1" width="159.5" height="67.5"/>
					
						<rect x="1164.6" y="1456.7" transform="matrix(-1 -1.224647e-16 1.224647e-16 -1 2488.6938 2980.9229)" class="st2" width="159.5" height="67.5"/>
					
						<rect x="1324.1" y="1456.7" transform="matrix(-1 -1.224647e-16 1.224647e-16 -1 2807.6294 2980.9229)" class="st3" width="159.5" height="67.5"/>
					<g>
						<path class="st4" d="M1003.9,1454.7h480.9v71.4h-480.9V1454.7z M1482.3,1458.7h-475.9v63.5h475.9V1458.7z"/>
					</g>
				</g>
				<g>
					
						<rect x="1029.6" y="1591.7" transform="matrix(-1 -1.224647e-16 1.224647e-16 -1 2218.6162 3250.8467)" class="st1" width="159.5" height="67.5"/>
					
						<rect x="1189" y="1591.7" transform="matrix(-1 -1.224647e-16 1.224647e-16 -1 2537.5518 3250.8467)" class="st2" width="159.5" height="67.5"/>
					
						<rect x="1348.5" y="1591.7" transform="matrix(-1 -1.224647e-16 1.224647e-16 -1 2856.4883 3250.8467)" class="st3" width="159.5" height="67.5"/>
					<g>
						<path class="st4" d="M1028.3,1589.7h480.9v71.4h-480.9V1589.7z M1506.7,1593.7h-475.9v63.5h475.9V1593.7z"/>
					</g>
				</g>
				<g>
					
						<rect x="1005.1" y="1659.2" transform="matrix(-1 -1.224647e-16 1.224647e-16 -1 2169.7583 3385.8076)" class="st1" width="159.5" height="67.5"/>
					
						<rect x="1164.6" y="1659.2" transform="matrix(-1 -1.224647e-16 1.224647e-16 -1 2488.6938 3385.8076)" class="st2" width="159.5" height="67.5"/>
					
						<rect x="1324.1" y="1659.2" transform="matrix(-1 -1.224647e-16 1.224647e-16 -1 2807.6294 3385.8076)" class="st3" width="159.5" height="67.5"/>
					<g>
						<path class="st4" d="M1003.9,1657.2h480.9v71.4h-480.9V1657.2z M1482.3,1661.1h-475.9v63.5h475.9V1661.1z"/>
					</g>
				</g>
				<g>
					
						<rect x="966.7" y="1726.6" transform="matrix(-1 -1.224647e-16 1.224647e-16 -1 2092.77 3520.7686)" class="st1" width="159.5" height="67.5"/>
					
						<rect x="1126.1" y="1726.6" transform="matrix(-1 -1.224647e-16 1.224647e-16 -1 2411.7051 3520.7686)" class="st2" width="159.5" height="67.5"/>
					
						<rect x="1285.6" y="1726.6" transform="matrix(-1 -1.224647e-16 1.224647e-16 -1 2730.6411 3520.7686)" class="st3" width="159.5" height="67.5"/>
					<g>
						<path class="st4" d="M965.4,1724.7h480.9v71.4H965.4V1724.7z M1443.8,1728.6H967.9v63.5h475.9V1728.6z"/>
					</g>
				</g>
				<g>
					
						<rect x="978.9" y="1524.2" transform="matrix(-1 -1.224647e-16 1.224647e-16 -1 2117.1982 3115.8838)" class="st1" width="159.5" height="67.5"/>
					
						<rect x="1138.3" y="1524.2" transform="matrix(-1 -1.224647e-16 1.224647e-16 -1 2436.1343 3115.8838)" class="st2" width="159.5" height="67.5"/>
					
						<rect x="1297.8" y="1524.2" transform="matrix(-1 -1.224647e-16 1.224647e-16 -1 2755.0698 3115.8838)" class="st3" width="159.5" height="67.5"/>
					<g>
						<path class="st4" d="M977.6,1522.2h480.9v71.4H977.6V1522.2z M1456,1526.2H980.1v63.5H1456V1526.2z"/>
					</g>
				</g>
				<g>
					
						<rect x="1029.6" y="1389.2" transform="matrix(-1 -1.224647e-16 1.224647e-16 -1 2218.6162 2845.9287)" class="st1" width="159.5" height="67.5"/>
					
						<rect x="1189" y="1389.2" transform="matrix(-1 -1.224647e-16 1.224647e-16 -1 2537.5518 2845.9287)" class="st2" width="159.5" height="67.5"/>
					
						<rect x="1348.5" y="1389.2" transform="matrix(-1 -1.224647e-16 1.224647e-16 -1 2856.4883 2845.9287)" class="st3" width="159.5" height="67.5"/>
					<g>
						<path class="st4" d="M1028.3,1387.2h480.9v71.4h-480.9V1387.2z M1506.7,1391.2h-475.9v63.5h475.9V1391.2z"/>
					</g>
				</g>
				<g>
					
						<rect x="978.9" y="1321.7" transform="matrix(-1 -1.224647e-16 1.224647e-16 -1 2117.1982 2710.9668)" class="st1" width="159.5" height="67.5"/>
					
						<rect x="1138.3" y="1321.7" transform="matrix(-1 -1.224647e-16 1.224647e-16 -1 2436.1343 2710.9668)" class="st2" width="159.5" height="67.5"/>
					
						<rect x="1297.8" y="1321.7" transform="matrix(-1 -1.224647e-16 1.224647e-16 -1 2755.0698 2710.9668)" class="st3" width="159.5" height="67.5"/>
					<g>
						<path class="st4" d="M977.6,1319.8h480.9v71.4H977.6V1319.8z M1456,1323.7H980.1v63.5H1456V1323.7z"/>
					</g>
				</g>
			</g>
			<g>
				<g>
					
						<rect x="1005.1" y="1186.6" transform="matrix(-1 -1.224647e-16 1.224647e-16 -1 2169.7583 2440.7314)" class="st1" width="159.5" height="67.5"/>
					
						<rect x="1164.6" y="1186.6" transform="matrix(-1 -1.224647e-16 1.224647e-16 -1 2488.6938 2440.7314)" class="st2" width="159.5" height="67.5"/>
					
						<rect x="1324.1" y="1186.6" transform="matrix(-1 -1.224647e-16 1.224647e-16 -1 2807.6294 2440.7314)" class="st3" width="159.5" height="67.5"/>
					<g>
						<path class="st4" d="M1003.9,1184.6h480.9v71.4h-480.9V1184.6z M1482.3,1188.6h-475.9v63.5h475.9V1188.6z"/>
					</g>
				</g>
				<g>
					
						<rect x="966.7" y="1254.1" transform="matrix(-1 -1.224647e-16 1.224647e-16 -1 2092.77 2575.6924)" class="st1" width="159.5" height="67.5"/>
					
						<rect x="1126.1" y="1254.1" transform="matrix(-1 -1.224647e-16 1.224647e-16 -1 2411.7051 2575.6924)" class="st2" width="159.5" height="67.5"/>
					
						<rect x="1285.6" y="1254.1" transform="matrix(-1 -1.224647e-16 1.224647e-16 -1 2730.6411 2575.6924)" class="st3" width="159.5" height="67.5"/>
					<g>
						<path class="st4" d="M965.4,1252.1h480.9v71.4H965.4V1252.1z M1443.8,1256.1H967.9v63.5h475.9V1256.1z"/>
					</g>
				</g>
			</g>
		</g>
		<g>
			<g>
				<g>
					
						<rect x="1447.6" y="1456.7" transform="matrix(-1 -1.224647e-16 1.224647e-16 -1 3054.6592 2980.9229)" class="st1" width="159.5" height="67.5"/>
					
						<rect x="1607.1" y="1456.7" transform="matrix(-1 -1.224647e-16 1.224647e-16 -1 3373.5947 2980.9229)" class="st2" width="159.5" height="67.5"/>
					
						<rect x="1766.5" y="1456.7" transform="matrix(-1 -1.224647e-16 1.224647e-16 -1 3692.5303 2980.9229)" class="st3" width="159.5" height="67.5"/>
					<g>
						<path class="st4" d="M1446.3,1454.7h480.9v71.4h-480.9V1454.7z M1924.7,1458.7h-475.9v63.5h475.9V1458.7z"/>
					</g>
				</g>
				<g>
					
						<rect x="1472" y="1591.7" transform="matrix(-1 -1.224647e-16 1.224647e-16 -1 3103.5166 3250.8467)" class="st1" width="159.5" height="67.5"/>
					
						<rect x="1631.5" y="1591.7" transform="matrix(-1 -1.224647e-16 1.224647e-16 -1 3422.4531 3250.8467)" class="st2" width="159.5" height="67.5"/>
					
						<rect x="1791" y="1591.7" transform="matrix(-1 -1.224647e-16 1.224647e-16 -1 3741.3887 3250.8467)" class="st3" width="159.5" height="67.5"/>
					<g>
						<path class="st4" d="M1470.8,1589.7h480.9v71.4h-480.9V1589.7z M1949.2,1593.7h-475.9v63.5h475.9V1593.7z"/>
					</g>
				</g>
				<g>
					
						<rect x="1447.6" y="1659.2" transform="matrix(-1 -1.224647e-16 1.224647e-16 -1 3054.6592 3385.8076)" class="st1" width="159.5" height="67.5"/>
					
						<rect x="1607.1" y="1659.2" transform="matrix(-1 -1.224647e-16 1.224647e-16 -1 3373.5947 3385.8076)" class="st2" width="159.5" height="67.5"/>
					
						<rect x="1766.5" y="1659.2" transform="matrix(-1 -1.224647e-16 1.224647e-16 -1 3692.5303 3385.8076)" class="st3" width="159.5" height="67.5"/>
					<g>
						<path class="st4" d="M1446.3,1657.2h480.9v71.4h-480.9V1657.2z M1924.7,1661.1h-475.9v63.5h475.9V1661.1z"/>
					</g>
				</g>
				<g>
					
						<rect x="1409.1" y="1726.6" transform="matrix(-1 -1.224647e-16 1.224647e-16 -1 2977.6699 3520.7686)" class="st1" width="159.5" height="67.5"/>
					
						<rect x="1568.6" y="1726.6" transform="matrix(-1 -1.224647e-16 1.224647e-16 -1 3296.6055 3520.7686)" class="st2" width="159.5" height="67.5"/>
					
						<rect x="1728" y="1726.6" transform="matrix(-1 -1.224647e-16 1.224647e-16 -1 3615.541 3520.7686)" class="st3" width="159.5" height="67.5"/>
					<g>
						<path class="st4" d="M1407.9,1724.7h480.9v71.4h-480.9V1724.7z M1886.3,1728.6h-475.9v63.5h475.9V1728.6z"/>
					</g>
				</g>
				<g>
					
						<rect x="1421.3" y="1524.2" transform="matrix(-1 -1.224647e-16 1.224647e-16 -1 3002.0986 3115.8838)" class="st1" width="159.5" height="67.5"/>
					
						<rect x="1580.8" y="1524.2" transform="matrix(-1 -1.224647e-16 1.224647e-16 -1 3321.0342 3115.8838)" class="st2" width="159.5" height="67.5"/>
					
						<rect x="1740.3" y="1524.2" transform="matrix(-1 -1.224647e-16 1.224647e-16 -1 3639.9697 3115.8838)" class="st3" width="159.5" height="67.5"/>
					<g>
						<path class="st4" d="M1420.1,1522.2H1901v71.4h-480.9V1522.2z M1898.5,1526.2h-475.9v63.5h475.9V1526.2z"/>
					</g>
				</g>
				<g>
					
						<rect x="1472" y="1389.2" transform="matrix(-1 -1.224647e-16 1.224647e-16 -1 3103.5166 2845.9287)" class="st1" width="159.5" height="67.5"/>
					
						<rect x="1631.5" y="1389.2" transform="matrix(-1 -1.224647e-16 1.224647e-16 -1 3422.4531 2845.9287)" class="st2" width="159.5" height="67.5"/>
					
						<rect x="1791" y="1389.2" transform="matrix(-1 -1.224647e-16 1.224647e-16 -1 3741.3887 2845.9287)" class="st3" width="159.5" height="67.5"/>
					<g>
						<path class="st4" d="M1470.8,1387.2h480.9v71.4h-480.9V1387.2z M1949.2,1391.2h-475.9v63.5h475.9V1391.2z"/>
					</g>
				</g>
				<g>
					
						<rect x="1421.3" y="1321.7" transform="matrix(-1 -1.224647e-16 1.224647e-16 -1 3002.0986 2710.9668)" class="st1" width="159.5" height="67.5"/>
					
						<rect x="1580.8" y="1321.7" transform="matrix(-1 -1.224647e-16 1.224647e-16 -1 3321.0342 2710.9668)" class="st2" width="159.5" height="67.5"/>
					
						<rect x="1740.3" y="1321.7" transform="matrix(-1 -1.224647e-16 1.224647e-16 -1 3639.9697 2710.9668)" class="st3" width="159.5" height="67.5"/>
					<g>
						<path class="st4" d="M1420.1,1319.8H1901v71.4h-480.9V1319.8z M1898.5,1323.7h-475.9v63.5h475.9V1323.7z"/>
					</g>
				</g>
			</g>
			<g>
				<g>
					
						<rect x="1447.6" y="984.2" transform="matrix(-1 -1.224647e-16 1.224647e-16 -1 3054.6592 2035.8467)" class="st1" width="159.5" height="67.5"/>
					
						<rect x="1607.1" y="984.2" transform="matrix(-1 -1.224647e-16 1.224647e-16 -1 3373.5947 2035.8467)" class="st2" width="159.5" height="67.5"/>
					
						<rect x="1766.5" y="984.2" transform="matrix(-1 -1.224647e-16 1.224647e-16 -1 3692.5303 2035.8467)" class="st3" width="159.5" height="67.5"/>
					<g>
						<path class="st4" d="M1446.3,982.2h480.9v71.4h-480.9V982.2z M1924.7,986.2h-475.9v63.5h475.9V986.2z"/>
					</g>
				</g>
				<g>
					
						<rect x="1472" y="1119.1" transform="matrix(-1 -1.224647e-16 1.224647e-16 -1 3103.5166 2305.7705)" class="st1" width="159.5" height="67.5"/>
					
						<rect x="1631.5" y="1119.1" transform="matrix(-1 -1.224647e-16 1.224647e-16 -1 3422.4531 2305.7705)" class="st2" width="159.5" height="67.5"/>
					
						<rect x="1791" y="1119.1" transform="matrix(-1 -1.224647e-16 1.224647e-16 -1 3741.3887 2305.7705)" class="st3" width="159.5" height="67.5"/>
					<g>
						<path class="st4" d="M1470.8,1117.2h480.9v71.4h-480.9V1117.2z M1949.2,1121.1h-475.9v63.5h475.9V1121.1z"/>
					</g>
				</g>
				<g>
					
						<rect x="1447.6" y="1186.6" transform="matrix(-1 -1.224647e-16 1.224647e-16 -1 3054.6592 2440.7314)" class="st1" width="159.5" height="67.5"/>
					
						<rect x="1607.1" y="1186.6" transform="matrix(-1 -1.224647e-16 1.224647e-16 -1 3373.5947 2440.7314)" class="st2" width="159.5" height="67.5"/>
					
						<rect x="1766.5" y="1186.6" transform="matrix(-1 -1.224647e-16 1.224647e-16 -1 3692.5303 2440.7314)" class="st3" width="159.5" height="67.5"/>
					<g>
						<path class="st4" d="M1446.3,1184.6h480.9v71.4h-480.9V1184.6z M1924.7,1188.6h-475.9v63.5h475.9V1188.6z"/>
					</g>
				</g>
				<g>
					
						<rect x="1409.1" y="1254.1" transform="matrix(-1 -1.224647e-16 1.224647e-16 -1 2977.6699 2575.6924)" class="st1" width="159.5" height="67.5"/>
					
						<rect x="1568.6" y="1254.1" transform="matrix(-1 -1.224647e-16 1.224647e-16 -1 3296.6055 2575.6924)" class="st2" width="159.5" height="67.5"/>
					
						<rect x="1728" y="1254.1" transform="matrix(-1 -1.224647e-16 1.224647e-16 -1 3615.541 2575.6924)" class="st3" width="159.5" height="67.5"/>
					<g>
						<path class="st4" d="M1407.9,1252.1h480.9v71.4h-480.9V1252.1z M1886.3,1256.1h-475.9v63.5h475.9V1256.1z"/>
					</g>
				</g>
				<g>
					
						<rect x="1421.3" y="1051.7" transform="matrix(-1 -1.224647e-16 1.224647e-16 -1 3002.0986 2170.8076)" class="st1" width="159.5" height="67.5"/>
					
						<rect x="1580.8" y="1051.7" transform="matrix(-1 -1.224647e-16 1.224647e-16 -1 3321.0342 2170.8076)" class="st2" width="159.5" height="67.5"/>
					
						<rect x="1740.3" y="1051.7" transform="matrix(-1 -1.224647e-16 1.224647e-16 -1 3639.9697 2170.8076)" class="st3" width="159.5" height="67.5"/>
					<g>
						<path class="st4" d="M1420.1,1049.7H1901v71.4h-480.9V1049.7z M1898.5,1053.6h-475.9v63.5h475.9V1053.6z"/>
					</g>
				</g>
			</g>
		</g>
		<g>
			<g>
				<g>
					
						<rect x="1876" y="1456.7" transform="matrix(-1 -1.224647e-16 1.224647e-16 -1 3911.5342 2980.9229)" class="st1" width="159.5" height="67.5"/>
					
						<rect x="2035.5" y="1456.7" transform="matrix(-1 -1.224647e-16 1.224647e-16 -1 4230.4697 2980.9229)" class="st2" width="159.5" height="67.5"/>
					
						<rect x="2195" y="1456.7" transform="matrix(-1 -1.224647e-16 1.224647e-16 -1 4549.4053 2980.9229)" class="st3" width="159.5" height="67.5"/>
					<g>
						<path class="st4" d="M1874.8,1454.7h480.9v71.4h-480.9V1454.7z M2353.2,1458.7h-475.9v63.5h475.9V1458.7z"/>
					</g>
				</g>
				<g>
					
						<rect x="1900.5" y="1591.7" transform="matrix(-1 -1.224647e-16 1.224647e-16 -1 3960.3926 3250.8467)" class="st1" width="159.5" height="67.5"/>
					
						<rect x="2059.9" y="1591.7" transform="matrix(-1 -1.224647e-16 1.224647e-16 -1 4279.3281 3250.8467)" class="st2" width="159.5" height="67.5"/>
					
						<rect x="2219.4" y="1591.7" transform="matrix(-1 -1.224647e-16 1.224647e-16 -1 4598.2646 3250.8467)" class="st3" width="159.5" height="67.5"/>
					<g>
						<path class="st4" d="M1899.2,1589.7h480.9v71.4h-480.9V1589.7z M2377.6,1593.7h-475.9v63.5h475.9V1593.7z"/>
					</g>
				</g>
				<g>
					
						<rect x="1876" y="1659.2" transform="matrix(-1 -1.224647e-16 1.224647e-16 -1 3911.5342 3385.8076)" class="st1" width="159.5" height="67.5"/>
					
						<rect x="2035.5" y="1659.2" transform="matrix(-1 -1.224647e-16 1.224647e-16 -1 4230.4697 3385.8076)" class="st2" width="159.5" height="67.5"/>
					
						<rect x="2195" y="1659.2" transform="matrix(-1 -1.224647e-16 1.224647e-16 -1 4549.4053 3385.8076)" class="st3" width="159.5" height="67.5"/>
					<g>
						<path class="st4" d="M1874.8,1657.2h480.9v71.4h-480.9V1657.2z M2353.2,1661.1h-475.9v63.5h475.9V1661.1z"/>
					</g>
				</g>
				<g>
					
						<rect x="1837.5" y="1726.6" transform="matrix(-1 -1.224647e-16 1.224647e-16 -1 3834.5459 3520.7686)" class="st1" width="159.5" height="67.5"/>
					
						<rect x="1997" y="1726.6" transform="matrix(-1 -1.224647e-16 1.224647e-16 -1 4153.4814 3520.7686)" class="st2" width="159.5" height="67.5"/>
					
						<rect x="2156.5" y="1726.6" transform="matrix(-1 -1.224647e-16 1.224647e-16 -1 4472.416 3520.7686)" class="st3" width="159.5" height="67.5"/>
					<g>
						<path class="st4" d="M1836.3,1724.7h480.9v71.4h-480.9V1724.7z M2314.7,1728.6h-475.9v63.5h475.9V1728.6z"/>
					</g>
				</g>
				<g>
					
						<rect x="1849.8" y="1524.2" transform="matrix(-1 -1.224647e-16 1.224647e-16 -1 3858.9746 3115.8838)" class="st1" width="159.5" height="67.5"/>
					
						<rect x="2009.2" y="1524.2" transform="matrix(-1 -1.224647e-16 1.224647e-16 -1 4177.9102 3115.8838)" class="st2" width="159.5" height="67.5"/>
					
						<rect x="2168.7" y="1524.2" transform="matrix(-1 -1.224647e-16 1.224647e-16 -1 4496.8457 3115.8838)" class="st3" width="159.5" height="67.5"/>
					<g>
						<path class="st4" d="M1848.5,1522.2h480.9v71.4h-480.9V1522.2z M2326.9,1526.2H1851v63.5h475.9V1526.2z"/>
					</g>
				</g>
				<g>
					
						<rect x="1900.5" y="1389.2" transform="matrix(-1 -1.224647e-16 1.224647e-16 -1 3960.3926 2845.9287)" class="st1" width="159.5" height="67.5"/>
					
						<rect x="2059.9" y="1389.2" transform="matrix(-1 -1.224647e-16 1.224647e-16 -1 4279.3281 2845.9287)" class="st2" width="159.5" height="67.5"/>
					
						<rect x="2219.4" y="1389.2" transform="matrix(-1 -1.224647e-16 1.224647e-16 -1 4598.2646 2845.9287)" class="st3" width="159.5" height="67.5"/>
					<g>
						<path class="st4" d="M1899.2,1387.2h480.9v71.4h-480.9V1387.2z M2377.6,1391.2h-475.9v63.5h475.9V1391.2z"/>
					</g>
				</g>
				<g>
					
						<rect x="1849.8" y="1321.7" transform="matrix(-1 -1.224647e-16 1.224647e-16 -1 3858.9746 2710.9668)" class="st1" width="159.5" height="67.5"/>
					
						<rect x="2009.2" y="1321.7" transform="matrix(-1 -1.224647e-16 1.224647e-16 -1 4177.9102 2710.9668)" class="st2" width="159.5" height="67.5"/>
					
						<rect x="2168.7" y="1321.7" transform="matrix(-1 -1.224647e-16 1.224647e-16 -1 4496.8457 2710.9668)" class="st3" width="159.5" height="67.5"/>
					<g>
						<path class="st4" d="M1848.5,1319.8h480.9v71.4h-480.9V1319.8z M2326.9,1323.7H1851v63.5h475.9V1323.7z"/>
					</g>
				</g>
			</g>
			<g>
				<g>
					
						<rect x="1876" y="984.2" transform="matrix(-1 -1.224647e-16 1.224647e-16 -1 3911.5342 2035.8467)" class="st1" width="159.5" height="67.5"/>
					
						<rect x="2035.5" y="984.2" transform="matrix(-1 -1.224647e-16 1.224647e-16 -1 4230.4697 2035.8467)" class="st2" width="159.5" height="67.5"/>
					
						<rect x="2195" y="984.2" transform="matrix(-1 -1.224647e-16 1.224647e-16 -1 4549.4053 2035.8467)" class="st3" width="159.5" height="67.5"/>
					<g>
						<path class="st4" d="M1874.8,982.2h480.9v71.4h-480.9V982.2z M2353.2,986.2h-475.9v63.5h475.9V986.2z"/>
					</g>
				</g>
				<g>
					
						<rect x="1900.5" y="1119.1" transform="matrix(-1 -1.224647e-16 1.224647e-16 -1 3960.3926 2305.7705)" class="st1" width="159.5" height="67.5"/>
					
						<rect x="2059.9" y="1119.1" transform="matrix(-1 -1.224647e-16 1.224647e-16 -1 4279.3281 2305.7705)" class="st2" width="159.5" height="67.5"/>
					
						<rect x="2219.4" y="1119.1" transform="matrix(-1 -1.224647e-16 1.224647e-16 -1 4598.2646 2305.7705)" class="st3" width="159.5" height="67.5"/>
					<g>
						<path class="st4" d="M1899.2,1117.2h480.9v71.4h-480.9V1117.2z M2377.6,1121.1h-475.9v63.5h475.9V1121.1z"/>
					</g>
				</g>
				<g>
					
						<rect x="1876" y="1186.6" transform="matrix(-1 -1.224647e-16 1.224647e-16 -1 3911.5342 2440.7314)" class="st1" width="159.5" height="67.5"/>
					
						<rect x="2035.5" y="1186.6" transform="matrix(-1 -1.224647e-16 1.224647e-16 -1 4230.4697 2440.7314)" class="st2" width="159.5" height="67.5"/>
					
						<rect x="2195" y="1186.6" transform="matrix(-1 -1.224647e-16 1.224647e-16 -1 4549.4053 2440.7314)" class="st3" width="159.5" height="67.5"/>
					<g>
						<path class="st4" d="M1874.8,1184.6h480.9v71.4h-480.9V1184.6z M2353.2,1188.6h-475.9v63.5h475.9V1188.6z"/>
					</g>
				</g>
				<g>
					
						<rect x="1837.5" y="1254.1" transform="matrix(-1 -1.224647e-16 1.224647e-16 -1 3834.5459 2575.6924)" class="st1" width="159.5" height="67.5"/>
					
						<rect x="1997" y="1254.1" transform="matrix(-1 -1.224647e-16 1.224647e-16 -1 4153.4814 2575.6924)" class="st2" width="159.5" height="67.5"/>
					
						<rect x="2156.5" y="1254.1" transform="matrix(-1 -1.224647e-16 1.224647e-16 -1 4472.416 2575.6924)" class="st3" width="159.5" height="67.5"/>
					<g>
						<path class="st4" d="M1836.3,1252.1h480.9v71.4h-480.9V1252.1z M2314.7,1256.1h-475.9v63.5h475.9V1256.1z"/>
					</g>
				</g>
				<g>
					
						<rect x="1849.8" y="1051.7" transform="matrix(-1 -1.224647e-16 1.224647e-16 -1 3858.9746 2170.8076)" class="st1" width="159.5" height="67.5"/>
					
						<rect x="2009.2" y="1051.7" transform="matrix(-1 -1.224647e-16 1.224647e-16 -1 4177.9102 2170.8076)" class="st2" width="159.5" height="67.5"/>
					
						<rect x="2168.7" y="1051.7" transform="matrix(-1 -1.224647e-16 1.224647e-16 -1 4496.8457 2170.8076)" class="st3" width="159.5" height="67.5"/>
					<g>
						<path class="st4" d="M1848.5,1049.7h480.9v71.4h-480.9V1049.7z M2326.9,1053.6H1851v63.5h475.9V1053.6z"/>
					</g>
				</g>
			</g>
			<g>
				<g>
					
						<rect x="1900.5" y="781.6" transform="matrix(-1 -1.224647e-16 1.224647e-16 -1 3960.3926 1630.6924)" class="st1" width="159.5" height="67.5"/>
					
						<rect x="2059.9" y="781.6" transform="matrix(-1 -1.224647e-16 1.224647e-16 -1 4279.3281 1630.6924)" class="st2" width="159.5" height="67.5"/>
					
						<rect x="2219.4" y="781.6" transform="matrix(-1 -1.224647e-16 1.224647e-16 -1 4598.2646 1630.6924)" class="st3" width="159.5" height="67.5"/>
					<g>
						<path class="st4" d="M1899.2,779.6h480.9v71.4h-480.9V779.6z M2377.6,783.6h-475.9v63.5h475.9V783.6z"/>
					</g>
				</g>
				<g>
					
						<rect x="1876" y="849.1" transform="matrix(-1 -1.224647e-16 1.224647e-16 -1 3911.5342 1765.6538)" class="st1" width="159.5" height="67.5"/>
					
						<rect x="2035.5" y="849.1" transform="matrix(-1 -1.224647e-16 1.224647e-16 -1 4230.4697 1765.6538)" class="st2" width="159.5" height="67.5"/>
					
						<rect x="2195" y="849.1" transform="matrix(-1 -1.224647e-16 1.224647e-16 -1 4549.4053 1765.6538)" class="st3" width="159.5" height="67.5"/>
					<g>
						<path class="st4" d="M1874.8,847.1h480.9v71.4h-480.9V847.1z M2353.2,851.1h-475.9v63.5h475.9V851.1z"/>
					</g>
				</g>
				<g>
					
						<rect x="1837.5" y="916.6" transform="matrix(-1 -1.224647e-16 1.224647e-16 -1 3834.5459 1900.6157)" class="st1" width="159.5" height="67.5"/>
					
						<rect x="1997" y="916.6" transform="matrix(-1 -1.224647e-16 1.224647e-16 -1 4153.4814 1900.6157)" class="st2" width="159.5" height="67.5"/>
					
						<rect x="2156.5" y="916.6" transform="matrix(-1 -1.224647e-16 1.224647e-16 -1 4472.416 1900.6157)" class="st3" width="159.5" height="67.5"/>
					<g>
						<path class="st4" d="M1836.3,914.6h480.9V986h-480.9V914.6z M2314.7,918.6h-475.9v63.5h475.9V918.6z"/>
					</g>
				</g>
			</g>
		</g>
		<g>
			<g>
				<path class="st11" d="M939.6,971.5c0,0-31.1,89.1-37.2,97.7c-6.1,8.6-110.9,114.6-107.5,123.5c3.4,8.9,5.3,20.2,15.8,22.2
					c0,0,128.1-95.4,154-123.2c25.9-27.8,47.1-87.7,68.4-113l-55.6-27.5L939.6,971.5z"/>
				<path class="st11" d="M976,1077.2c1.5,0,80.5-143.6,80.5-143.6l-24.2-63.3c0,0-41.4-22.1-71.6,12.3
					c-30.2,34.4-49.8,166.2-53.7,176.8C918.1,1068.8,950.9,1075.1,976,1077.2z"/>
				<path class="st19" d="M960.8,885.1c0,0-40.5,84.6,67.7,100l92.5,9.8l-74.8,152.5l13.9,22.4c0,0,140.6-151.6,124.4-193.9
					c-16.2-42.2-159.1-87.6-159.1-87.6l-35-12.6L960.8,885.1z"/>
				<g>
					<path class="st10" d="M1121.5,1184.8l-77.8-0.2c-2.4,0-4.4-2-4.3-4.4l0,0c0-2.4,2-4.4,4.4-4.3l77.8,0.2c2.4,0,4.4,2,4.3,4.4
						l0,0C1125.8,1182.9,1123.9,1184.8,1121.5,1184.8z"/>
					<path class="st6" d="M1043.3,1149.5l-2.9,24.2c-0.4,3,1.3,5.7,3.5,5.7l76.2,0.2c2,0,3.9-1.2,5-3.5c1.1-2.4,1.3-6-2.1-10.8
						c-6.7-9.6-28.8-12-39.8-20.1c-0.2-0.2-0.5-0.3-0.8-0.3l-35.1-0.1C1045.3,1144.8,1043.6,1146.8,1043.3,1149.5z"/>
					<g>
						<path class="st10" d="M1077.4,1158.9L1077.4,1158.9c-0.6-0.3-0.8-1.3-0.4-2c1.5-3.3,6.2-11.4,15.7-9.7
							c0.6,0.1,0.9,0.8,0.8,1.6l0,0c-0.1,0.7-0.6,1.2-1.1,1.1c-8.5-1.5-12.5,5.6-13.7,8.4C1078.4,1159,1077.9,1159.2,1077.4,1158.9z
							"/>
					</g>
					<g>
						<path class="st10" d="M1085.3,1162.1L1085.3,1162.1c-0.6-0.3-0.7-1.3-0.4-2c1.5-3.3,6.2-11.4,15.7-9.7
							c0.5,0.1,0.9,0.8,0.8,1.6l0,0c-0.1,0.7-0.6,1.2-1.1,1.1c-8.5-1.5-12.5,5.6-13.7,8.4
							C1086.3,1162.1,1085.8,1162.4,1085.3,1162.1z"/>
					</g>
					<g>
						<path class="st10" d="M1092.7,1165L1092.7,1165c-0.6-0.3-0.8-1.3-0.4-2c1.5-3.3,6.2-11.4,15.7-9.7c0.6,0.1,0.9,0.8,0.8,1.6
							l0,0c-0.1,0.7-0.6,1.2-1.1,1.1c-8.5-1.5-12.5,5.6-13.7,8.4C1093.7,1165.1,1093.1,1165.3,1092.7,1165z"/>
					</g>
				</g>
				<g>
					<path class="st10" d="M817.6,1260.8l-46.4-62.5c-1.4-1.9-1-4.7,0.9-6.1l0,0c1.9-1.4,4.7-1,6.1,0.9l46.4,62.5
						c1.4,1.9,1,4.7-0.9,6.1l0,0C821.8,1263.1,819,1262.7,817.6,1260.8z"/>
					<path class="st6" d="M799.2,1177l-21.1,12.1c-2.6,1.5-3.8,4.5-2.5,6.2l45.5,61.2c1.2,1.6,3.3,2.4,5.8,1.9
						c2.5-0.6,5.6-2.5,7.4-8.2c3.6-11.1-7.6-30.2-7.8-43.9c0-0.3-0.1-0.5-0.3-0.8l-20.9-28.2C804.1,1175.8,801.5,1175.7,799.2,1177z
						"/>
					<g>
						<path class="st10" d="M812,1210L812,1210c-0.1-0.6,0.6-1.4,1.3-1.5c3.6-0.8,12.8-1.8,17.2,6.8c0.3,0.5-0.1,1.2-0.8,1.6l0,0
							c-0.6,0.4-1.3,0.2-1.6-0.2c-3.9-7.7-12-6.7-15-6C812.5,1210.8,812,1210.5,812,1210z"/>
					</g>
					<g>
						<path class="st10" d="M814.2,1218.2L814.2,1218.2c-0.1-0.6,0.6-1.4,1.3-1.5c3.6-0.8,12.8-1.8,17.2,6.8
							c0.3,0.5-0.1,1.2-0.8,1.6l0,0c-0.6,0.4-1.3,0.2-1.6-0.2c-3.9-7.7-12-6.7-15-6C814.8,1219,814.3,1218.8,814.2,1218.2z"/>
					</g>
					<g>
						<path class="st10" d="M816.3,1225.9L816.3,1225.9c-0.1-0.6,0.6-1.4,1.3-1.5c3.6-0.8,12.8-1.8,17.2,6.8
							c0.3,0.5-0.1,1.2-0.8,1.6l0,0c-0.6,0.4-1.3,0.2-1.6-0.2c-3.9-7.7-12-6.7-15-6C816.8,1226.7,816.3,1226.4,816.3,1225.9z"/>
					</g>
				</g>
				<path class="st7" d="M1202.5,808c0.2-1.1,14.7-7.1,13.6-7.9c-1.2-0.8-15.3,3.1-15.3,2.2c-0.1-0.9,14-6.5,13.2-8.4
					c-0.9-1.9-16.1,4.8-16.2,3.1c-0.1-1.7,15.7-8.2,14.7-9.7c-0.9-1.3-18.7,5.4-24.4,7.6c-0.7,0.3-1.5-0.4-1.3-1.1
					c2.5-11.8,2.1-12.8,0.7-12.8c-1,0-11.5,15.7-16.9,24l-91.7,13.4l13.3-48.1c-6.5-7-24,9.6-38.5-7.4c-13,28.6-26,61.3-22.8,71.1
					c5.9,18.6,43.7,22,85.7,11.3c42-10.6,62.6-21.9,62.6-21.9l10.1-3.2c25.2-9.2,24.9-9.8,24.7-10.8
					C1213.7,808.3,1202.3,809.1,1202.5,808z"/>
				<path class="st20" d="M1165.5,805.6l-86.7,12.7l4.5-16.3c-4.7,0.2-9.5,0.5-14.5,0.8c0,0-3.5,6.8-15.7,46.5
					c16.1,3.5,39,2,63.4-4.1c29.7-7.5,48.7-15.4,57.3-19.3C1172.3,821.2,1169.8,814.4,1165.5,805.6z"/>
				<polygon class="st7" points="1075.4,694 1049.5,734.1 1075.8,733.1 1085,733.5 1098.1,710.7 				"/>
				<path class="st16" d="M1089.6,725.5l8.5-14.8l-22.7-16.7l-4.8,7.4C1073.3,707.9,1078.8,717.8,1089.6,725.5z"/>
				<path class="st7" d="M1055.3,707.6l10.9,0.7l20.4,27.4l0.3,7c0,0-11.6,4.7-12.6,2.2c-0.9-2.6-23.8-31.4-23.8-31.4L1055.3,707.6z
					"/>
				<path class="st8" d="M1030.8,707.2c0,0,13.4-2,24.5,0.4c0,0,1.4,23.4,31.4,28.1c0,0,12,25,0.9,57.9
					c-11.2,32.8-32.2,105.2-32.2,105.2s-80.4,4.8-94.6-16.1l28-101.9l31.6-4.4L1030.8,707.2z"/>
				<polygon class="st21" points="915.5,831.7 990.3,733.3 982.7,757.9 920.8,838.9 				"/>
				<path class="st8" d="M1012.6,842.3c-0.6-0.5-0.3-1.5,0.4-1.7c11.7-2.8,12.5-3.7,11.9-5c-0.5-0.9-19.2-3.5-29-4.8l-52-76.7
					l51.8,9l-7,17.5c0,0,28.2,27.3,45.7,5.4c15.2-18.9,26.2-55.5,10.8-72.4c-3.7-4.1-9-6.4-14.6-6.5c-22.4-0.4-109.4-1.1-121.7,10.5
					c-14.1,13.4-0.8,48.9,27.1,82.1c27.8,33.2,47,46.8,47,46.8l7.3,7.7c19.2,18.7,19.7,18.1,20.5,17.5c0.8-0.6-4.9-10.5-3.8-10.8
					c1.1-0.3,12.8,10.2,13.1,8.8c0.2-1.4-9.5-12.4-8.7-12.8c0.8-0.5,12,9.8,13.3,8.2c1.3-1.6-11.3-12.4-9.8-13.2
					c1.5-0.8,14.2,10.6,15.1,9C1030.9,859.6,1017,846.5,1012.6,842.3z"/>
				<path class="st7" d="M1020.1,869.9c0.2-1.4-9.5-12.4-8.7-12.8c0.8-0.5,12,9.8,13.3,8.2c1.3-1.6-11.3-12.4-9.8-13.2
					c1.5-0.8,14.2,10.6,15.1,9c0.8-1.4-13-14.5-17.5-18.6c-0.6-0.5-0.3-1.5,0.4-1.7c11.7-2.8,12.5-3.7,11.9-5
					c-0.5-0.9-19.2-3.5-29-4.8l-1.9-2.8c-2.6,3.8-8.7,11.8-14.9,15.4c2.7,2.2,4.1,3.2,4.1,3.2l7.3,7.7
					c19.2,18.7,19.7,18.1,20.5,17.6c0.8-0.6-4.9-10.5-3.8-10.8C1008.2,860.8,1019.9,871.3,1020.1,869.9z"/>
				<path class="st10" d="M944,754.2c6.8,1,13.6,2.1,20.4,3.3l20.3,3.4l20.3,3.5l5.1,0.8l5.1,0.8c1.7,0.3,3.4,0.5,5.1,0.8l5.1,0.7
					c-6.9-0.4-13.7-1.2-20.5-2.1c-6.8-0.9-13.6-2-20.4-3.2c-6.8-1.2-13.5-2.4-20.3-3.7C957.4,757.1,950.7,755.7,944,754.2z"/>
				<g>
					<path class="st7" d="M1073.1,661.6c0,0,4.1-20.1,5.9-21.2c1.7-1,23.8-4.4,25.1-4.7c1.3-0.3,10.1,12.4,10.1,12.4s5.7,8.6,5.2,9
						c-0.5,0.4-12.2,10.5-12.7,10.5c-0.5,0.1-20.6,4.5-20.6,4.5s-14.5,5.2-14.1,3.1C1072.4,673.2,1073.1,661.6,1073.1,661.6z"/>
					<path class="st7" d="M1127.6,645.6c0,0,5.2,12.8,5.9,23.7c0.2,3.9,1.4,7.7,3.4,11.1l4.9,8.5c0.9,1.6,0,3.7-1.8,4.1l-6.5,1.3
						c0,0-8,27.1-15.2,30.4c-7.1,3.3-23.2,2.8-45.7-26c0,0-12.2,2.8-14.8-11.7c-2.5-14.4,13.7-13,16.7-8.6
						C1074.5,678.4,1095.8,639.2,1127.6,645.6z"/>
					<path class="st17" d="M1126.7,675.9c0,2.2-1.3,4-3.1,4c-1.7,0-3.2-1.7-3.2-3.9c0-2.2,1.3-4,3.1-4
						C1125.2,672,1126.6,673.7,1126.7,675.9z"/>
					<path class="st22" d="M1130.2,666.2c-1.5-0.5-3-0.8-4.5-1c-1.5-0.1-3,0-4.5,0.3c-3,0.7-5.5,2.5-7.7,4.7c1.6-2.8,4.3-5,7.4-5.7
						c1.6-0.4,3.3-0.4,4.9-0.1C1127.3,664.7,1129,665.4,1130.2,666.2z"/>
					<path class="st10" d="M1120.8,698.3c-0.3,4.5,2.8,8.8,7.6,10.3c1.1-2.6,2-5.2,2.8-7.4L1120.8,698.3z"/>
					<path class="st22" d="M1138.9,618.7c-7.5-3.9-21.3-7.2-35-6.8c3.1-2.4,5-4.2,4.1-4.8c-6.8-4.5-27.6,9.1-34.2,13.6
						c-1.4-1.7-6.1-6.7-10.7-4c-5.4,3.2,5.3,7.1,5.3,7.1s-7.4,1.2-9,5.3c-1.1,3,3.4,2.2,5.9,1.6c-0.8,0.3-1.8,0.9-2.9,1.9l0,0
						c0,0-9.9,9-8.7,13.8c0.3,1.2,1.3,1.2,2.7,0.6c-1,5.1-2.6,14.9-0.7,16c1.1,0.7,2,0.1,2.8-0.9c1.8,7.7,4.2,13.7,4.2,13.7
						c8.9-1.9,16.9,7.4,16.9,7.4c-2.7-11.9,5-35.1,5-35.1s34.9,12.6,28.8,2.8c0,0,40.8,11.5,31.4-7.4c0,0,15.2-1.9-3.6-16
						C1141.3,627.6,1152.4,625.8,1138.9,618.7z"/>
				</g>
			</g>
			<path class="st21" d="M1085,733.5c0,0,29.9,53.9-48.2,183.3l8.7,8c0,0,63.2-103.4,52.9-171.4
				C1097.6,748.7,1095.3,735.9,1085,733.5z"/>
			<g>
				<path class="st21" d="M863.9,935.4c143.8,96.2,100.6,100.9,173,3.4l-134.4-94C861.1,906.2,843,917.4,863.9,935.4z"/>
				<path class="st23" d="M892.2,864.1c0,0,111.4,77.9,128.2,89.6c9.6,6.2,9.6,3.2,23.8-16.9c15.5-20.3,10-9.5-116.4-101.1
					c-13.3-8.8-15.5-15.2-26.5,2.8C893,851.3,884.4,857.4,892.2,864.1z"/>
				
					<rect x="949.4" y="878.1" transform="matrix(0.5731 -0.8195 0.8195 0.5731 -336.4241 1170.2025)" class="st2" width="11.3" height="59.8"/>
			</g>
		</g>
	</g>
</g>
</svg>
