<svg id="Layer_1" data-name="Layer 1" xmlns="http://www.w3.org/2000/svg" viewBox="0 0 2261.49 1295.09"><defs><style>.cls-1{fill:#f7a491;}.cls-2{fill:#3c8f7c;}.cls-3{fill:#355389;}.cls-4{fill:#466eb6;}.cls-5{fill:#13375b;}.cls-6{fill:#50bfa5;}.cls-7{fill:#f47458;}.cls-8{fill:#184655;}.cls-9{fill:#f8a492;}.cls-10{fill:#b75742;}.cls-11{fill:#f7cc7f;}.cls-12{fill:#f47257;}.cls-13{fill:#fae0b2;}.cls-14{fill:#96d9c9;}.cls-15{fill:#f48c7f;}.cls-16{fill:#fff;}.cls-17{fill:#efefef;}.cls-18{fill:#9bc1f9;}.cls-19{fill:#f79c8d;}.cls-20{fill:#86b1f2;}.cls-21{fill:#fbb03b;}.cls-22{fill:#07345a;}</style></defs><path class="cls-1" d="M931.5,1276.74c-.65-4.66.81-12.69,4.46-25.23-7.23,0-13.31-3.19-20.69-3.08-2,11.81-5.15,31.18-5.15,31.18l-.33,15.32,51.45.39s-.43.22-15.6-9.36C944.52,1285.25,932.13,1281.25,931.5,1276.74Z" transform="translate(-221.59 -384.11)"/><path class="cls-2" d="M909.54,1298.87h53.11c2-.18,2.44-1.78,1.76-2.77-1.4-2-11.76-6.92-18.72-10.16-12.22,1.29-33.69-3.74-35.62-6.57C906.72,1288.74,908.45,1298.63,909.54,1298.87Z" transform="translate(-221.59 -384.11)"/><path class="cls-1" d="M867.41,1276.74c-.65-4.66-1.76-10.5-.13-26-7.23,0-14.11-1.34-21.5-1.23,0,12.14.25,30.15.25,30.15l-.33,15.32,51.44.39s-.42.22-15.59-9.36C880.43,1285.25,868,1281.25,867.41,1276.74Z" transform="translate(-221.59 -384.11)"/><path class="cls-2" d="M845.45,1298.87h53.11c2-.18,2.44-1.78,1.76-2.77-1.4-2-11.76-6.92-18.72-10.16-12.22,1.29-33.69-3.74-35.62-6.57C842.63,1288.74,844.36,1298.63,845.45,1298.87Z" transform="translate(-221.59 -384.11)"/><path class="cls-1" d="M904.8,832.47l19.35-20.42s20.72,11.39,44.86,22.28c6.64-11.56,17.48-49.57,18.06-51.38s-12.69-24.65-9.72-25.22,6.82,12.19,10,10.9,11.21-30.91,13.1-29.29c3.53,3-4.25,18.42-2.38,19.54s6.59-17.07,10.18-16.29-6.07,16.56-5,18.07,11.17-13.29,13.26-9.86c1.14,1.86-9.33,12.9-7.17,14.13s11.58-5.71,12.7-3.46-8.8,4.59-11.55,10.29-7.76,7.91-9.43,18.68-6.2,68.31-17.93,72.93C972.83,867.41,904.8,832.47,904.8,832.47Z" transform="translate(-221.59 -384.11)"/><path class="cls-3" d="M917.3,942.59l-15.69,8.75-31.9,48.78,57,134.27s-6.43,20.2-8.52,30.28c-2.19,10.56-7.56,101.16-7.56,101.16l24.34.41s23.11-96.45,27-127.75c4.75-38-24.19-128.55-24.19-128.55-5.4-18.47-17-56.47-17-56.47S918,944.21,917.3,942.59Z" transform="translate(-221.59 -384.11)"/><path class="cls-4" d="M862.68,924.27a46,46,0,0,1-4.87,24.56c-4,8-10.79,14.23-15.68,24-9.27,18.49-14.29,44.76-10.82,61.65,0,0,19.15,73.12,18.39,99.85-.28,9.85-3.66,27.61-5.83,39.61-1.91,10.61-1.24,89.33-1.24,89.33l25.86.5,20.81-129.11,8.8-114.77,19.2-77.31Z" transform="translate(-221.59 -384.11)"/><path class="cls-5" d="M923.1,753.69c-2.51-11.85-5.1-23.75-16.88-32.28-9.53-6.91-19.77-8.89-30.63-4.95-30.76,11.16-14.22,35.57-52.39,61.59-11.87,8.09-16.37,10.91-24.88,21.68-11.92,15.09-18.43,35.32-12.44,52,12.39,34.45,50.77,44.41,70.85,37.1,37.37-13.59,68.51-61,70.58-73.93C929.52,801,924.71,761.32,923.1,753.69Z" transform="translate(-221.59 -384.11)"/><path class="cls-6" d="M926,845.29c8.66,4,24.34,10,24.34,10l8.93-28.23c-50.44-28.69-46.48-24.06-84.34-23.49-30.24.43-42.91-5.35-69,64.95,0,0,19.83,8.91,26.93,11.77,3-8.69,8.57-26,11.78-16.14a287.94,287.94,0,0,1,10.81,45.51c1.52,9.2,4.82,21,3.08,30.34,0,0,20.6,4.24,36.33,4.93H895a124.2,124.2,0,0,0,22.32-2.36s3.09-65.22,4.74-67.94c1.82-3,9.53-12.75,3-27.31C923.85,844.77,924.16,844.47,926,845.29Z" transform="translate(-221.59 -384.11)"/><path class="cls-1" d="M879.62,774.56s-2.41,19.45-3.83,26.2c-1.48,7.06-3.72,29.31,10.93,32.93s10.13-24.21,10.37-31.4,4.39-32.23,4.39-32.23Z" transform="translate(-221.59 -384.11)"/><path class="cls-7" d="M878.83,780.76a4.68,4.68,0,0,0,.44.27c8.09,4.65,15.14,3.91,20.43.3.95-6.22,1.78-11.27,1.78-11.27l-21.86,4.5S879.3,777.15,878.83,780.76Z" transform="translate(-221.59 -384.11)"/><path class="cls-1" d="M884,723.91a25,25,0,0,0-13.54,10.94c-5,8.52-7.42,33,10.8,43.46s31.16-6.29,30.61-22S907,720,884,723.91Z" transform="translate(-221.59 -384.11)"/><path class="cls-1" d="M915.93,749.63c.2,4.07-1.54,7.47-3.89,7.59s-4.42-3.08-4.62-7.16,1.54-7.46,3.89-7.58S915.73,745.56,915.93,749.63Z" transform="translate(-221.59 -384.11)"/><path class="cls-5" d="M886.61,723.26s-9.83,25.61-19.44,28.34-8.85,15.33-8.85,15.33-1.23-29.12,7.55-36.26S886.61,723.26,886.61,723.26Z" transform="translate(-221.59 -384.11)"/><path class="cls-1" d="M871.29,756.61c1.49,4,.51,8.07-2.17,9.08s-6.06-1.41-7.54-5.42-.51-8.06,2.17-9.07S869.81,752.61,871.29,756.61Z" transform="translate(-221.59 -384.11)"/><path class="cls-1" d="M888.09,958.49c.36,0,2-.16,3.28-.13a24.38,24.38,0,0,1,3.4.31,9.68,9.68,0,0,1,2.08-1.25c.57-.26,1.49-.36,2.13-.65s1.2-.86,1.81-1.14c1.61-.69,3.08-.86,3.57,0,.41.69-8.53,6.16-8.53,6.16-8.28.05-16.94,4.27-36.12-8.24-11-4.79-64.14-31.06-65.21-36.78-.6-3.22,7.56-28.09,14.23-47,5.14,2.3,16.08,7.17,22.2,9.73-5.62,11.89-12.24,27.66-11.54,29.6.18.5.84,1.41,36.8,25,.91.58,1.83,1.2,2.77,1.82l8.12,5.29,10.25-1.07s16.24,1.12,16.73,3c.21.84-1.14,1.26-2.79,1.5h0l-.73.1h0c-1.79.21-3.67.24-4.12.41a10.5,10.5,0,0,0-2.45,1.2c10.12,4.13,9.34,2.66,12.7,2.45.84-.07,1.74.18,2.53.11,1.36-.11,2.45-.92,3.51-1a4.5,4.5,0,0,1,3.06.93c.36.35-.31.87-1.6,1.46-7.82,3.39-14.3,2.09-16.38,2.59-1.39.34,1.16.86,5.13.44,1-.1,2.29.26,3.6,0,.88-.19,1.68-.76,2.54-1s1.6-.18,2.27-.31c.87-.16,2.09-.83,2.79-.91,2.59-.29,3.86.16,4.15.41.6.53-11.19,5.06-11.19,5.06s-8.13,1.17-10,1.17C887.05,957.68,886,958.16,888.09,958.49Z" transform="translate(-221.59 -384.11)"/><path class="cls-1" d="M1347.2,1170.6s-6.4,20.37-6.42,20.41c-1.09,2.51-4.43,8.57-5,11-2.26,9,42,2.48,34-3.75-.73-.56-5-6.7-4.55-9.82.78-4.8,2.88-12.22,2.88-12.22Z" transform="translate(-221.59 -384.11)"/><path class="cls-8" d="M1369.71,1198.1s-10.11.37-15.11-.15-9.89-7.9-13.69-7.2c-4.19.77-9.45,20.47-9.45,20.47s48.42,16.16,62,15.7C1399.52,1226.71,1387.34,1209.32,1369.71,1198.1Z" transform="translate(-221.59 -384.11)"/><path class="cls-1" d="M1424.52,1190l-6.41,20.41c-1.1,2.51-4.44,8.57-5,11-2.26,9,42,2.48,34-3.75-.73-.57-5-6.7-4.55-9.82.78-4.8,2.89-12.22,2.89-12.22Z" transform="translate(-221.59 -384.11)"/><path class="cls-8" d="M1447,1217.54a149.81,149.81,0,0,1-15.11-.16c-5-.52-9.89-7.89-13.69-7.19-4.19.77-9.44,20.46-9.44,20.46s48.41,16.17,62,15.71C1476.84,1246.15,1464.66,1228.76,1447,1217.54Z" transform="translate(-221.59 -384.11)"/><path class="cls-9" d="M1595.51,656.52c-1.26,10.41.5,10.17.3,11.51-.23,1.57-14.2,17.76-14.2,17.76s-40.85,48-43.14,50.48l-58.22,28.2,4.93,32.87s62.57-32.36,65.56-34.62,50.9-73.44,55.31-79.57c0,0,7.89-5.41,12.74-9s7.93-9.08,9.14-10.29a55.16,55.16,0,0,0,7.37-10.94c2.89-5.59-2.36-1.56-2.36-1.56s-7.17,9.43-7.8,8.75,3.74-5.45,7-11.61c.84-1.58,1.66-3.15,2.41-4.59,2-3.79.24-6-2.42-2.38a44.86,44.86,0,0,0-3.32,5.17,36.3,36.3,0,0,1-3.38,4.67,48.72,48.72,0,0,1-3.52,4.79c-.09-.19-.87.1,0-1.61,1-2.05,4.09-6,5.35-9.08.71-1.78,2.42-5.4,2.42-5.4s1.59-5.94,1.28-6.14c-1.68-1.09-3.89,2.68-4.55,5.21a29.31,29.31,0,0,0-2.92,5.27s-5.14,7.07-6.12,6.37c-.42-.29,2.23-5,4.12-10,1.75-4.65,2.78-9.62,1.93-10.09-1.44-.79-3.93,4.17-3.93,4.17s-1.56,3.57-2.16,4.72c-.72,1.34-3.14,5.21-3.14,5.21s-9.08,13.08-10,12.34-2.34-3.56-2-4.56,1.76-2.58,2-3.58a2.53,2.53,0,0,0-1.36-3c-1.18-.43-4.39,3.91-4.39,3.91S1595.87,653.51,1595.51,656.52Z" transform="translate(-221.59 -384.11)"/><path class="cls-9" d="M1348.82,615.21c-2,10.3-3.6,9.54-3.82,10.87-.27,1.57,8.06,21.25,8.06,21.25s24.16,58.17,25.57,61.27l46.76,44.67-14.78,29.78s-49.62-50-51.78-53-25.91-85.49-28.23-92.68c0,0-5.84-7.57-9.36-12.44s-4.76-11.08-5.55-12.6a55.91,55.91,0,0,1-3.65-12.67c-1-6.21,2.72-.77,2.72-.77s3.94,11.18,4.74,10.72c.62-.35-1.88-6.33-3.1-13.19-.31-1.76-.61-3.51-.88-5.11-.69-4.2,1.62-5.81,3-1.52a42,42,0,0,1,1.56,5.94,38.3,38.3,0,0,0,1.79,5.48,47.37,47.37,0,0,0,1.88,5.63c.14-.15.8.36.53-1.52-.33-2.26-2.07-6.92-2.31-10.28-.13-1.91-.65-5.88-.65-5.88s.31-6.14.67-6.24c1.93-.52,2.88,3.74,2.73,6.36a29.11,29.11,0,0,1,1.16,5.91s2.72,8.3,3.87,7.94c.49-.16-.58-5.44-.84-10.79-.25-5,.3-10,1.25-10.19,1.61-.31,2.46,5.17,2.46,5.17s.39,3.88.61,5.15c.27,1.5,1.39,5.93,1.39,5.93s4.62,15.23,5.68,14.79,3.32-2.67,3.35-3.72-.89-3-.85-4a2.54,2.54,0,0,1,2.2-2.4c1.25,0,3,5.07,3,5.07S1349.4,612.24,1348.82,615.21Z" transform="translate(-221.59 -384.11)"/><path class="cls-10" d="M1425.29,910.55s24.43,159,23.41,172.5c-.75,9.86-30.06,116.83-30.06,116.83l28.84,6.77,41.14-120.28L1490,922Z" transform="translate(-221.59 -384.11)"/><polygon class="cls-7" points="1175.3 526.49 1162.63 693.07 1117.54 795.3 1150.25 803.52 1204.98 695.15 1240.33 570.21 1237.31 526.38 1175.3 526.49"/><path class="cls-4" d="M1524.13,741.08s-1,33.95,2.83,40.23c0,0-30,10.6-30.51,17.66s-5.21,140.25-5.21,140.25-63.45,15-97.15,1.5c0,0,10.11-150.51,5-159s-23.49-24.47-23.49-24.47,23.4-26.15,24.75-31.49c0,0,33.07,26.73,37.8,34.61s19,3,22.28,2.49C1460.45,762.88,1518.94,742.68,1524.13,741.08Z" transform="translate(-221.59 -384.11)"/><path class="cls-1" d="M1450.52,732.36l-12.22,28.33s7.25,23.77,18,23.2c9-.48,12.42-16.95,12.42-16.95s-.3-18,3.2-26.09S1450.52,732.36,1450.52,732.36Z" transform="translate(-221.59 -384.11)"/><path class="cls-7" d="M1471.92,740.85c3.5-8.09-21.4-8.49-21.4-8.49l-1,2.37a14,14,0,0,0,1.5,4.8,32.06,32.06,0,0,0,18.23,14.35C1469.69,749.15,1470.49,744.17,1471.92,740.85Z" transform="translate(-221.59 -384.11)"/><path class="cls-1" d="M1457.32,689.25c-.61-.41-13.91,32.58-7.43,44.21s22.92,19,31,13.18c8.91-6.47,17.85-43.27,6.54-56.4S1457.32,689.25,1457.32,689.25Z" transform="translate(-221.59 -384.11)"/><path class="cls-11" d="M1462.87,670.65c-5-.65-15.08,3.86-24.66,13.24-11.77,11.52-5.53,30.88,2.3,40.72S1446,743,1446,743l2.73-4a25.3,25.3,0,0,0,3.85-10.11,21,21,0,0,0,0-6.66c-1.08-5.53,7.09-7,10.19-10.56,2.39-2.77,4.3-10,8.12-14.61l4-3.25s8.24,2.85,14.57-.37C1507.6,684.13,1489.2,661.23,1462.87,670.65Z" transform="translate(-221.59 -384.11)"/><path class="cls-1" d="M1460.75,717.56c-1,4.19-3.76,7.12-6.21,6.55s-3.64-4.43-2.65-8.62,3.76-7.11,6.21-6.54S1461.73,713.38,1460.75,717.56Z" transform="translate(-221.59 -384.11)"/><path class="cls-1" d="M1180.86,1134.29a175,175,0,0,1-18.84,23.24c-.58.54-4.4,1.77-5,2.31-5.36,17,1.54,31.38,8.93,42.72,1.23-9.19,2.11-21.76,3.52-23.31a185.4,185.4,0,0,1,25.46-26.15C1186.73,1148.5,1185.75,1142.25,1180.86,1134.29Z" transform="translate(-221.59 -384.11)"/><path class="cls-4" d="M1161.57,1157.81c-6.07.37-17.55,4.16-17.48,5.36.08,1.44,6.58,51.46,14.48,55.86,4.75,2.65,5.63-5.13,7.37-16.48C1158.54,1191.21,1158.19,1160.7,1161.57,1157.81Z" transform="translate(-221.59 -384.11)"/><path class="cls-1" d="M1055.18,1110.91a229,229,0,0,1-26.81,13.83c-.75.25-4.73-.27-5.51,0-12.08,13.07-12,29-10.11,42.46,5-7.8,11.17-18.79,13.11-19.59a242.88,242.88,0,0,1,33.86-11.36C1054.27,1128.55,1056.22,1120.19,1055.18,1110.91Z" transform="translate(-221.59 -384.11)"/><path class="cls-1" d="M1193.94,774.28s19.17-36.08,22-49,12.67-78,11.84-82.17-16.37-14.27-14.45-17.83,16.72-3.57,20.11-3.26,10.2,2.28,13.11,4.68-3.28,80.38-5.12,97.16-30,71.78-30,71.78Z" transform="translate(-221.59 -384.11)"/><path class="cls-1" d="M1107.78,826.41s-39.08,62.57-45.9,74.86-32.25,43.62-33.53,45.13-28.18.14-27.41,3.26,13.12,0,13.35,3.69S993,980.26,995.19,981.2c4,1.75,13.69-13.73,15.42-12.56s-11.57,15.24-9.4,18.24,11.35-14.48,13.08-14.28-6.47,17.59-2.71,17.76c2,.1,6.91-15.63,8.85-14.24s.08,14,2.44,13.86.16-10.75,3.79-16.36,3.38-11.53,11.73-18.78,40.72-29.35,52.45-48.88,37.76-62.6,37.76-62.6Z" transform="translate(-221.59 -384.11)"/><path class="cls-2" d="M1201.14,919.48l-67.86,21.86s37.33,63.47,44.71,76.12,39.15,43.9,39.2,52.07c0,5.78-29.92,44.14-48,67.54,4.07,7.59,15.23,17.35,22.29,21.67,30.06-28.5,73.91-73.44,74.72-88.17C1267.41,1049.05,1201.14,919.48,1201.14,919.48Z" transform="translate(-221.59 -384.11)"/><path class="cls-4" d="M1027.81,1124.81c-5.64-2.25-17.6-3.71-18-2.59-.54,1.34-16,49.36-10.68,56.71,3.17,4.42,7.28-2.25,13.68-11.77C1010.9,1153.75,1024.05,1125.13,1027.81,1124.81Z" transform="translate(-221.59 -384.11)"/><path class="cls-6" d="M1187.22,958.64c.87-4.18,6.46-16.45,9.34-26.23a53.51,53.51,0,0,0,1.29-25h0l-49.91-2.32-1.91,3.71a30.19,30.19,0,0,1-8.56,10.25c-7.48,5.65-20.59,18-20.2,35.31.56,24.08,17.69,112.36,12,115.66-10.29,6-53.2,26.84-78.81,39.68.35,9.34,3,22.63,7.83,30.66,20.29-7.76,91.68-39.36,105-47.11C1169.24,1089.8,1185.75,965.75,1187.22,958.64Z" transform="translate(-221.59 -384.11)"/><path class="cls-7" d="M1066.63,677.75c4,10.46-2.3,18.26-6.66,28.56-2.92,6.91,3.52,17.89,10.81,23,18.46,12.81,22.79,13.14,21.45,30.54-3.21,41.91,46.89,24,55,22.71s14.14-1,18-3.64c11.6-8,22.49-32.15,20.45-52.46s-26.23-13.34-31.76-22.66,11.18-21-3.07-36.53c-40.92-44.73-83.63-14.73-85.16,2.38A18.12,18.12,0,0,0,1066.63,677.75Z" transform="translate(-221.59 -384.11)"/><path class="cls-11" d="M1207.21,825.77s13.92-33.08,16.15-38.58c0,0-19.45-17.32-31-16,0,0-15,23.63-23.91,24.48s-40.06,2.18-45.53,5.44-28.67,38.2-28.67,38.2,20.85,20.89,29.24,20.84c0,0,5.7-14.1,7.64-11.53s9.66,57.38,13.55,61.55c3.6,3.86,47.29,18.6,59.9,15.89,0,0,6.79-52.76,6.42-85.24C1210.9,835.89,1207.21,825.77,1207.21,825.77Z" transform="translate(-221.59 -384.11)"/><path class="cls-1" d="M1146.38,780.17s4.92,16.27,5,22.88,5.3,27.4,19.17,26-.14-27.11-2.11-33.39-4.33-26.11-4.33-26.11Z" transform="translate(-221.59 -384.11)"/><path class="cls-7" d="M1165.38,779.53c-.77-5.41-1.31-9.94-1.31-9.94l-17.69,10.58s1,3.33,2.11,7.58C1156.79,788.55,1162.38,784.93,1165.38,779.53Z" transform="translate(-221.59 -384.11)"/><path class="cls-1" d="M1134.85,735.06a23.14,23.14,0,0,0-8.48,13.59c-1.73,8.89,3.55,30.8,22.6,34.25s25.25-15,20-28.34S1153.67,724.64,1134.85,735.06Z" transform="translate(-221.59 -384.11)"/><path class="cls-1" d="M1170.75,749c0,3.74-1.72,6.77-3.9,6.78s-3.95-3-4-6.74,1.73-6.76,3.9-6.77S1170.73,745.26,1170.75,749Z" transform="translate(-221.59 -384.11)"/><path class="cls-1" d="M1134.65,767.59c2.51,3,2.9,6.81.87,8.5s-5.71.64-8.22-2.37-2.89-6.81-.86-8.51S1132.15,764.58,1134.65,767.59Z" transform="translate(-221.59 -384.11)"/><path class="cls-12" d="M1226.69,625.43a7.41,7.41,0,0,0-1.16.86l-2.12,1.92h0c1.95.46,5.2.09,8.23,2.38C1231.64,630.59,1231,628.11,1226.69,625.43Z" transform="translate(-221.59 -384.11)"/><path class="cls-7" d="M1259.8,515.35c-4.58.9-22.87,25.41-22.87,25.41l-.64,1.69s33.09-3.68,34.29-5.09C1273.81,533.54,1263.56,514.61,1259.8,515.35Zm-22.64,25.93c6-7.72,19.8-19,22.77-21.38,2.66,2.71,6.66,10.7,7.19,14.31C1263.31,535,1246.82,540.11,1237.16,541.28Z" transform="translate(-221.59 -384.11)"/><path class="cls-7" d="M1221.43,510.32c-7.14-9.67-10.94-8-13.64-6.88s-12.75,13.68-9.61,20.21,34,19.35,34,19.35l1.12-2.41S1228.57,520,1221.43,510.32Zm-19.61,11.56c-1.56-3.25,5.09-13,7.7-14.78a4.8,4.8,0,0,1,1.68-.5c.58,0,2.78.44,7,6.12,4.58,6.21,11.89,21.5,13.68,27.93C1219.4,535.12,1203.32,524.64,1201.82,521.88Z" transform="translate(-221.59 -384.11)"/><rect class="cls-7" x="1009.4" y="153.37" width="6.81" height="9.69" rx="2.66"/><path class="cls-11" d="M1284.5,628.21h-94a9.65,9.65,0,0,1-9.62-9l-4.93-75.54h122.47l-5.14,78.68C1293,625.62,1289.17,628.21,1284.5,628.21Z" transform="translate(-221.59 -384.11)"/><path class="cls-13" d="M1303.42,560.13l-133,.26-1.41-8.55a8.39,8.39,0,0,1,8.31-9.77l120.31.33c4.28,0,7.62,2.64,7.24,5.7Z" transform="translate(-221.59 -384.11)"/><rect class="cls-7" x="1012.66" y="158.07" width="2.53" height="18.12"/><rect class="cls-7" x="1015.23" y="176.11" width="3.16" height="68.11"/><path class="cls-1" d="M1224.64,633l-1.19-4.76a27.72,27.72,0,0,1-8.6-1.36l-3.32-1.44a2,2,0,0,0-2.71,1.1h0a2,2,0,0,0,.62,2.37s9,7.38,12.11,9.62c1.56,1.11,6.47,4.1,6.47,4.1l2.85-5.35Z" transform="translate(-221.59 -384.11)"/><path class="cls-3" d="M1952,1649.48s234.46-90.92,278.2-145.28-12.76-62.66-12.76-62.66,108.87-88.65,98.4-131-65.75-9.23-65.75-9.23,77.15-137.81,48-154.93c-54.24-31.87-147.32,115.52-147.32,115.52s23-65.57-16.18-66.84c-59.09-1.91-70.07,150-70.07,150s-1.5-58.77-38.6-43C1959.31,1330.44,1952,1649.48,1952,1649.48Z" transform="translate(-221.59 -384.11)"/><path class="cls-4" d="M2015.18,1277.55c29-12.91,52.62,34.41,52.62,34.41s7.68-118.76,66.77-116.85c39.18,1.27,16.18,66.84,16.18,66.84s93.08-147.39,147.32-115.52L1951.9,1647C1953,1610,1957.67,1303.13,2015.18,1277.55Z" transform="translate(-221.59 -384.11)"/><path class="cls-3" d="M1931.78,1663.06S2116.3,1685.5,2164,1665s13.42-45.67,13.42-45.67,102.5-20.42,110.34-51.9-39.47-28.85-39.47-28.85,98.17-63.93,85-85.33c-24.59-39.86-137.15,24.71-137.15,24.71s38-35.14,12.62-49.61c-38.21-21.83-98.34,74.32-98.34,74.32s3.69-23.67-26.22-26.22C2030.53,1471.85,1931.78,1663.06,1931.78,1663.06Z" transform="translate(-221.59 -384.11)"/><path class="cls-4" d="M2082.93,1459.23c29.9,2.55,27.47,43.41,27.47,43.41s61.17-114,99.39-92.12c25.34,14.47-4.48,62.3-4.48,62.3s103.37-59.46,128-19.6L1931.21,1662C1944.84,1638.1,2032.81,1455,2082.93,1459.23Z" transform="translate(-221.59 -384.11)"/><path class="cls-3" d="M812.14,1649.48s-234.46-90.92-278.2-145.28,12.76-62.66,12.76-62.66-108.87-88.65-98.4-131,65.75-9.23,65.75-9.23-77.15-137.81-48-154.93C520.26,1114.56,613.33,1262,613.33,1262s-23-65.57,16.19-66.84c59.09-1.91,70.07,150,70.07,150s1.49-58.77,38.6-43C804.77,1330.44,812.14,1649.48,812.14,1649.48Z" transform="translate(-221.59 -384.11)"/><path class="cls-4" d="M748.91,1277.55c-29-12.91-52.62,34.41-52.62,34.41s-7.68-118.76-66.77-116.85c-39.18,1.27-16.19,66.84-16.19,66.84S520.26,1114.56,466,1146.43L812.18,1647C811.05,1610,806.42,1303.13,748.91,1277.55Z" transform="translate(-221.59 -384.11)"/><path class="cls-3" d="M832.31,1663.06S647.79,1685.5,600.08,1665s-13.42-45.67-13.42-45.67-102.51-20.42-110.34-51.9,39.47-28.85,39.47-28.85-98.17-63.93-85-85.33c24.59-39.86,137.15,24.71,137.15,24.71s-38-35.14-12.62-49.61c38.21-21.83,98.34,74.32,98.34,74.32S650,1479,679.91,1476.42C733.56,1471.85,832.31,1663.06,832.31,1663.06Z" transform="translate(-221.59 -384.11)"/><path class="cls-4" d="M681.16,1459.23c-29.91,2.55-27.47,43.41-27.47,43.41s-61.18-114-99.39-92.12c-25.34,14.47,4.47,62.3,4.47,62.3s-103.36-59.46-127.95-19.6L832.87,1662C819.25,1638.1,731.28,1455,681.16,1459.23Z" transform="translate(-221.59 -384.11)"/><path class="cls-14" d="M635.15,928.52l11.47,2.27s16.77-7.83,18-11.61.69-12.47,3.14-13a7.57,7.57,0,0,1,9.24,5.43c1.36,4.19-3.38,17.38-2.23,18.58.71.75,7.27,2.24,12.07,3.25a8.64,8.64,0,0,1,6.55,6.22h0a4.74,4.74,0,0,1-2.32,5.44l-3,1.62,1.42,3.15a4.75,4.75,0,0,1-2.26,6.23l-2.35,1.13,1,1.9a4.75,4.75,0,0,1-2.27,6.62l-2.07.89.16.56a4.74,4.74,0,0,1-2.78,5.71l-2.06.82-30.54-6a21.19,21.19,0,0,1-8-3.4L628,960.37a2.43,2.43,0,0,1-1.5-2.8l5.8-27.14A2.44,2.44,0,0,1,635.15,928.52Z" transform="translate(-221.59 -384.11)"/><path class="cls-15" d="M1685.19,805.6s-6.31-70.27-7.8-84.48,5.45-60.43,5.65-62.43,23.37-15.67,20.81-17.82-11.47,7.58-13.88,4.66,2.27-34.76-.17-34.29c-4.58.87-3.65,19.39-5.86,19.41s.88-19.41-2.83-20.66-1.15,18.66-2.78,19.49-5-18.41-8.37-16.38c-1.84,1.11,3.42,17,.89,17s-8.52-11.61-10.51-10.14,6.36,9.06,6.59,15.84,4,11.57,1.12,22.46-19.73,50-18.15,73.07,6.88,72.2,6.88,72.2Z" transform="translate(-221.59 -384.11)"/><polygon class="cls-2" points="1463.56 358.52 1425.84 366.63 1427.25 448.42 1460.39 436.78 1463.56 358.52"/><path class="cls-10" d="M1770,736.51c-10.82-14.32-29.58-19.11-45.24-10.82a36.92,36.92,0,0,0-27.51-9.08c-19.31,1.86-40,22.31-33.68,41.39-3.28,15.19-2.72,28.62,10.94,35.06,1.32,18.61,24.61,34.47,45.59,27.15,10.92,9.84,27.88,8.75,41.36,2.65,3.18-1.43,6.66-4.39,7.69-4.53,0,0,35.65,8.93,47.18-24.29C1828.37,759.27,1804.2,720.48,1770,736.51Z" transform="translate(-221.59 -384.11)"/><path class="cls-3" d="M1541,1034.51c2-14.63,100.09-110.23,100.09-110.23l49.85,52.35s-31.66,24-43.53,33c-7.32,5.5-32.12,19.09-50.34,29.23h-56.63C1540.66,1036.84,1540.86,1035.38,1541,1034.51Z" transform="translate(-221.59 -384.11)"/><path class="cls-4" d="M1702.92,1001.14c-5.57-33.85-21.83-57.61-23.81-76.93,0-.16-.23-2.22,0-2.29l-51.84,13.83s-4.51,20-1.42,29.38c0,0,6.86,42.09,16.44,83.55,20.65-1,41.14-3.71,61.92-6.1C1704.72,1028.22,1704.72,1012.05,1702.92,1001.14Z" transform="translate(-221.59 -384.11)"/><path class="cls-6" d="M1631.2,866.64c.64-10.7-.68-33.3.27-36.75,0-.28-.08-.57-.13-.85l39.36-27.54c.13,0-.39-.09.93.09,8.59,1.13,37.51,9.9,42.86,12.42l-1,36.7c-3.18,1.6-26.41,98.7-20.21,108.59,3,4.84-76.3,2-78.51-7.52C1613.82,947.68,1629.9,888.27,1631.2,866.64Z" transform="translate(-221.59 -384.11)"/><path class="cls-1" d="M1692.5,792s-3.3,16.72-3.6,23.43-8.43,27.25-21.85,25.44.21-27.71,2.38-34,6.31-26.11,6.31-26.11Z" transform="translate(-221.59 -384.11)"/><path class="cls-7" d="M1673.62,790.49c3.24,5.39,9.07,8.84,17.71,7.77.65-3.59,1.17-6.23,1.17-6.23l-16.76-11.26S1674.82,785.17,1673.62,790.49Z" transform="translate(-221.59 -384.11)"/><path class="cls-1" d="M1706.53,743.48a24.76,24.76,0,0,1,8.18,15c1.4,9.64-5,33.14-24.88,36.25s-25.47-17-19.48-31.25S1687.51,731.61,1706.53,743.48Z" transform="translate(-221.59 -384.11)"/><path class="cls-1" d="M1669,759c-.17,3.78,1.41,6.91,3.52,7s4-2.93,4.13-6.71-1.4-6.91-3.51-7S1669.16,755.19,1669,759Z" transform="translate(-221.59 -384.11)"/><path class="cls-10" d="M1703.1,737.72s-.3,29.62,8,36.12,2.69,18.89,2.69,18.89,12.36-28.83,6.58-39.45S1703.1,737.72,1703.1,737.72Z" transform="translate(-221.59 -384.11)"/><path class="cls-1" d="M1705.37,779.28c-2.55,3-3.08,6.82-1.18,8.6s5.52.82,8.08-2.15,3.09-6.82,1.18-8.6S1707.93,776.31,1705.37,779.28Z" transform="translate(-221.59 -384.11)"/><path class="cls-15" d="M1700.45,810.16s33-59.5,41-72.15,28.85-62.88,29.59-64.86-14.63-25.63-11.23-26.45,7.24,12.47,10.86,10.86,14.09-33.73,16.17-32.14c3.89,3-5.62,19.91-3.55,21s8.23-18.65,12.29-18.09-7.63,18.07-6.48,19.6,13.28-15,15.51-11.47c1.21,1.9-11.17,14.41-8.77,15.56s13.42-6.93,14.6-4.62-10.21,5.54-13.59,11.81-9.17,9-11.53,20.57-5.75,53.47-18,74.42-39.2,67.32-39.2,67.32Z" transform="translate(-221.59 -384.11)"/><path class="cls-6" d="M1689.5,806.29c9.53-11.65,33.79-43,33.79-43s24.76,16.75,27.43,25.57c0,0-44.91,67.76-41.6,69.1C1709.12,857.91,1686.27,810.23,1689.5,806.29Z" transform="translate(-221.59 -384.11)"/><polygon class="cls-6" points="1420.08 85.83 1429.73 88.91 1426.48 104.98 1440.03 111.22 1439.57 123.64 1445.86 123.88 1446.47 107.26 1433.63 101.34 1437.01 84.63 1422.49 79.99 1420.08 85.83"/><path class="cls-13" d="M1802.51,540.28l-69.81-13a15.17,15.17,0,0,1-12.14-17.69l7.33-39.31a15.16,15.16,0,0,1,17.68-12.13l69.82,13a15.17,15.17,0,0,1,12.13,17.69l-7.32,39.31A15.17,15.17,0,0,1,1802.51,540.28Z" transform="translate(-221.59 -384.11)"/><polygon class="cls-13" points="1505.75 106.06 1470.58 131.06 1508.51 130.77 1505.75 106.06"/><path class="cls-16" d="M1754.94,490.68l9,1.44s12.78-6.41,13.66-9.33.15-9.54,2-10a6,6,0,0,1,7.35,3.92c1.19,3.16-2.09,13.36-1.16,14.24.58.56,5.71,1.53,9.48,2.18a6.75,6.75,0,0,1,5.28,4.58h0a3.59,3.59,0,0,1-1.64,4.22l-2.29,1.32,1.2,2.37a3.6,3.6,0,0,1-1.57,4.82l-1.79.92.86,1.42a3.59,3.59,0,0,1-1.56,5.12l-1.58.73.14.43a3.59,3.59,0,0,1-2,4.43l-1.58.68-23.92-3.83a16.83,16.83,0,0,1-6.3-2.39l-8.19-2.74a1.88,1.88,0,0,1-1.25-2.11l3.67-20.88A1.88,1.88,0,0,1,1754.94,490.68Z" transform="translate(-221.59 -384.11)"/><path class="cls-11" d="M2050.93,426l4.72-10.93L2049.32,405a1.64,1.64,0,0,1,1.54-2.5l11.85,1.11,7.63-9.13a1.64,1.64,0,0,1,2.86.69l2.6,11.61,11,4.44a1.64,1.64,0,0,1,.22,2.93l-10.24,6.06-.81,11.88a1.64,1.64,0,0,1-2.71,1.12l-8.94-7.87-11.54,2.9A1.63,1.63,0,0,1,2050.93,426Z" transform="translate(-221.59 -384.11)"/><path class="cls-14" d="M676.61,573.55l-5.55-7.63-9.43.23a1.3,1.3,0,0,1-1.08-2.06l5.55-7.63-3.14-8.9a1.3,1.3,0,0,1,1.63-1.66l9,2.92,7.49-5.73a1.3,1.3,0,0,1,2.09,1v9.43l7.77,5.36a1.29,1.29,0,0,1-.34,2.3l-9,2.91-2.69,9A1.29,1.29,0,0,1,676.61,573.55Z" transform="translate(-221.59 -384.11)"/><polygon class="cls-4" points="1807.27 185.23 1795.18 188.31 1788.08 169.41 1769.85 171.74 1762.21 158.47 1755.49 162.33 1765.7 180.09 1782.98 177.88 1790.37 197.54 1808.56 192.9 1807.27 185.23"/><polygon class="cls-11" points="1697.02 175.69 1684.96 172.94 1687.24 153.05 1670.11 146.85 1669.39 131.68 1661.71 132.05 1662.67 152.33 1678.91 158.21 1676.53 178.9 1694.68 183.04 1697.02 175.69"/><polygon class="cls-11" points="1819.74 119.94 1811.12 105.62 1797.28 112.75 1788.17 99.02 1774.1 104.21 1765.61 95.05 1760.97 99.35 1772.33 111.6 1785.67 106.69 1795.14 120.97 1808.76 113.95 1816.56 126.93 1819.74 119.94"/><path class="cls-7" d="M841.17,612.15l-6.39-9.23-11.22,0a1.54,1.54,0,0,1-1.23-2.48l6.81-8.92-3.5-10.67a1.55,1.55,0,0,1,2-1.94l10.59,3.72,9.07-6.62a1.54,1.54,0,0,1,2.45,1.28l-.26,11.23,9.1,6.58a1.54,1.54,0,0,1-.47,2.72l-10.75,3.22-3.45,10.69A1.54,1.54,0,0,1,841.17,612.15Z" transform="translate(-221.59 -384.11)"/><polygon class="cls-6" points="957.35 16.31 959.85 11.32 972.04 17.44 977.78 0 983.09 1.75 975.32 25.33 957.35 16.31"/><path class="cls-14" d="M1492.35,453.87,1480,449.22l-10.85,7.56a1.82,1.82,0,0,1-2.85-1.57l.6-13.21-10.55-8a1.82,1.82,0,0,1,.62-3.2l12.74-3.52,4.33-12.48a1.81,1.81,0,0,1,3.23-.41l7.28,11,13.22.26a1.82,1.82,0,0,1,1.38,3L1490.89,439l3.84,12.65A1.82,1.82,0,0,1,1492.35,453.87Z" transform="translate(-221.59 -384.11)"/><polygon class="cls-11" points="415.85 292.68 401.9 293.24 396.41 306.38 380.72 305.9 379.19 321.7 361.43 321.94 358.22 336.31 341.17 339.33 340.02 332.88 352.77 330.62 356.16 315.45 373.23 315.22 374.79 299.16 392.1 299.69 397.46 286.86 410.39 286.34 412.15 277.18 418.59 278.41 415.85 292.68"/><path class="cls-11" d="M914.56,495.08a27.38,27.38,0,1,1-29.95-24.56A27.38,27.38,0,0,1,914.56,495.08Z" transform="translate(-221.59 -384.11)"/><path class="cls-17" d="M873.17,503.54a14.64,14.64,0,1,0,29.14-2.89Z" transform="translate(-221.59 -384.11)"/><path class="cls-15" d="M1300.8,449.93l6.37-10.34-5.12-2.07a2.2,2.2,0,0,1-1.2-2.85h0a2.2,2.2,0,0,1,2.85-1.2l5.89,2.39,5.69-9.28-5.46-2.22a2.17,2.17,0,0,1-1.2-2.84h0a2.18,2.18,0,0,1,2.84-1.21l6.25,2.53,6.6-10.63a2.2,2.2,0,0,1,2.68-.87l1,.39a2.19,2.19,0,0,1,1,3.17l-6.15,10,9.05,3.67L1338.5,418a2.18,2.18,0,0,1,2.68-.88l1,.43a2.18,2.18,0,0,1,1,3.16l-6.15,10,5.11,2.08a2.18,2.18,0,0,1,1.21,2.84h0a2.2,2.2,0,0,1-2.85,1.21l-5.89-2.39-5.61,9.31,5.46,2.22a2.19,2.19,0,0,1,1.21,2.85h0a2.2,2.2,0,0,1-2.85,1.2l-6.24-2.53-6.75,11a2.18,2.18,0,0,1-2.68.88l-1.12-.45a2.19,2.19,0,0,1-1-3.17l6.37-10.34-9-3.67-6.75,11a2.19,2.19,0,0,1-2.68.88l-1.12-.45A2.19,2.19,0,0,1,1300.8,449.93Zm23.06-8.28,5.69-9.29-9-3.67-5.69,9.29Z" transform="translate(-221.59 -384.11)"/><path class="cls-15" d="M1069.7,507.91a19.78,19.78,0,0,1,12.51-11.45c8.7-2.8,16.91,2.18,19.5,10.23,3,9.31-1.63,22.95-19.75,39.35-24.27-2.76-36-11.15-39-20.46-2.58-8.05,1.18-16.88,9.87-19.68A19.81,19.81,0,0,1,1069.7,507.91Z" transform="translate(-221.59 -384.11)"/><path class="cls-15" d="M999,534.7a206.35,206.35,0,0,0,22.84-4.71c2.27-.61,6.38-1,7.43-3.35a2.46,2.46,0,0,0-.84-3.28c-2.17-1.44-5.39.21-7.68.82-7,1.85-14.94,3.62-23.1,4.94a2.89,2.89,0,0,0-2.11,3.47A2.93,2.93,0,0,0,999,534.7Z" transform="translate(-221.59 -384.11)"/><path class="cls-15" d="M1120.13,521.67c3.35-.83,6.68-1.72,10-2.61,3.19-.84,7.11-1.28,9.84-3.17a2.49,2.49,0,0,0-1.13-4.63c-3.32-.28-6.9,1.25-10.09,2.11s-6.67,1.78-10,2.72c-3.55,1-2.25,6.47,1.35,5.58Z" transform="translate(-221.59 -384.11)"/><path class="cls-15" d="M1041.33,570.25c2.34-8.13,6.87-11.64,10.05-15.36a2.32,2.32,0,0,0-2.7-3.69c-6.7,2.94-11,10.76-12.85,17.5-1,3.54,4.49,5.09,5.5,1.55Z" transform="translate(-221.59 -384.11)"/><path class="cls-15" d="M1084.43,577.74a25.19,25.19,0,0,1-1-10.46c.26-2.17,2.79-8.71-1.4-8.71-4,0-4.34,6.59-4.55,9.39a29.8,29.8,0,0,0,1.32,11.14c1.11,3.52,6.68,2.2,5.6-1.36Z" transform="translate(-221.59 -384.11)"/><path class="cls-15" d="M1107.21,549.31l6.63,2.58c2.2.86,4.49,2.35,6.8,1.21a2.53,2.53,0,0,0,1-3.36c-.87-2.18-4.18-2.73-6.2-3.5l-6.64-2.54a2.92,2.92,0,0,0-3.59,2,3,3,0,0,0,2,3.6Z" transform="translate(-221.59 -384.11)"/><path class="cls-15" d="M1041.38,493.47c-11.55-15.19-11.44-15.31-13.23-16.34a2.55,2.55,0,0,0-3.73,2.76c.55,2.1.49,1.74,12.71,17.68,1,1.27,3.12,1.1,4.18.08a3,3,0,0,0,.07-4.18Z" transform="translate(-221.59 -384.11)"/><path class="cls-15" d="M1071.78,485.31a43.35,43.35,0,0,0,.09-9.39c-.28-2.91-.32-7.4-3.42-8.67a2.18,2.18,0,0,0-2.18.55c-1.94,2.23-.46,5.9-.21,8.58a50.94,50.94,0,0,1,0,8.82,2.89,2.89,0,0,0,2.81,2.91,2.92,2.92,0,0,0,2.91-2.8Z" transform="translate(-221.59 -384.11)"/><path class="cls-15" d="M1115.48,476.84c.16-1.43-1.21-2.39-2.44-2.54-2.54-.3-5,2.72-6.61,4.36a50.29,50.29,0,0,0-5.16,6.21,2.9,2.9,0,0,0,1,3.95,3,3,0,0,0,4-1C1112.45,479.72,1115.09,480.37,1115.48,476.84Z" transform="translate(-221.59 -384.11)"/><polygon class="cls-4" points="1242.67 120.72 1238.81 127.55 1229.4 126.19 1222.78 135.88 1215.09 136.24 1213.69 140.59 1223.96 140.11 1230.24 130.93 1240.03 132.34 1245.84 122.07 1242.67 120.72"/><path class="cls-9" d="M2083.56,788.8c-1.71,7-4.79,18.1-4.79,18.1.25,3,1.14,15.72,2.22,31.27L2058.14,829s.27-25.32-.74-26.87c-.87-1.31-2.31.32-9.32-9.7-2-2.89-2.4-8.06-2.4-8.06s-.41-6.36,1-6.95a3,3,0,0,1,3.58,1.46c.52,1.1.38,3.66.9,4.75s3.82,2.43,5.21,2.36-.17-18.82-.17-18.82-.78-5.31-1.17-7.05c-.34-1.49-1.69-5.83-1.69-5.83s-1.58-6.31.38-6.8c1.15-.28,4.09,4.85,6.11,10.29,2.18,5.86,3.41,12.07,4,12,1.46-.2.68-10.48.68-10.48s-1.45-4.71-1.41-6.93c-1.38-2.72-2.29-7.77.13-8.19.45-.08,3.63,6.34,3.63,6.34s1.25,4.52,2,6.63c1.29,3.72,1.48,9.6,2.16,12.19.56,2.16,1.06,1.27,1.29,1.36s-.13-2.9-.49-7c-.18-2.06.06-4.44-.52-6.78a50.16,50.16,0,0,1-1-7.16c-.39-5.32,3-4.77,4.12.09.44,1.85.9,3.87,1.36,5.92,1.8,8,1.75,15.65,2.61,15.71,1.12.08.38-13.9.38-13.9s1.71-7.73,3.41-.55a62,62,0,0,1,1.74,15.43C2083.79,774.51,2085.26,781.78,2083.56,788.8Z" transform="translate(-221.59 -384.11)"/><path class="cls-2" d="M2082.07,819.43s-25.74-6.16-26-4.1c-5.4,45.29-7.83,61.66-8.75,62.13-3.12,1.61-44.47-36.2-51.85-38.77-3.52-1.22-7.36-1-11-.91-8.77.26-10.5.29-10.5.29l-.32,0,0,8.25c9.89,8.89,32.51,143.57,34.42,143.48,2.12-.1,46.84,11.15,46.05,7.38-.13-.61-30.31-25.31-38.88-61-2.87-12-4.29-24.86-5.85-36.13,9.94,5,48.74,24.07,54.89,21.55C2083.42,913.81,2082.07,819.43,2082.07,819.43Z" transform="translate(-221.59 -384.11)"/><path class="cls-1" d="M2159.08,1058.55s41.6,32.58,43,38.36c2,8.32,40.09-2.62,30.9-4.31-2.11-.39-8.88-2.11-9.43-2.4-3-1.59-40-46.2-40-46.2Z" transform="translate(-221.59 -384.11)"/><path class="cls-10" d="M2250.84,1092.6l-26.56-2.16s-7.6,6.28-22.19,6.57a34,34,0,0,0-1.22,14.46c.19,1.34.41,5.41,1.77,5.32,4.91-.34,18-3.59,32.88-6.57,0,0,20-4.24,31.58-11.16S2250.84,1092.6,2250.84,1092.6Z" transform="translate(-221.59 -384.11)"/><path class="cls-5" d="M1972.67,976.8a181.89,181.89,0,0,0,64.16-2.76c39-9.12,82.1-17.55,94.73-10.21,10.16,5.91,73.65,101.85,73.65,101.85l-24.51,17.89-69.91-78.28s-89.19,32.91-109.22,29.26C1956,1026.24,1955.3,989.81,1972.67,976.8Z" transform="translate(-221.59 -384.11)"/><polygon class="cls-5" points="1784.39 573.33 1814.87 609.56 1758.32 626.79 1751.08 592.69 1784.39 573.33"/><path class="cls-1" d="M2067.92,1122.91s-3.09,49.22-4.24,57.74,22.6,35.13,19.72,26.24c-.66-2-2.36-8.81-2.37-9.44,0-3.37,8.34-60.77,8.34-60.77Z" transform="translate(-221.59 -384.11)"/><path class="cls-10" d="M2097.79,1225.23l-16.62-27s-10.3-4.86-17.49-17.56a59.26,59.26,0,0,0-12.14,7c-1.09.81-8.53,6.25-8,7.51,1.91,4.62,12,14.51,23.12,25.32,0,0,15.7,12.67,27.28,19.56S2097.79,1225.23,2097.79,1225.23Z" transform="translate(-221.59 -384.11)"/><path class="cls-3" d="M2117.3,1023.71c-10.65-14.21-96.63-27.7-96.63-27.7l-24-46.08-53,32.69s5.3,42.19,9.27,53.46c5.31,15,40.93,15.78,62.69,15.56,20-.21,56.59,3.88,56.59,3.88l-12.37,109.11s24.31,5.54,31.15,4.64C2091.79,1169.17,2130.56,1041.38,2117.3,1023.71Z" transform="translate(-221.59 -384.11)"/><path class="cls-18" d="M1973.91,838.17,1944,839.84s-.68.21-.89.24c-2.44.46-.22,87.62,2,120.17s6.58,46.23,6.58,46.23,40.56-7.2,53-12c5.17-2,17.67-17.64,17.67-17.64s-12.77-17.18-19.21-45.07c-5-21.52-11.08-59.66-14.58-67.62C1980.48,845.84,1973.91,838.17,1973.91,838.17Z" transform="translate(-221.59 -384.11)"/><path class="cls-1" d="M1944.85,813.43l-.85,26.41s19.37,33.36,29.31,28.71c8.34-3.9.93-29.28.93-29.28s-1.44-5.82-3.44-12.5c-1.4-4.67-2.57-9.73-2.48-13.45C1968.53,804.3,1944.85,813.43,1944.85,813.43Z" transform="translate(-221.59 -384.11)"/><path class="cls-7" d="M1968.32,813.32c.21-9-23.47.11-23.47.11l-.08,2.58a13.44,13.44,0,0,0,2.64,3,32.58,32.58,0,0,0,23.06,6.64C1969.22,821.3,1968.24,816.74,1968.32,813.32Z" transform="translate(-221.59 -384.11)"/><path class="cls-8" d="M1968,753.2s9.86,14.87,10.6,27.39a65,65,0,0,1-1.92,21.06L1945,763.8Z" transform="translate(-221.59 -384.11)"/><path class="cls-15" d="M1981.87,778c.44,4.38-1.26,8.14-3.81,8.4s-5-3.08-5.42-7.46,1.26-8.15,3.81-8.41S1981.42,773.64,1981.87,778Z" transform="translate(-221.59 -384.11)"/><path class="cls-1" d="M1934.77,769.86c-.73-.15-.66,36.28,9.9,44.86s28.95,9.32,34.31.69c5.94-9.55.29-47.94-15.41-56.1S1934.77,769.86,1934.77,769.86Z" transform="translate(-221.59 -384.11)"/><path class="cls-8" d="M1932.09,747.27c-8.06,7.07-12,12.23-17.42,24.8-6.71,15.45,6.6,31.46,17.76,37.82S1944.52,824,1944.52,824l.46-4.74a11.82,11.82,0,0,0-.15-4.36,20.43,20.43,0,0,0-1.58-3.85c-1-2-4-9-5.19-10.83-3.15-4.84-3.76-5.89-2.21-10.49,1.19-3.54-.19-11.35,1.65-17.19l15-3.24s9.4-2.26,14.15-7.73C1980.3,745.79,1953.35,728.26,1932.09,747.27Z" transform="translate(-221.59 -384.11)"/><path class="cls-1" d="M1939.42,793.67c1.85,4,1.46,8.11-.86,9.19s-5.71-1.3-7.56-5.3-1.46-8.11.86-9.18S1937.57,789.67,1939.42,793.67Z" transform="translate(-221.59 -384.11)"/><path class="cls-9" d="M1837.07,693.16c1.71,7,4.79,18.1,4.79,18.1-.25,3-1.15,15.73-2.22,31.27l22.85-9.14s-.28-25.33.74-26.88c.87-1.31,2.31.33,9.32-9.69,2-2.89,2.4-8.06,2.4-8.06s.41-6.36-1-7a3,3,0,0,0-3.58,1.45c-.52,1.1-.38,3.66-.9,4.76s-3.82,2.42-5.21,2.36.17-18.82.17-18.82.78-5.32,1.17-7.06c.34-1.48,1.69-5.83,1.69-5.83s1.58-6.31-.38-6.79c-1.15-.28-4.1,4.84-6.11,10.28-2.18,5.86-3.41,12.08-4,12-1.46-.19-.68-10.47-.68-10.47s1.45-4.71,1.41-6.93c1.38-2.73,2.29-7.78-.13-8.19-.45-.08-3.63,6.33-3.63,6.33s-1.25,4.52-2,6.63c-1.29,3.73-1.49,9.61-2.16,12.2-.56,2.16-1.06,1.27-1.29,1.36s.13-2.91.49-7c.18-2.06-.06-4.44.52-6.79a50.16,50.16,0,0,0,1-7.16c.39-5.31-3-4.77-4.12.09-.44,1.85-.9,3.88-1.36,5.92-1.8,8-1.75,15.65-2.61,15.72-1.11.08-.38-13.9-.38-13.9s-1.71-7.74-3.41-.56a62,62,0,0,0-1.74,15.43C1836.84,678.88,1835.37,686.15,1837.07,693.16Z" transform="translate(-221.59 -384.11)"/><path class="cls-2" d="M1944,839.84s-29.65-1.38-37.3-4.85c-4.64-2.09-42.74-32.8-42.74-32.8l.43-82.2-26.8-2s-13.89,90.85-9.08,100.8c5,10.27,60.74,52.55,71.9,70.9,6.42,10.57,19.82,154.33,21.85,155.62,14.43,7.51,59,15,58,10.46C1951.2,929.83,1944,839.84,1944,839.84Z" transform="translate(-221.59 -384.11)"/><path class="cls-13" d="M2385.23,443.62c-96.4-44.34-237.4,11.63-263.33,68-13,28.19-5.17,62.7,17.92,95.71l-105.18,105.6,139.88-67.22c20.67,18.32,46.05,35,75,48.29,96.41,44.34,195.58,34.57,221.51-21.81S2481.64,488,2385.23,443.62Z" transform="translate(-221.59 -384.11)"/><path class="cls-7" d="M2291.42,535.42c-6.85,28.58-28.51,39.17-48.27,34.44-20.8-5-33.47-24.47-27.33-50.11,5.85-24.39,25.2-39.31,48.53-33.72C2287.9,491.68,2297,512.08,2291.42,535.42Zm-51.64-10.82c-3.43,14.29-1.06,25.75,8.19,28,9,2.16,15.67-6,19.34-21.37,3.33-13.88,2.11-25.5-7.77-27.87C2250.08,501.06,2243.05,510.93,2239.78,524.6Zm.14,93.25,100.39-109.52a7.73,7.73,0,0,1,7.51-2.29h0a7.74,7.74,0,0,1,3.9,12.76L2251.2,628.2a7.66,7.66,0,0,1-7.42,2.27h0A7.66,7.66,0,0,1,2239.92,617.85Zm136.27-2.11c-6.86,28.59-28.51,39.18-48.27,34.45-20.6-4.94-33.26-24.42-27.33-50.12,5.85-24.38,25.2-39.3,48.53-33.71C2372.67,572,2381.78,592.41,2376.19,615.74ZM2324.76,605c-3.64,14.25-1.27,25.7,8,27.92,9,2.17,15.67-6,19.34-21.37,3.33-13.87,2.32-25.45-7.56-27.81C2334.85,581.39,2328,591.31,2324.76,605Z" transform="translate(-221.59 -384.11)"/><path class="cls-13" d="M673.33,815.34s17.77-3.73,34.83,4,32,24.77,32,24.77l-22.6,17S718.74,833.54,673.33,815.34Z" transform="translate(-221.59 -384.11)"/><path class="cls-11" d="M673.27,829.28l-3.57-15L680,802.85a2.12,2.12,0,0,0-1.4-3.53l-15.36-1.24-7.69-13.36a2.12,2.12,0,0,0-3.79.24l-5.93,14.23-15.08,3.19a2.12,2.12,0,0,0-.94,3.68l11.7,10-1.63,15.33a2.12,2.12,0,0,0,3.21,2l13.16-8,14.07,6.29A2.13,2.13,0,0,0,673.27,829.28Z" transform="translate(-221.59 -384.11)"/><path class="cls-13" d="M1570.2,497.67c35.46,6.61,60.92,29.62,56.86,51.4-2,10.89-11,19.42-24,24.39l8.41,34.8-25.64-30.61a99.37,99.37,0,0,1-30.32-1.09c-35.46-6.61-60.92-29.62-56.87-51.4S1534.74,491.07,1570.2,497.67Z" transform="translate(-221.59 -384.11)"/><path class="cls-11" d="M1586.43,545.54a22.76,22.76,0,1,1-10.66-30.37A22.75,22.75,0,0,1,1586.43,545.54Z" transform="translate(-221.59 -384.11)"/><path class="cls-17" d="M1553.39,533.67a12.17,12.17,0,1,0,21.94,10.54Z" transform="translate(-221.59 -384.11)"/><rect class="cls-19" x="521.17" y="652.3" width="1320.92" height="628.05" rx="88.59"/><rect class="cls-11" x="1126.95" y="729.06" width="552.55" height="1242.74" rx="47.58" transform="translate(2532.06 -436.9) rotate(90)"/><ellipse class="cls-13" cx="1220.17" cy="945.89" rx="459.57" ry="232.97"/><path class="cls-20" d="M1275.21,1388.69c-9.41,1.79-47,50.44-47,50.44l-1.33,3.37s68-7.31,70.48-10.12C1304,1424.8,1282.94,1387.22,1275.21,1388.69Zm-46.53,51.48c12.41-15.32,40.69-37.69,46.8-42.45,5.46,5.38,13.68,21.25,14.77,28.42C1282.43,1427.69,1248.53,1437.85,1228.68,1440.17Z" transform="translate(-221.59 -384.11)"/><path class="cls-20" d="M1184.1,1397c-18.51-11.66-23.59-11.57-29-8.62s-25.27,30.5-16.39,39.09,79.37,14.72,79.37,14.72l1.59-4.16S1202.6,1408.65,1184.1,1397ZM1151,1424.44c-4.11-4,6.12-20.45,10.79-24,1.19-.65,48.61,28.5,55.22,38.45C1190.53,1436.16,1154.81,1427.73,1151,1424.44Z" transform="translate(-221.59 -384.11)"/><path class="cls-20" d="M1218.67,1455.1h4a7,7,0,0,0,7.12-6.87V1437a7,7,0,0,0-7.12-6.87h-4a7,7,0,0,0-7.12,6.87v11.27A7,7,0,0,0,1218.67,1455.1Z" transform="translate(-221.59 -384.11)"/><path class="cls-10" d="M1369,1442.7l-322.44-.93c-8.58,0-15.16,7.35-13.87,15.55l5,31.77,16.16,0L1063.6,1649a16.52,16.52,0,0,0,16.73,15.24h257.36l10.7-175.74,15.23,0Z" transform="translate(-221.59 -384.11)"/><path class="cls-19" d="M1343.19,1664.21H1145.65L1135.07,1446h234.7l-9.84,203C1359.52,1657.52,1352.15,1664.21,1343.19,1664.21Z" transform="translate(-221.59 -384.11)"/><path class="cls-15" d="M1379.47,1488.55l-254.8.65-5.81-47.34,249.6.92c8.19,0,14.61,6.83,13.88,14.72Z" transform="translate(-221.59 -384.11)"/><polygon class="cls-10" points="903.08 1105.09 1146.1 1104.44 910.79 1116.85 903.08 1105.09"/><rect class="cls-20" x="998.7" y="1058.12" width="6.76" height="46.76"/><rect class="cls-20" x="1018.31" y="1104.66" width="8.45" height="175.77"/><rect class="cls-19" x="601.28" y="953.18" width="261.46" height="326.9"/><rect class="cls-11" x="633.29" y="953.18" width="9.47" height="326.9"/><rect class="cls-11" x="661.23" y="953.18" width="9.47" height="326.9"/><rect class="cls-11" x="689.18" y="953.18" width="9.47" height="326.9"/><rect class="cls-11" x="717.13" y="953.18" width="9.47" height="326.9"/><rect class="cls-11" x="745.08" y="953.18" width="9.47" height="326.9"/><rect class="cls-11" x="773.03" y="953.18" width="9.47" height="326.9"/><rect class="cls-11" x="800.98" y="953.18" width="9.47" height="326.9"/><rect class="cls-11" x="828.93" y="953.18" width="9.47" height="326.9"/><rect class="cls-11" x="601.28" y="953.17" width="261.43" height="13.48"/><path class="cls-6" d="M999.25,1225.56c-11.58,2.88-54.73,66-54.73,66l-1.39,4.29s84.08-13.83,86.94-17.5C1037.78,1268.49,1008.76,1223.19,999.25,1225.56Zm-54.06,67.29c14.3-19.93,47.82-49.73,55.07-56.07,7.19,6.31,18.61,25.48,20.49,34.33C1011.14,1273.58,969.71,1288.58,945.19,1292.85Z" transform="translate(-221.59 -384.11)"/><path class="cls-6" d="M886.49,1242.24c-23.9-13.22-30.21-12.75-36.7-8.7s-29.17,39.71-17.47,49.78,99.86,12.78,99.86,12.78l1.67-5.29S910.38,1255.45,886.49,1242.24Zm-39.16,36.45c-5.41-4.63,6.09-25.87,11.63-30.56,1.44-.89,62.62,32.07,71.6,44C897.42,1290.52,852.34,1282.51,847.33,1278.69Z" transform="translate(-221.59 -384.11)"/><path class="cls-6" d="M933.85,1312.13l4.93-.27a8.7,8.7,0,0,0,8.35-9l-.85-14a8.76,8.76,0,0,0-9.37-8.06L932,1281a8.67,8.67,0,0,0-8.34,9l.84,14A8.76,8.76,0,0,0,933.85,1312.13Z" transform="translate(-221.59 -384.11)"/><rect class="cls-21" x="585.23" y="918.67" width="288.54" height="38.09"/><rect class="cls-14" y="1280.44" width="2261.49" height="14.66" rx="6.6"/><path class="cls-20" d="M2259.93,859.64c-7.93,17.72,6.83,38.16,24.25,42.19,19.25,4.44,40-6.18,48.33-23.88,9.07-19.17,1.88-38.87-16.33-46-17.72-6.94-34.24,5.7-33.94,23.6.21,12.84,9.56,20.44,15.92,18.84,5-1.24,6.62-7.66,1.89-10.32a5.47,5.47,0,0,0-5.89.66c-3.91-3.11-5.68-12.47-.17-20.34,7.05-10,21.34-6.4,28.52,1.46,9.14,10,6.57,24.79-1,34.91-7.91,10.63-22.48,16.47-35.51,13.51a27.93,27.93,0,0,1-20.9-33A2.73,2.73,0,0,0,2259.93,859.64Z" transform="translate(-221.59 -384.11)"/><path class="cls-14" d="M718.25,656c-6,13.54,5.22,29.17,18.53,32.24,14.72,3.4,30.54-4.72,36.94-18.25,6.93-14.64,1.44-29.7-12.48-35.15-13.54-5.3-26.17,4.36-25.94,18,.17,9.81,7.31,15.62,12.17,14.4,3.79-1,5.06-5.86,1.44-7.89a4.18,4.18,0,0,0-4.5.51c-3-2.38-4.34-9.54-.12-15.55,5.38-7.67,16.3-4.89,21.79,1.11,7,7.65,5,19-.74,26.68-6,8.12-17.17,12.59-27.13,10.32a21.34,21.34,0,0,1-16-25.24A2.08,2.08,0,0,0,718.25,656Z" transform="translate(-221.59 -384.11)"/><path class="cls-5" d="M1904,1151.44c-15-10.85-35-9.89-48,3a38.14,38.14,0,0,0-29.91-.61c-18.51,7.7-32.69,34.17-20.7,51.1,1.38,16,6,29.09,21.45,31.29,6.95,18,34.77,26.58,53.27,13,13.77,6.41,30.19.18,41.64-9.93,2.71-2.39,5.25-6.37,6.22-6.81,0,0,37.92-2,39.21-38.31C1968.58,1156.19,1932.93,1125.23,1904,1151.44Z" transform="translate(-221.59 -384.11)"/><path class="cls-15" d="M1704.25,1582a212.69,212.69,0,0,0,.13,33.14c.11.86,2.34,4.49,2.48,5.38-6.5,18.61-21,26.8-34,31.94,4.84-9,12.93-18.57,12.8-20.88a291.77,291.77,0,0,0-4.35-42.25C1690.68,1590.69,1695.39,1585.79,1704.25,1582Z" transform="translate(-221.59 -384.11)"/><path class="cls-3" d="M1779.73,1354.57l51.51,54.08s-32.71,24.83-45,34-72,40.4-73.25,42.73c-.26.46,1.86,6.68,1.81,14.07-.16,20-2.41,58.58-5.86,91.49-7,5.68-20.65,5.48-28.93,6.48-14.49-42.86-11.57-121.15-10.27-130.43C1671.88,1451.93,1779.73,1354.57,1779.73,1354.57Z" transform="translate(-221.59 -384.11)"/><path class="cls-15" d="M1934.46,1477.77c-2.45,1.15-23,20.94-32.22,32.23-5.07-6.88-7.21-13.61-13.56-19.35,9-6.65,28-23.66,30.78-28.38,6.53-11.2,9.78-12,9.78-12s33.63,28.23,34.83,33S1944.29,1473.14,1934.46,1477.77Z" transform="translate(-221.59 -384.11)"/><path class="cls-8" d="M1918.06,1464.77c-3-1.12,5.32-14,7.17-17,2.08-3.37,4.5-3.7,5-3.64,1.5.16,38.87,31.53,44.16,39.72a10,10,0,0,1,.85,2.37c1.2,9.24-34.62-2.64-38.49-8C1933.36,1473.5,1931.51,1469.82,1918.06,1464.77Z" transform="translate(-221.59 -384.11)"/><path class="cls-4" d="M1765.46,1366.42l53.56-14.29c-.22.07,0,2.2,0,2.36,2,20,28.39,16.06,34.15,51,4.07,24.71-10.34,104-10.34,104s26-14.21,53.24-29.42c2.49-1.39,17.73,20.74,17.73,20.74-41.25,52.37-96.49,67.44-102.78,64-21.49-11.89-35.36-168.55-35.31-168.53C1772.55,1386.57,1765.46,1366.42,1765.46,1366.42Z" transform="translate(-221.59 -384.11)"/><path class="cls-15" d="M1864.47,1249s63.94-4.38,78.06-4.5,64.51-9.35,66.45-9.77,12.78-24.69,15.18-22.43-6.16,12.11-3,14.16,33.89-6.11,33.7-3.66c-.35,4.59-18.63,5.74-18.41,7.92s19-3,20.6.47-18.2,3.21-18.83,4.9,18.64,2.85,17,6.4c-.88,1.93-17.12-1.46-16.8,1s12.35,7.07,11.13,9.18-9.61-5.23-16.29-4.7-11.82-2.66-22.18,1.4-45.25,22.81-68.1,23.84-73.31,3.43-73.31,3.43Z" transform="translate(-221.59 -384.11)"/><path class="cls-15" d="M1793.52,1233s-15.93-62.08-20.24-75.52-11.39-64.18-11.6-66.17,19.43-19.89,16.52-21.45-9.55,9.65-12.48,7.32-4.84-34.09-7.11-33.14c-4.25,1.77.4,19.49-1.74,20s-3.08-19-6.92-19.42,2.67,18.29,1.26,19.42-8.56-16.8-11.42-14.14c-1.55,1.44,6.76,15.79,4.31,16.27s-10.59-9.51-12.22-7.68,8,7.47,9.58,14,6.24,10.38,5.64,21.5-7.45,50.12-1.25,72.13,19.77,70.68,19.77,70.68Z" transform="translate(-221.59 -384.11)"/><path class="cls-16" d="M1765.51,1301.39c.67-11.06,3.33-40.77,4.31-44.34-1.58-11.8-10.77-30.25-12.53-35.35,0,0,18.26-16.36,29.86-14.58,0,0,10.08,18,18.55,24.32.14,0,3,1.9,4.41,2.08,8.87,1.17,40,4.52,45.47,7.13l-10.25,49.51c-2.07,2.63-12.12,59.81-16.2,64.06s-56.91,18.82-64.39,12.11C1764.44,1366.07,1764.17,1323.74,1765.51,1301.39Z" transform="translate(-221.59 -384.11)"/><path class="cls-16" d="M1839.69,1239.22c1.49-.5,4.86-.82,9.62-.23,14.07,1.71,37.79,4.43,37.79,4.43s1.57,30.87-4.1,37.44c0,0-37.74.58-37.13,3.9Z" transform="translate(-221.59 -384.11)"/><path class="cls-15" d="M1832.87,1217.94s-5.63,16.89-5.94,23.81-6.48,28.54-20.35,26.68,1.29-28.39,3.53-34.91,5.45-27.22,5.45-27.22Z" transform="translate(-221.59 -384.11)"/><path class="cls-7" d="M1813.82,1216.67c1-5.65,1.74-10.37,1.74-10.37l17.31,11.64s-1.15,3.45-2.44,7.88C1822.06,1226.39,1816.61,1222.42,1813.82,1216.67Z" transform="translate(-221.59 -384.11)"/><path class="cls-15" d="M1846.35,1171a24,24,0,0,1,7.94,14.51c1.35,9.36-4.87,32.15-24.14,35.17s-24.71-16.48-18.9-30.32S1827.9,1159.53,1846.35,1171Z" transform="translate(-221.59 -384.11)"/><path class="cls-15" d="M1809.72,1184.51c-.18,3.91,1.45,7.14,3.63,7.22s4.09-3,4.27-6.93-1.45-7.14-3.63-7.22S1809.9,1180.6,1809.72,1184.51Z" transform="translate(-221.59 -384.11)"/><path class="cls-8" d="M1704.4,1615.63c1.91-2.69,11,9.95,13.18,12.62,2.49,3,2.08,5.51,1.87,6-.58,1.42-39.58,31.29-49.48,34.2a4.82,4.82,0,0,1-3.09-.5c-4.26-3.19,11.43-32,19.25-36.41C1691.18,1628.72,1695.81,1627.73,1704.4,1615.63Z" transform="translate(-221.59 -384.11)"/><path class="cls-5" d="M1844.34,1169.57s-.26,26.35,7.09,32.14,2.4,16.81,2.4,16.81,11-25.65,5.86-35.1S1844.34,1169.57,1844.34,1169.57Z" transform="translate(-221.59 -384.11)"/><path class="cls-15" d="M1846.17,1204.77c-2.64,3.07-3.19,7-1.22,8.89s5.7.84,8.35-2.23,3.19-7,1.22-8.89S1848.82,1201.7,1846.17,1204.77Z" transform="translate(-221.59 -384.11)"/><path class="cls-15" d="M772.83,1052.65c-1.58,6.52-4.45,16.82-4.45,16.82.23,2.83,1.07,14.62,2.06,29.07l-21.23-8.5s.25-23.54-.69-25c-.81-1.22-2.15.3-8.66-9-1.88-2.69-2.23-7.5-2.23-7.5s-.39-5.91.94-6.46a2.75,2.75,0,0,1,3.33,1.36c.48,1,.36,3.4.84,4.42s3.55,2.25,4.84,2.19-.16-17.49-.16-17.49-.72-4.94-1.09-6.56c-.31-1.38-1.56-5.42-1.56-5.42s-1.48-5.86.35-6.31c1.07-.27,3.8,4.5,5.68,9.56,2,5.44,3.16,11.22,3.74,11.14,1.36-.18.64-9.74.64-9.74a30.74,30.74,0,0,1-1.32-6.44c-1.28-2.53-2.12-7.22.13-7.61.41-.07,3.37,5.89,3.37,5.89s1.16,4.2,1.84,6.16c1.2,3.46,1.38,8.93,2,11.34.52,2,1,1.18,1.21,1.26s-.13-2.7-.46-6.5c-.17-1.91,0-4.12-.48-6.3a45.64,45.64,0,0,1-.91-6.66c-.36-4.94,2.75-4.43,3.82.09.41,1.72.84,3.6,1.27,5.5,1.67,7.41,1.63,14.54,2.43,14.6,1,.08.35-12.91.35-12.91s1.59-7.2,3.17-.52a58.16,58.16,0,0,1,1.62,14.34C773.05,1039.37,774.42,1046.13,772.83,1052.65Z" transform="translate(-221.59 -384.11)"/><path class="cls-15" d="M547.46,1035.48c1.59,6.52,4.45,16.82,4.45,16.82-.22,2.83-1.06,14.62-2.06,29.06l21.24-8.49s-.26-23.54.69-25c.8-1.22,2.15.3,8.66-9,1.87-2.68,2.23-7.49,2.23-7.49s.38-5.91-.94-6.46a2.77,2.77,0,0,0-3.34,1.35c-.48,1-.35,3.4-.83,4.43s-3.56,2.25-4.85,2.19.16-17.49.16-17.49.72-4.94,1.09-6.56c.31-1.38,1.57-5.42,1.57-5.42s1.47-5.86-.35-6.31c-1.07-.27-3.81,4.5-5.68,9.55-2,5.45-3.17,11.22-3.75,11.15-1.35-.19-.63-9.74-.63-9.74a30.41,30.41,0,0,0,1.31-6.44c1.28-2.53,2.13-7.22-.12-7.61-.41-.07-3.37,5.89-3.37,5.89s-1.17,4.2-1.85,6.16c-1.19,3.46-1.37,8.93-2,11.34-.52,2-1,1.18-1.2,1.26s.12-2.7.46-6.5c.16-1.92-.06-4.12.48-6.3a47,47,0,0,0,.91-6.66c.36-4.94-2.75-4.43-3.83.08-.41,1.72-.84,3.6-1.27,5.51-1.67,7.41-1.62,14.54-2.42,14.6-1,.08-.35-12.92-.35-12.92s-1.59-7.19-3.18-.51a57.86,57.86,0,0,0-1.61,14.34C547.24,1022.2,545.88,1029,547.46,1035.48Z" transform="translate(-221.59 -384.11)"/><path class="cls-22" d="M680,1112s-10.81-11.39-19.5,2.47c0,0-6.69-3.76-11.39,2.93,0,0-12.1-3.64-15,14.45,0,0-6.22-1.17-7,6.23a18.3,18.3,0,0,0,2.94,12.33s-3.5,2.62-1.91,9.43a8.44,8.44,0,0,0,6.14,6.67s1.29,9.74,5.52,12.68,10,1.53,10,1.53,1.53,5.28,6.47,4.81,11-5.16,16.56-3,19.85-.12,19.85-.12,16.09-7.16,11.28-23.61c0,0,8.45-7.63,1.05-16.8,0,0,5.41-14.33-5.28-22.78S680,1112,680,1112Z" transform="translate(-221.59 -384.11)"/><path class="cls-15" d="M605.54,1589.32s-11.77,14.59-14.7,16.39,1.31,23,9.29,24.39c4.51.79,7-4.17,7-4.17l-1.29-6.11,16.82-17.33Z" transform="translate(-221.59 -384.11)"/><path class="cls-15" d="M666.19,1592.92s-9.81,16-12.49,18.14,4.24,22.65,12.34,23c4.57.2,6.42-5,6.42-5l-2.07-5.89,14.47-19.34Z" transform="translate(-221.59 -384.11)"/><path class="cls-22" d="M654.29,1610.43a124.72,124.72,0,0,0,8.71,10,103.74,103.74,0,0,0,9.06,7.3s5.76,10.45,7.33,14.1c3.5,8.12,7.44,17.16,6.87,21.71-.18,1.46-3.46,3-6.19,2.16-11.37-3.49-40.45-30.09-44.12-37.23C631.71,1620.28,654.29,1610.43,654.29,1610.43Z" transform="translate(-221.59 -384.11)"/><path class="cls-10" d="M737.29,1367c-1.06-3-2.07-5.69-3-8.26-12.09,2.64-25.75,5.54-39.81,8.54l-1.71,51.51c0-4,10.57,82.16,10.57,82.16s-27.31,60.46-46,95.7c7.66,9.57,11.26,12.65,22.36,19.17,29-34.76,66.94-98.36,68.52-108.93C749.08,1500.82,749.9,1402.49,737.29,1367Z" transform="translate(-221.59 -384.11)"/><path class="cls-7" d="M629.33,1381.92c3.7,40.14,11.91,116.87,11.23,123-2.06,7.7-38.62,78.71-45.19,89,5.22,7.87,13.31,16.38,22,18.72,1.72.47,62-85.37,65.33-92.18,3.72-7.7,9.91-49.72,10-101.73l1.71-51.51C671,1372.29,649.49,1377.18,629.33,1381.92Z" transform="translate(-221.59 -384.11)"/><path class="cls-14" d="M706.23,1199l-27.57,3.78s-22.09.55-24.82.55-20.05,100.54-25.06,138.38-1.13,44.54-1.13,44.54,35,7.86,60.8,5.57c26.89-2.39,57.13-16.9,57.13-16.9s-23-72.72-27.53-95.42S706.23,1199,706.23,1199Z" transform="translate(-221.59 -384.11)"/><path class="cls-5" d="M773.06,1077.15s1.77,75-1.06,80.7c-4.11,8.34-50.39,67.49-50.39,67.49s22.11,92.52,31.4,124.47c.94,3.22,5.08,24,5.08,26,0,4.49-19.56,10.19-21.88,9.86-2.08-.31-19.14-88.32-30-131.38a123.18,123.18,0,0,0-18.68-40.7l-7.58-10.76,58.15-58.28s7.16-64.87,7.16-70.25C745.22,1072.92,770.24,1071.87,773.06,1077.15Z" transform="translate(-221.59 -384.11)"/><path class="cls-5" d="M654.84,1203.14l-72.51-73.88s-10.1-69.86-10.82-72.49-18.71-4-26-4.69c-2.33-.23,1.22,74.41,4.69,86.92,4.1,14.78,58.9,82.12,58.9,82.12s9.83,36.47,7.46,63.23c-3.93,44.43-14.52,105.56-12.62,107.48,11.78,7.42,57,8.21,59.87,3.6C695.45,1344.53,654.84,1203.14,654.84,1203.14Z" transform="translate(-221.59 -384.11)"/><path class="cls-15" d="M678.14,1189.34l2,14.51s4.38,20.91-1.25,24.94-24-25.54-24-25.54l1.94-36.77Z" transform="translate(-221.59 -384.11)"/><path class="cls-7" d="M656.17,1178.4c4.66,12.54,15.75,20.25,23.62,23.24l-1.65-12.3-21.34-22.86Z" transform="translate(-221.59 -384.11)"/><path class="cls-22" d="M626.79,1141.48c0,5.61,3.19,10.15,7.12,10.15s7.11-4.54,7.11-10.15-3.18-10.14-7.11-10.14S626.79,1135.88,626.79,1141.48Z" transform="translate(-221.59 -384.11)"/><path class="cls-22" d="M648.14,1119.69c0,3.21,3.87,5.82,8.65,5.82s8.66-2.61,8.66-5.82-3.88-5.83-8.66-5.83S648.14,1116.47,648.14,1119.69Z" transform="translate(-221.59 -384.11)"/><path class="cls-15" d="M669.83,1127.84a19.39,19.39,0,0,1,25.38,15.46,146.66,146.66,0,0,1,1.57,18.62c.31,16.95-8.46,33.45-16.16,33.45s-29-11-29.74-35C650.4,1145.47,657.82,1132,669.83,1127.84Z" transform="translate(-221.59 -384.11)"/><path class="cls-15" d="M656.55,1162.23c0,3.74-2.48,6.77-5.54,6.77s-5.53-3-5.53-6.77,2.47-6.77,5.53-6.77S656.55,1158.49,656.55,1162.23Z" transform="translate(-221.59 -384.11)"/><path class="cls-22" d="M703.17,1119.41c8,6.3,10.74,15.87,6.23,21.37s-14.62,4.87-22.57-1.43-10.74-15.87-6.23-21.38S695.22,1113.11,703.17,1119.41Z" transform="translate(-221.59 -384.11)"/><path class="cls-22" d="M682.39,1124.57c0,2.74-3.31,5-7.39,5s-7.38-2.22-7.38-5,3.31-5,7.38-5S682.39,1121.83,682.39,1124.57Z" transform="translate(-221.59 -384.11)"/><path class="cls-22" d="M704.35,1145.64a6.3,6.3,0,1,1-6.3-6.38A6.33,6.33,0,0,1,704.35,1145.64Z" transform="translate(-221.59 -384.11)"/><path class="cls-22" d="M591.5,1605.16a122.93,122.93,0,0,0,7.36,11.08,102.49,102.49,0,0,0,8,8.4s4.37,11.1,5.47,14.92c2.43,8.5,5.19,18.76,4,23.19-.36,1.43-3.5,4.15-6.08,2.46-10-6.49-36.61-36.9-39.34-44.45C567.85,1612.05,591.5,1605.16,591.5,1605.16Z" transform="translate(-221.59 -384.11)"/></svg>