<?xml version="1.0" encoding="utf-8"?>
<!-- Generator: Adobe Illustrator 25.3.0, SVG Export Plug-In . SVG Version: 6.00 Build 0)  -->
<svg version="1.1" id="Слой_1" xmlns="http://www.w3.org/2000/svg" xmlns:xlink="http://www.w3.org/1999/xlink" x="0px" y="0px"
	 viewBox="0 0 3200 2000" style="enable-background:new 0 0 3200 2000;" xml:space="preserve">
<style type="text/css">
	.st0{fill:#EBF3FA;}
	.st1{fill:#DFEBFD;}
	.st2{fill:#CDE0FB;}
	.st3{fill:#FFB27D;}
	.st4{fill:#233862;}
	.st5{fill:#E8945B;}
	.st6{fill:#163560;}
	.st7{fill:#1C468A;}
	.st8{fill:#F99746;}
	.st9{fill:#F1A34F;}
	.st10{fill:#D86713;}
	.st11{fill:#D9935C;}
	.st12{fill:#466AA5;}
	.st13{fill:#FFFFFF;}
	.st14{fill:#9EC3F6;}
	.st15{fill:#699FF0;}
	.st16{fill:#F4A269;}
	.st17{fill:#C65447;}
	.st18{fill:#EF7E29;}
	.st19{fill:#B5453C;}
	.st20{fill:#2B478B;}
	.st21{fill:#9E332E;}
	.st22{fill:#EA9963;}
	.st23{fill:#ED7D2B;}
	.st24{fill:#4A75CB;}
	.st25{fill:#ED975D;}
	.st26{fill:#2E3552;}
	.st27{fill:#EBF3FF;}
</style>
<g>
	<path class="st0" d="M3023.8,1599.6l-539.9-1.3l-247-0.6l-53-0.1l-192.3-0.5l-234.4-0.6l-203.2-0.5l-11.5,0l-53.6-0.1l-470.1-1.2
		l-236-0.6l-22.3-0.1l-129.3-0.3l-337-0.8c0,0-418-791.2,147.1-1084.2c728-377.4,1247.1,166.3,1525.9,145.7
		C2377.4,624.1,3180,394.8,3023.8,1599.6z"/>
	<g>
		<path class="st1" d="M2163.7,960.7c0,0,138.8-211.9,198.2-184.2C2421.3,804.3,2163.7,960.7,2163.7,960.7z"/>
		<path class="st1" d="M2158.4,996.5c0,0,297.5-226.9,394.6-166.7c97.1,60.2-75,90.4-140,96.4
			C2348.1,932.1,2158.4,996.5,2158.4,996.5z"/>
		<path class="st1" d="M2135.9,963.3c0,0-0.4-8.7-1.1-21.5c-1.5-24.9-4.2-65-7.8-85.4c-5.5-30.9,13.9-58.2,48.1-33.5
			c34.2,24.7-30.8,129.7-30.8,129.7L2135.9,963.3z"/>
	</g>
	<path class="st2" d="M1132.9,1594.2l-135.6-0.4c-4.3-0.7-8.5-0.6-12.8,0l-74.3-0.2c-26.5-19.7-30.6-79.3-30.6-79.3
		c22.3,15.8,71.2,16.7,75.7,8.7c4.5-8-61.6-28.7-71-34.6c-9.4-5.9-20.6-32.3,3.9-69.7s89.6-1.9,89.6-1.9s23.5,87.2,36.6,93.4
		c13.1,6.2-5.5-78.5-5.5-78.5c27.3,6.1,84.2,60.7,84.2,60.7s-31.7,82.3-17.5,85.1c14.2,2.8,24.4-74.3,24.4-74.3
		c23.1,16.1,37.2,53.8,37.2,53.8C1140.8,1572.2,1138.4,1584.4,1132.9,1594.2z"/>
	<path class="st1" d="M488.6,660.4c34-58.5,135.2-10.1,135.2-10.1s42.6,129.8,62.9,138.1c20.3,8.3-14.7-118.1-14.7-118.1
		c41.8,7,132.2,84.9,132.2,84.9s-41.2,127-19.5,130c21.7,3,30.7-114.3,30.7-114.3c36.2,22.4,60.7,78.3,60.7,78.3
		c25.9,87.3-87.5,116-87.5,116s-13.3,44.3,0.5,103l0,0c0,0,3.7,11.1,5.7,28.9l-10.7-2.9c-0.1-3.1-0.3-6.2-0.7-9.1c0,0,0,0,0-0.1
		c0,0,0-0.1,0-0.1c-0.3-1.9-0.7-4.5-1.3-7.7c0,0,0,0,0,0c0,0,0,0,0,0c-1.6-7.3-2.5-12.7-3-16.5c0,0,0,0,0,0
		c-4.4-22.8-11.5-52.9-19.5-61c0,0,1.6-1.4,3.6-4.3c-1.2,1.4-2.4,2.8-3.6,4.3c-29,34.5-122.7,16.3-171.2-8
		c-48.4-24.3-22.2-32.7,11.7-48.8c33.9-16,90.1,5.7,109.6,1.1c19.6-4.6-2.9-20.5-37.8-27.1c-34.9-6.6-61.1,23-117.7,13.4
		c-56.6-9.6-70.7-124.7-70.7-124.7c34.9,22.1,108.9,19.4,115.1,7c6.2-12.4-95.4-38.3-110.1-46.5
		C473.7,757.8,454.6,718.9,488.6,660.4z"/>
	<path class="st1" d="M1271.1,957c39.5-54.5,134.8,3.5,134.8,3.5s29.2,132.7,48.4,142.9s-2.8-118.3-2.8-118.3
		c40.7,11.1,122.3,97.2,122.3,97.2s-53.5,121.6-32.3,126.7c21.2,5.2,41.8-110,41.8-110c33.6,25.8,52.2,83.5,52.2,83.5
		c16.9,88.9-98.2,106-98.2,106s-17.6,42.5-9.8,102l0,0c0,0,2.5,11.4,2.7,29.2l-10.3-3.9c0.2-3.1,0.3-6.1,0.2-9.1c0,0,0,0,0-0.1
		c0,0,0-0.1,0-0.1c-0.1-1.9-0.3-4.5-0.5-7.8c0,0,0,0,0,0c0,0,0,0,0,0c-0.8-7.4-1.2-12.8-1.3-16.6c0,0,0,0,0,0
		c-2.1-23-6.1-53.5-13.2-62.3c0,0,1.8-1.2,4-3.9c-1.3,1.2-2.6,2.5-4,3.9c-32.1,31.2-123.1,3.9-168.6-25
		c-45.5-28.9-18.7-34.6,16.5-47.1c35.1-12.5,88.5,14.6,108.3,12c19.8-2.6-0.9-20.6-34.7-30.6c-33.8-10-62.8,16.7-117.8,1.5
		c-55-15.1-57.5-130.4-57.5-130.4c32.4,25.3,105.8,30.1,113.2,18.4s-90.5-47.4-104.3-57C1246.6,1051.9,1231.6,1011.5,1271.1,957z"/>
	<g>
		<path class="st1" d="M1534.6,1525.8c0,0-14.3,50.3-11.6,69.8l-54.3-0.1c-1.1-11,1.5-23,10.7-35.3
			C1479.5,1560.2,1507.2,1531.4,1534.6,1525.8z"/>
		<path class="st1" d="M1740.5,1596.2l-205.8-0.5c8.1-20.7,10.4-76.9,10.4-76.9s73.3-27.3,100.6-22.1c0,0-50.3,69.8-35.9,69.3
			c14.4-0.5,70.1-70.6,70.1-70.6s73.2-6.7,80.9,37C1767.7,1571.5,1751.7,1591.3,1740.5,1596.2z"/>
	</g>
	<path class="st1" d="M2172.7,1597.3l-194.8-0.5c12.6-5.4,29.1-10.5,46.8-16.5C2069.1,1565.2,2129.5,1586,2172.7,1597.3z"/>
	<path class="st1" d="M2271.7,1598.2l-176.3-0.5c3.7-7.8-18.8-23.8-51.4-33.8c-41.5-12.8-77.4,19.6-144.9,0.1
		c-67.4-19.4-68.8-161.2-68.8-161.2c39.4,31.6,129.6,38.6,138.8,24.3c9.2-14.3-110.6-59.7-127.3-71.6c-16.7-12-34.6-61.9,14.8-128.3
		c49.4-66.4,165.6,6.2,165.6,6.2s33.9,163.6,57.4,176.4c23.5,12.8-1.7-145.5-1.7-145.5c49.8,14.3,148.9,121.3,148.9,121.3
		s-67.5,148.6-41.5,155.3c26,6.7,53.1-134.7,53.1-134.7c40.9,32.2,62.9,103.5,62.9,103.5C2308.6,1550.5,2293.5,1578.7,2271.7,1598.2
		z"/>
	<g>
		<g>
			<g>
				<g>
					<path class="st3" d="M608.3,1142.9c0-0.4-5.4-11.5-3.7-12.3c1.7-0.9,4.8-0.7,5.1,1.2C610.1,1133.7,608.3,1142.9,608.3,1142.9z"
						/>
					<path class="st4" d="M528,1004.7c0,0-31.5-37.9-48.2-13.7c0,0-12.5,5.2-17,26.4c-4.6,21.6,9.8,38.1,17.2,34
						c4.8-2.6,8.4,5.7,8.4,5.7L528,1004.7z"/>
					<path class="st3" d="M567.1,1206.4c25.1-9.2,49.2-52.2,49.2-52.2l-7.9-5.5c-6.6,9.6-36.2,28.1-36.2,28.1
						c-0.7-8.1-1.7-15.5-2.9-22.2c-8.2-45.4-27.1-58.8-32.1-61.6c-0.8-0.5-1.3-0.6-1.3-0.6s0,0.3,0.1,1c0.1,1.4,0.2,4.1,0.5,7.9
						C538.5,1129.3,546.2,1214.1,567.1,1206.4z"/>
					<path class="st4" d="M483.2,987.2c0,0-4.2-17-29.2-11.7c0,0,11.9-1.5,15.2,3.1c0,0-9.5-4.3-15.4-0.7c-5.9,3.6-6.9,15.8-6,19.5
						c0.9,3.7,7.4,14.8,11.8,14.8c4.3,0,9.5-3.8,9.5-3.8L483.2,987.2z"/>
					<path class="st3" d="M445.9,1252.7c12.4-27.8,18.3-35.6,18.5-44.4c0.2-6.9-3.2-14.4-9.9-32.7c-1.6-4.3-2.6-8.7-3.3-13.2
						c-5.2-35.3,15.2-73.4,27.8-76c3.5-0.9,9.5-13.7,9.4-34.2l1.6,0.3l26.7,5.3c0,0-0.6,8.4-0.6,16.3c0,6.6,0.4,12.8,1.9,13.6
						c1.9,0.2,3.1,0.3,3.1,0.3s22.3,30.9,24.1,59.6s-17.8,41.2,0.1,98.7C563.7,1305,439.1,1268.1,445.9,1252.7z"/>
					<path class="st5" d="M516.8,1057.8c0,0-0.6,8.4-0.6,16.3c-14.9-0.4-22.8-14-26.1-21.6L516.8,1057.8z"/>
					<path class="st4" d="M487.4,1049.7c0,0-7.8-12.4-9.7-22.9c-1.3-7.5,2.5-35.5,30.6-31.5c0,0,8.2,0.8,15.8,6
						c6.1,4.1,14.9,13,5.1,37.4l-2.6,8.2L487.4,1049.7z"/>
					<path class="st3" d="M521.8,1065.3c0,0-35.3,0.6-35.4-21.4c0-22-4.6-36.8,18-38.1c22.6-1.3,27,7.1,28.7,14.4
						C534.9,1027.6,531,1064.6,521.8,1065.3z"/>
					<path class="st4" d="M520.5,1005.3c0,0-9.7,25.8-24.5,29.6c-14.8,3.8-21.3-0.2-21.3-0.2s11.4-9,13.8-24.8
						C488.4,1010,513.2,993,520.5,1005.3z"/>
					<path class="st4" d="M518.1,1007.4c0,0,7.2,5.8,9,11.4c1.8,5.6,2.6,17.1,5.9,16.8c0,0,7.3-17.6-0.9-27.5
						C523.4,997.5,518.1,1007.4,518.1,1007.4z"/>
					<path class="st6" d="M477.2,1519.3c8.9,35.4,22.3,62.5,22.3,62.5l11.7-0.8c0,0-5.7-27.2-5.4-63.9c0.2-25.7,3.4-56,13.6-85
						c34.9-99.6,29.2-172,29.2-172l-65.6,7.7l-3.1,0.4c-0.3,30.1-1.1,71-1.7,103c-0.6,28.8-1.1,50.3-1.1,50.3
						C464.4,1448.5,469,1486.8,477.2,1519.3z"/>
					<path class="st3" d="M400,1282.2l10.6,3.2c0,0,35-58.1,38.2-73.2c1-4.9,3.6-14.8,6.6-25.8c6.1-22.8,14.1-50.8,14.1-50.8
						l2.6-11.3l8.9-38.6c0,0-17.1,1.7-27,5.9c-3.3,1.4-5.8,3-6.7,5c-7.3,16.1-14.6,56.8-19.8,85.8c-2.9,16.2-5.1,28.7-6.2,31.4
						C418,1221.2,408.3,1262.1,400,1282.2z"/>
					<path class="st7" d="M439.6,1513.7c3.8,40.2,20.4,66.2,20.4,66.2l5.6,4c0,0,5.3-28.3,9-62.1c3.6-32.1,8.4-66,13.9-76.3
						c21.9-41.1,28.4-196.1,28.4-196.1l-66.5-3.3c-6.7,11.2-9.6,29.7-10.3,50.6c-1.7,52.9,10.7,121.9,12.5,131.8c0,0,0,0,0,0
						c0.1,0.8-0.1,1.5-0.4,2.2C439,1457.2,437.1,1487.1,439.6,1513.7z"/>
					<path class="st4" d="M519.4,1008.3c0,0-6.9,27-25.6,35.7c0,0,18.7-16.6,20.3-34.5C515.7,991.7,519.4,1008.3,519.4,1008.3z"/>
					<path class="st8" d="M437.6,1272.8c-0.1,2.2,0,4,0.4,5.3c1.4,4.5,6.3,6.5,18,5.3c7.2-0.7,10.4-12.8,11.8-23
						c4.3,14.7,10.3,22.9,18.1,24.7c11.4,2.5,68.8,9.5,72.6-17.8c4.1-30-8.2-83.2-8.9-111.9c1.7-10.2,2.3-19,2.1-26.6
						c-0.5-20.4-6.5-31.9-11.1-36.5c-1.3-1-2.6-1.6-7.9-2.5c-2.7-0.5-6.4-1-11.6-1.7c0,0-2.1-0.2-2.1-0.2c1,1.7,14,21.4,13,26.5
						c-1.1,5.3-47.2,0.5-50.4-2.4c-3.2-2.9-8.2-25.2-8.2-25.2s-16.3,1.8-24.3,7.6c0,0,0,0,0.1,0.1c-1,0.7-1.7,1.4-2.1,2.2
						c-8.5,16.2-17,57.2-23,86.4c14.5,8,27.2,5.6,31.1,4.6C450,1221.3,438.3,1257.4,437.6,1272.8z"/>
					<path class="st3" d="M608.5,1148.7c0-1.1-0.9-16.9,1.9-20.2s8.5-8,10.4-7.9c1.8,0.1,8.9,9.5,6.7,16.7
						c-2.1,7.2-11.1,16.9-11.1,16.9L608.5,1148.7z"/>
					<g>
						<path class="st9" d="M595.6,1129.4l16.4,4.9c0.5,0.2,1.1-0.1,1.3-0.7l9.3-31.2c0.2-0.5-0.1-1.1-0.7-1.3l-16.4-4.9
							c-0.5-0.2-1.1,0.1-1.3,0.7l-9.3,31.2C594.7,1128.6,595,1129.2,595.6,1129.4z"/>
						<path class="st10" d="M599.8,1130.7l14.8,4.4c1,0.3,2-0.3,2.3-1.2l8.9-29.7c0.3-1-0.3-2-1.2-2.3l-14.8-4.4
							c-1-0.3-2,0.3-2.3,1.2l-8.9,29.7C598.3,1129.4,598.9,1130.4,599.8,1130.7z"/>
					</g>
					<path class="st3" d="M439.6,1513.7c3.8,40.2,20.4,66.2,20.4,66.2l5.7,5.2c0,0,5.2-29.5,8.9-63.2
						C470.6,1522.2,453.3,1522.8,439.6,1513.7z"/>
					<path class="st11" d="M477.2,1519.3c8.9,35.4,22.3,62.5,22.3,62.5l11.7-0.8c0,0-5.7-27.2-5.4-63.9
						C501.8,1519.1,493.6,1521.1,477.2,1519.3z"/>
					<g>
						<path class="st4" d="M492.8,1591.6h7.4c2.5-0.4,4.3-1.1,6.9-1.4c3.9-0.5,5.7,1.1,6,1.4c0,0,0.1,0.1,0.1,0.1h31.6
							c0.8-1.1,0-3.8-0.7-5.7c-0.5-1.3-1.6-2.3-3-2.7c-3.4-1-10-1.8-16-7.3c-3.4-3.1-16.4-11.3-16.4-11.3l-0.1,0
							c-0.3,0-1.6,0.4-7.6,5.4c-3.1,2.6-8.3-3.6-8.3-3.6s-1,0.8-1.7,2.3c-0.6,1.2-1,2.8-0.7,4.9c0.5,2.8-1,8.1-2.3,11.7
							c-0.7,2.2-1.4,3.7-1.4,3.7S486.4,1590.8,492.8,1591.6z"/>
						<path class="st12" d="M491,1568.7c1.8,1.3,5.5,3.7,8,4c3.4,0.4,9.6-8.1,9.6-8.1l-0.1,0c-0.3,0-1.6,0.4-7.6,5.4
							c-3.1,2.6-8.3-3.6-8.3-3.6S491.7,1567.2,491,1568.7z"/>
						<path class="st12" d="M492.8,1591.6h7.4c2.5-0.4,4.3-1.1,6.9-1.4c3.9-0.5,5.7,1.1,6,1.4c0,0,0.1,0.1,0.1,0.1h31.6
							c0.8-1.1,0-3.8-0.7-5.7c-1-0.9-1.2,3.7-1.8,4.4c-0.5,0.7-25.8,0.3-27.2-0.8c-1.5-1.1-5.8-2.9-11.9-1.5
							c-5.3,1.3-13.1-2-15.1-2.8c-0.7,2.2-1.4,3.7-1.4,3.7S486.4,1590.8,492.8,1591.6z"/>
					</g>
					<g>
						<path class="st4" d="M453.1,1591.6h7.4c2.5-0.4,4.3-1.1,6.9-1.4c3.9-0.5,5.7,1.1,6,1.4c0,0,0.1,0.1,0.1,0.1h31.6
							c0.8-1.1,0-3.8-0.7-5.7c-0.5-1.3-1.6-2.3-3-2.7c-3.4-1-10-1.8-16-7.3c-3.4-3.1-16.4-11.3-16.4-11.3l-0.1,0
							c-0.3,0-1.6,0.4-7.6,5.4c-3.1,2.6-8.3-3.6-8.3-3.6s-1,0.8-1.7,2.3c-0.6,1.2-1,2.8-0.7,4.9c0.5,2.8-1,8.1-2.3,11.7
							c-0.7,2.2-1.4,3.7-1.4,3.7S446.7,1590.8,453.1,1591.6z"/>
						<path class="st12" d="M451.3,1568.7c1.8,1.3,5.5,3.7,8,4c3.4,0.4,9.6-8.1,9.6-8.1l-0.1,0c-0.3,0-1.6,0.4-7.6,5.4
							c-3.1,2.6-8.3-3.6-8.3-3.6S452,1567.2,451.3,1568.7z"/>
						<path class="st12" d="M453.1,1591.6h7.4c2.5-0.4,4.3-1.1,6.9-1.4c3.9-0.5,5.7,1.1,6,1.4c0,0,0.1,0.1,0.1,0.1h31.6
							c0.8-1.1,0-3.8-0.7-5.7c-1-0.9-1.2,3.7-1.8,4.4c-0.5,0.7-25.8,0.3-27.2-0.8s-5.8-2.9-11.9-1.5c-5.3,1.3-13.1-2-15.1-2.8
							c-0.7,2.2-1.4,3.7-1.4,3.7S446.7,1590.8,453.1,1591.6z"/>
					</g>
					<path class="st8" d="M538.6,1091.3c0,0,22,11.1,29.4,55.8c0,0-7.2,9.9-17.4,12.8c-1.5,0.4-3,0.7-4.5,0.8
						C533.6,1161.4,538.6,1091.3,538.6,1091.3z"/>
					<path class="st3" d="M622.4,1121.8c0,0-6.8-10.5-8.5-9.9c-2.4,0.8,6.2,14.1,6.2,14.1s-6.3-9.9-7.3-9.2
						c-2.3,1.7,1.3,7.9,4.9,12.7c0,0-6.4-5.8-6.6-4.8c-0.7,3.7,7,12.6,7,12.6l4.3-9.9V1121.8z"/>
					<path class="st3" d="M627.5,1131.6c-0.3-1.3-2-26.3-2.7-23.9c-0.7,2.4-2.4,15.5-2.4,15.5L627.5,1131.6z"/>
				</g>
			</g>
			<path class="st13" d="M514.9,1052.3c0,0,0.6,2.6,7.1,2.2c0,0,5.4-0.3,5.3-3.2C527.2,1051.3,521.9,1049.3,514.9,1052.3z"/>
		</g>
		<path class="st3" d="M400,1282.2c0,0-12.8,8.5-14.8,12.1c-2,3.6-6.5,16.8-6.5,16.8s3.3,0.5,6.5-5.2s14-5.2,17.6-8.3
			c3.6-3.1,7.8-12.2,7.8-12.2L400,1282.2z"/>
		<path class="st3" d="M409.2,1288.2c0,0-2.1,10-4.7,13c-2.6,2.9-6.2,7.8-7.7,6.5c-1.5-1.3,1.6-12.2,1.6-12.2L409.2,1288.2z"/>
		<path class="st3" d="M387,1295.5c-0.3,0.5-11.6,12.4-11.6,12.4s4.1,1.8,5.2,0C381.8,1306,387,1295.5,387,1295.5z"/>
	</g>
	<g>
		<polygon class="st14" points="1313,705.9 1417.3,722.1 1348.5,674 1344.8,689.1 1319.4,693.4 		"/>
		<polygon class="st13" points="1417.3,722.1 1330.9,676.2 1245.7,670.9 		"/>
		<polygon class="st13" points="1348.5,674 1417.3,722.1 1364.5,647.6 		"/>
	</g>
	<g>
		<polygon class="st14" points="2839.9,1005.3 2754.5,1017.5 2811.1,978.9 2814,991.3 2834.8,995 		"/>
		<polygon class="st13" points="2754.5,1017.5 2825.5,980.9 2895.2,977.4 		"/>
		<polygon class="st13" points="2811.1,978.9 2754.5,1017.5 2798.3,957.1 		"/>
	</g>
	<path class="st15" d="M701.1,910.7h519V1047H851v145.1h325.2v136.3H851v263.9H701.1V910.7z"/>
	<path class="st15" d="M1445.8,924.2h134.6l284.3,668.2h-152.6l-60.7-148.8H1371l-60.7,148.8h-148.8L1445.8,924.2z M1599.4,1314.7
		l-88.1-215.1l-88.1,215.1H1599.4z"/>
	<path class="st15" d="M2406.3,1534.2c-55.9,36-123.2,56.9-197.1,56.9c-204.7,0-351.6-152.6-351.6-343.1
		c0-188.6,148.8-343.1,353.5-343.1c204.7,0,351.6,152.6,351.6,343.1c0,69.2-20.9,135.5-58.8,190.5l68.2,57.8l-92.9,103.3
		L2406.3,1534.2z M2298.2,1438.5c0,0,66.2-34.1,93.8-97.6c12-27.6,18-57.8,18-92.9c0-113.7-83.4-208.5-200.9-208.5
		c-117.5,0-199,92.9-199,208.5c0,113.7,83.4,208.5,200.9,208.5C2243.3,1456.5,2272.6,1449.9,2298.2,1438.5z"/>
	<g>
		<path class="st16" d="M2217.2,1238.1c0,0-11.2,16.6-17.6,51.4c-5.6,30.5-10.5,41.7-18.6,48c-8.1,6.2-53,24.7-53,24.7l3.4,7.9
			c0,0,65.9-9,73.3-20c7.4-11,35.6-76.1,33.4-91.1S2217.2,1238.1,2217.2,1238.1z"/>
		<g>
			<path class="st3" d="M2034.2,1586c-0.7,6.4-9.8,6.2-20,4.7c-10.3-1.5-7.6,1.2-22,0.9c-14.4-0.2-19.3-5.2-19.9-7.3
				c-0.6-1.8,6.4-3.2,13.9-4.8c0.9-0.2,1.9-0.4,2.8-0.6c8.4-1.9,14.2-8,21.5-13.2c7-5,16.3-23.5,16.3-23.5l19.7-0.3
				c0,0-8.8,16.6-12.2,23.7c-2,4.2-1.3,9.5-0.7,13.5C2034.1,1581.5,2034.4,1583.7,2034.2,1586z"/>
			<path class="st17" d="M2014.2,1590.7c-10.3-1.5-7.6,1.2-22,0.9c-14.4-0.2-19.3-5.2-19.9-7.3c-0.6-1.8,6.4-3.2,13.9-4.8l0.1,0.1
				c0,0,9.1,5.3,21,4.4c9.7-0.7,19.7-4.4,26.4-4.9c0.4,2.2,0.7,4.5,0.5,6.7C2033.5,1592.4,2024.4,1592.2,2014.2,1590.7z"/>
		</g>
		<path class="st18" d="M2248,1372.7c0,0-129.3,0.6-153.5,15.9s-79.1,172.2-79.1,172.2s4.3,5.6,9.6,6.4c8.5,1.2,13.4-2.2,13.4-2.2
			s73.7-73.3,77.6-93.3c3.9-20,3-37.9,11.9-38.3c8.9-0.5,120.2,13.5,137-16.1c16.8-29.6,2.9-59,2.9-59L2248,1372.7z"/>
		<g>
			<path class="st3" d="M2102.9,1583c-0.1,6.5-9.2,7-19.6,6.4s-7.5,1.8-21.9,2.8s-19.6-3.5-20.4-5.6c-0.7-1.8,6.1-3.7,13.5-5.9
				c0.9-0.3,1.8-0.6,2.8-0.8c8.3-2.6,13.5-9.1,20.3-15c6.5-5.5,14.3-24.8,14.3-24.8l19.6-1.9c0,0-7.4,17.3-10.1,24.7
				c-1.6,4.4-0.5,9.6,0.5,13.5C2102.4,1578.5,2102.9,1580.7,2102.9,1583z"/>
			<path class="st17" d="M2083.3,1589.4c-10.4-0.7-7.5,1.8-21.9,2.8s-19.6-3.5-20.4-5.6c-0.7-1.8,6.1-3.7,13.5-5.9l0.1,0.1
				c0,0,9.5,4.5,21.3,2.7c9.6-1.5,19.3-6,25.9-7.1c0.5,2.2,1.1,4.4,1,6.7C2102.7,1589.5,2093.7,1590,2083.3,1589.4z"/>
		</g>
		<path class="st8" d="M2273.1,1380.7c0,0-113.9,5.4-137.5,21.6c-23.5,16.2-56.6,152.3-56.6,152.3s5,6.6,10,8.4
			c6.4,2.3,15.1-0.3,15.1-0.3s45.7-55.1,48.9-75.3s8.1-30.5,17-31.3c8.9-0.8,96.3,16.2,136.3-21.4
			C2331,1411.2,2273.1,1380.7,2273.1,1380.7z"/>
		<path class="st19" d="M2234.1,1228.9c-2.2-3.9-4.9-10.9-6.8-23.5c0.2,1.2,3.5,17.1,10.3,25.8c26.4,14.9,68.1,70.9,67.8,81.5
			c0,0,25.6-33.9,25.9-34.1c0,0,28.8-42.1-10-62.6c-19.7-10.4-20.6-25.4-20.7-38.4c-0.1-13.1-9.8-68.6-46.8-51.4c0,0-6.3-2.3-9-1.7
			c0,0,2.3,0.3,3.5,1.4c-4.4,0-10.7,0.8-15.8,4.1C2219.1,1138.8,2211.4,1210.7,2234.1,1228.9z"/>
		<path class="st3" d="M2277.9,1219c0,0-10.6-1-21.2,0c-7.2,0.7-14.4,2.9-18.4,4.6c-10,4.2-9,22,12.1,18.7
			S2279.3,1224.3,2277.9,1219z"/>
		<path class="st3" d="M2239.1,1231.9c-0.1,0.1-3,15.3,10.8,14.7c9.1-0.4,28.6-11.4,26.9-19.1c-0.8-3.7-7.7-13.2-9-35.1l-1.6,0.4
			l-27.7,7.4c0,0,1.2,8.8,1.8,17.1C2240.7,1224.4,2240.7,1231.1,2239.1,1231.9z"/>
		<path class="st16" d="M2238.4,1200.3c0,0,1.2,8.8,1.8,17.1c15.7-1.5,23-16.4,25.9-24.6L2238.4,1200.3z"/>
		<path class="st19" d="M2268.8,1189.6c0,0,7.4-13.6,8.6-24.8c0.9-8-5.1-37.2-34.4-31c0,0-8.5,1.4-16.3,7.4
			c-6.1,4.8-14.8,14.8-2.7,39.8l3.3,8.5L2268.8,1189.6z"/>
		<path class="st3" d="M2233.6,1208.6c0,0,37.2-1.9,35.7-25c-1.5-23.2,2.3-39-21.6-38.8c-23.8,0.2-27.9,9.4-29.2,17.2
			C2217.2,1169.8,2223.9,1208.4,2233.6,1208.6z"/>
		<path class="st19" d="M2230.8,1145.3c0,0,12,26.5,27.9,29.5s22.4-1.7,22.4-1.7s-12.6-8.7-16.2-25.2
			C2264.9,1147.9,2237.6,1131.8,2230.8,1145.3z"/>
		<path class="st19" d="M2233.5,1147.3c0,0-7.2,6.6-8.7,12.6c-1.5,6-1.5,18.2-5.1,18c0,0-8.9-18-1-29
			C2227.2,1137.3,2233.5,1147.3,2233.5,1147.3z"/>
		<path class="st20" d="M2196.4,1374.7c3,3.6,12.4,4.7,22.5,6.4c7.9,1.3,16.2,2.9,22.1,6.4c13.4,7.9,57.3,34.5,70.1,33.3
			c5-0.5,4-10,1-22.6c-4.8-19.9-14.7-47.6-14.7-59.6c0-6.6-2.2-22.1-5.1-39.9c-0.2-1.4-0.5-2.9-0.7-4.3
			c-5.8-34.6-13.8-75.3-13.8-75.3s-8.9,19.5-26.3,19.5c-17.4,0-13.3-14.8-13.3-14.8s-15.9,1.9-19.6,5.9c-3.8,4-13.2,21.5-15.1,26.2
			c0,0-0.4,6.1,14.6,8.9c0,0-3.7,16.4-4.1,27.4c-0.3,8.1,5.5,33.4,7.2,49.2c0.6,5.6,0.7,10-0.2,11.9c-1.2,2.5-4.9,5.1-9.2,7.6
			C2203.3,1365.6,2192.8,1370.4,2196.4,1374.7z"/>
		<path class="st4" d="M2211.8,1360.7c-9.6,16.4,26.1,21.3,32,24.8c13.4,7.9,54.5,36.4,67.3,35.2c5-0.5,4-10,1-22.6
			c-4.8-19.9-14.7-47.6-14.7-59.6c0-6.6-2.2-22.1-5.1-39.9l-15.5-14.9c0,0-16.6,42.8-32.4,49.9c-8.3,3.7-16.9,6.1-23.3,7.6
			c0.6,5.6,0.7,10-0.2,11.9C2219.8,1355.7,2216.1,1358.2,2211.8,1360.7z"/>
		<path class="st3" d="M2282.6,1231.8c0,0,13.2-8,26,7.2c12.8,15.2-9.1,124.2-28,129.8c-21,6.2-81.9-1-81.9-1l1.2-9.5
			c0,0,64.7-12.4,67.4-15.9C2270,1338.9,2275.9,1233.6,2282.6,1231.8z"/>
		<path class="st20" d="M2277.9,1219c0,0,27.2,2.5,35.1,11.4c7.9,8.9,10.2,33.1,10.2,33.1s-23.9,19.3-52.7,11.8L2277.9,1219z"/>
		<path class="st3" d="M2205.2,1357.7c0,0-21.1-4.1-23.5-3.1c-2.4,1-15.6,12.9-14.3,15.3c1.4,2.4,6.8,4.1,12.9,2
			c6.1-2,19.4-3.1,21.8-6.1C2204.5,1362.8,2205.2,1357.7,2205.2,1357.7z"/>
		<g>
			
				<rect x="2188.2" y="1381" transform="matrix(-1 -1.224647e-16 1.224647e-16 -1 4412.3555 2766.2256)" class="st21" width="35.9" height="4.2"/>
			<path class="st21" d="M2195.9,1384.7c-0.4-1.4-33-52.6-33-52.6h-72.6l36.4,51.3L2195.9,1384.7z"/>
			<path class="st19" d="M2192.8,1385.2c-0.4-1.4-33.1-53.2-33.1-53.2h-69.4l34.6,53.2H2192.8z"/>
			<path class="st21" d="M2131.6,1358.8c0.7,2.1,3,3.8,5.1,3.8s3.2-1.7,2.5-3.8c-0.7-2.1-3-3.8-5.1-3.8S2130.9,1356.7,2131.6,1358.8
				z"/>
		</g>
	</g>
	<g>
		<path class="st22" d="M2700.8,1207c0,0,17.3,9.9,22.2,9.8c4.8,0,23.9-3.7,29.2-1c5.3,2.7,14.9,13.6,16.7,17.2
			c3.2,6.4-13,3.6-20.7-1.9c-1.1-0.8-2.5-1.1-3.8-0.8c-4,0.9-12.3,2.4-16.3,0.9c-5.4-2-33.7-4.2-33.7-4.2L2700.8,1207z"/>
		<path class="st23" d="M2569,1072.9c0,0,18,127.6,47.7,139.1c14.7,5.6,79.5,18.4,98.7,19.7c0,0,4.7-3.8,3.6-19.3
			c0,0-67.9-24.9-77.6-38.5c-14.4-20.2,8.9-82.5-9.1-101.4C2614.2,1053.4,2583.9,1045.3,2569,1072.9z"/>
		<path class="st4" d="M2575.1,1341.8c5.2,8.9,11.3,17.2,17.5,25.1c19.3,24.4,40.3,44.5,44,63.4c0.7,3.8,1.9,7.9,3.4,12.2
			c1.5,4.4,3.4,8.9,5.6,13.7c8.2,17.8,20.4,37.7,32.7,55.8c21.1,31.3,41,57.5,41,57.5l36.5-1.6c-1.5-3.7-17.4-46.9-38.6-99.8
			c-8.6-21.5-17.8-44.3-26.7-66.3c-1.2-2.9-2.4-5.9-3.5-8.8c-2.7-6.7-5.4-13.4-8-19.8c-20-49.6-35.9-89.2-35.9-89.2
			s-79.8-30.2-88.1-10.6C2548.1,1289.6,2553.6,1305.4,2575.1,1341.8z"/>
		<path class="st6" d="M2720.4,1562.8c0,0,1.9,30.1,7.7,30.5c0.8,0.1,29.5,0.1,29.5,0.1l36.7-0.2c0,0-0.2-8.8-11-10.7
			c-10.7-1.9-28.7-9.4-35.2-23.6C2741.3,1543.9,2720.4,1562.8,2720.4,1562.8z"/>
		<path class="st6" d="M2590.9,1468.2c0,0-27.2,12.9-25.5,18.5c0.2,0.7,10.9,27.4,10.9,27.4l13.8,34c0,0,8.1-3.5,5.9-14.2
			c-2.2-10.7-1.9-30.1,8.8-41.4C2616.1,1480.6,2590.9,1468.2,2590.9,1468.2z"/>
		<path class="st20" d="M2600.6,1498.2c0,0-15.3-15.5-18.1-25.7c0,0,52.6-51.2,71.4-63.6c21.6-14.3,35.6-14.3,32.2-17.8
			c-11.4-11.4-106.7-44.8-122.3-69c-5.4-8.3-8.4-16.2-10-23.1c-3.5-14.7-0.7-24.9-0.7-24.9l118.7-3.4c0,0,88.2,91.5,87.7,126
			C2758.9,1433.8,2600.6,1498.2,2600.6,1498.2z"/>
		<path class="st3" d="M2639.2,1064.8c-24,6.2-63.8-16-63.8-16s15.5-10.4,21.2-33.2c0.3-1.1,0.5-2.3,0.8-3.5
			c2.5-0.5,7.3-1.5,12.3-2.6l18.3,16.4c0,0-0.4,6.8-2.7,18.5c-0.4,2-0.9,4.2-1.4,6.6C2633.8,1057.1,2639.2,1064.8,2639.2,1064.8z"/>
		<path class="st8" d="M2550,1164.3c3.4,46.2-1.1,116.6,2.8,128.8c3.4,10.5,41.7,4.3,57,0.8c5.7-1.3,12.5-3.2,19.6-5.3
			c19.8-6.1,41.3-14.9,43.6-21.4c0.1-0.3,0.2-0.5,0.2-0.7c0.2-0.9,0.2-1.8,0-2.7c-0.8-3.3-3.7-6.9-4.1-15.1
			c-0.4-9.1-0.3-19.9-0.7-31.5c0-1.3,0-2.7-0.2-4l0-0.5c0-0.2,0-0.5,0-0.7c-0.3-12.9-1-26.5-1.8-40c-0.5-8.5-1.1-16.8-1.7-24.9
			c-1.7-20.7-4-39.1-7.1-50.8c-5-19-16.1-31.4-26.2-40.4l-7.3-6.3c-8.1,1.8-17.8,0.6-26.5-3.5c-9.4-4.5-12.7-7.7-14.3-6.5
			C2561.6,1056.3,2546,1107.8,2550,1164.3z"/>
		<path class="st23" d="M2629.5,1288.5c19.8-6.1,41.3-14.9,43.6-21.4c0.1-0.3,0.2-0.5,0.2-0.7c0-0.9,0-1.8,0-2.7
			c-0.8-3.3-3.7-6.9-4.1-15.1c-0.4-9.1-0.3-19.9-0.7-31.5c0-1.3,0-2.7-0.2-4l0-0.5c0-0.2,0-0.5,0-0.7l-79.9-101.8
			C2588.4,1110,2534.6,1221.9,2629.5,1288.5z"/>
		<path class="st22" d="M2628.1,1025.9c0,0-0.4,6.8-2.7,18.5c-17.9-5.8-26-22-28.7-28.8c0.3-1.1,0.5-2.3,0.8-3.5
			c2.5-0.5,7.3-1.5,12.3-2.6L2628.1,1025.9z"/>
		<path class="st3" d="M2630.5,1036.2c0,0-39-6.5-34.6-30.8c4.4-24.3,2.4-41.4,27.5-38.3c25.1,3.1,28.3,13.3,28.7,21.7
			C2652.6,997.3,2640.7,1037.3,2630.5,1036.2z"/>
		<g>
			
				<rect x="2798.7" y="1151.8" transform="matrix(-0.951 -0.3091 0.3091 -0.951 5093.2676 3205.2563)" class="st24" width="3.6" height="94.8"/>
			
				<rect x="2688.2" y="1237.8" transform="matrix(-0.9998 -2.135210e-02 2.135210e-02 -0.9998 5448.7476 2539.7578)" class="st24" width="99.5" height="6"/>
		</g>
		<path class="st3" d="M2690.1,1247.5c0,0,32,8.4,43.9,7.5c12-0.9,22-6.6,23.5-9.6s4.7-8.3-3.5-7.3c-8.2,1-19.3,2.7-19.6,1.1
			c-0.3-1.6,6.7-1.4,6.7-1.4s2.1-3.1-0.5-3.2s-10.4-2.2-13.3-0.8s-5.5,6.8-7.7,6.5c-2.1-0.2-26.7-11.1-26.7-11.1L2690.1,1247.5z"/>
		<path class="st8" d="M2576.9,1078.1c0,0,3.8,128.8,32.1,143.5c14,7.2,77,27.1,95.9,30.5c0,0,5.1-3.3,5.7-18.8
			c0,0-64.8-32.3-72.9-46.8c-12.1-21.6,18-81,2.1-101.8C2624,1063.8,2594.8,1052.3,2576.9,1078.1z"/>
		<path class="st20" d="M2596.6,1015.6c0,0-0.4-8.3,4.7-13.1c0,0-1.8-8.3,1.5-9.7c3.3-1.4,4,5.6,5.5,4.5c1.5-1.1,8.3-6.3,11.1-14
			c2.9-7.7,29.3,1.6,32.4,3s13-3.7,14.9-7.8c0,0-5.5-4.4-8-7.7c-2.5-3.3-19.8-25.6-44-19.3c-24.2,6.3-27.5,17.9-26.1,27.8
			C2590,989.2,2586.7,1012.3,2596.6,1015.6z"/>
	</g>
	<g>
		<g id="man_39_">
			<path class="st3" d="M1849.5,1103.7c-2.7,7.1-7.3,15.4-12.1,17.5c-5.5,2.3-7.8,5.6-7.8,5.6l-4.4-2.6l-5.3-3.1
				c0,0,0.1-0.6,0.4-1.5c0.3-1,0.7-2.3,1.2-3.7c0,0,1.6-2.1,0.6-4.7c-1-2.6-0.8-6.7,0.9-9.1c1.7-2.5,3.3-8.5,4.3-8.3
				c2.5,0.4-1.2,8.8-0.2,10.3c1,1.4,2.2,0.9,2.4,0.8c0,0,0,0,0,0c6.9-3,15.3-19.5,19.1-17.3
				C1850.1,1088.4,1850.6,1100.7,1849.5,1103.7z"/>
			<g>
				<path class="st20" d="M1825.5,1113.7l8.7,6.1c0.6,0.4,1.5,0.3,1.9-0.3l22.2-31.6c0.4-0.6,0.3-1.5-0.3-1.9l-8.7-6.1
					c-0.6-0.4-1.5-0.3-1.9,0.3l-22.2,31.6C1824.8,1112.4,1824.9,1113.2,1825.5,1113.7z"/>
				<path class="st4" d="M1833.5,1119.3l5.1,3.6c0.5,0.3,1.1,0.2,1.4-0.3l22.6-32.2c0.3-0.5,0.2-1.1-0.3-1.4l-5.1-3.6
					c-0.5-0.3-1.1-0.2-1.4,0.3l-22.6,32.2C1832.9,1118.3,1833,1118.9,1833.5,1119.3z"/>
			</g>
			<path class="st4" d="M1701,1068.3c0,0,44.2,77,60.2,91.2l58.8-43.8c0,0,8.5,2.6,12.3,11.2c0,0-35.7,72.7-70.8,75.8
				s-84.4-87.1-84.4-87.1L1701,1068.3z"/>
			<g>
				<path class="st4" d="M1601,1592.3h-25.5c-3.2-1.7-6.1-5.7-7-11.7c-1.2-8.2-10.5-12.7-12.5-19.4c-2-6.7,8.2-16.2,8.2-16.2
					l1.7-2.2l1.8-2.3l16.9,4c0,0,0.4,4,0.7,9.2c0.2,3.7,0.3,8,0.1,11.7c-0.5,9,2.5,18.6,10.5,20.4
					C1601.8,1587,1601.6,1590.5,1601,1592.3z"/>
				<path class="st4" d="M1749.1,1592.3h-58.4c-2.8-3.4-1.8-16.1-1.3-20.2c0.1-0.8,0.1-1.3,0.1-1.3s19.9-15.9,22.7-3.7
					c0.1,0.4,0.2,0.8,0.3,1.1c3.4,11.4,18.9,16.6,27.9,18.1C1746.2,1587.1,1748.3,1590.2,1749.1,1592.3z"/>
				<path class="st8" d="M1738,1266.5c0,0-3,37.8-6.6,83.1c-4.8,61.7-10.6,137.4-11.2,151.7c-1,24.9-5,64.8-5,64.8
					s-9.5,9.5-28.4,5.5c0,0-16.9-56.9-21.7-117.1c-0.1-1-0.1-2-0.2-3c-4.5-61.3-11.5-190.3-11.5-190.3L1738,1266.5z"/>
				<path class="st23" d="M1738,1266.5c0,0-3,37.8-6.6,83.1l-66.3,104.9c-0.1-1-0.1-2-0.2-3c-4.5-61.3-11.5-190.3-11.5-190.3
					L1738,1266.5z"/>
				<path class="st8" d="M1724.2,1271c0,0-54.5,136.7-90.4,201s-47.1,82.2-47.1,82.2s-20.5-8.2-22.4-13.8c0,0,13.7-124.1,37.7-154.3
					c13.6-17.1,29.5-68.4,30.3-86.3c0.7-17.9,4.9-53.4,4.9-53.4L1724.2,1271z"/>
			</g>
			<path class="st3" d="M1710.6,1071.6c-21.3,6.7-58.2-11.4-58.2-11.4s19.7-14.8,18.6-45.4l16.5,13.3l11.2,9c0,0,0,5.3-1.3,14.6
				c-0.3,2.5-0.7,5.2-1.2,8.2C1705.4,1064.9,1710.6,1071.6,1710.6,1071.6z"/>
			<path class="st25" d="M1698.7,1037.1c0,0,0,5.3-1.3,14.6c-12.4-2.1-26.5-22.2-26.5-22.2c6.3-1.8,11.8-2.2,16.6-1.5L1698.7,1037.1
				z"/>
			<path class="st3" d="M1705.2,1036.6c0,0-35.2,5.8-38.5-16.1c-3.3-22-10.1-36,12.3-40.7c22.3-4.7,28,3.1,30.9,10.1
				C1712.7,996.9,1714.3,1034.5,1705.2,1036.6z"/>
			<path class="st20" d="M1740.4,1269.6c-0.6,0.5-1.4,0.9-2.2,0.9c-8-0.1-31.3,4.3-51.1,2.3c-16.7-1.6-31.4-6.5-47.2-13.6
				c-2.1-0.9-6.9-3.5-6.8-5.9c0.1-2.6,0.3-6.3,0.6-11c1.1-16.3,3.1-44.4,1.2-76.8c-0.3-6-0.5-12-0.5-17.9
				c-0.2-43.9,8.5-82.6,26.1-95.7c1.5-1.1,10.7,3.4,19.1,7.6c7.8,3.8,15.6,4.3,22.9,2.8l7.4,6.5c9,8.3,18.8,19.6,23.1,36.8
				c3.6,14.6,5.8,41,6.9,68.3c0.5,12.4,1,24.9,1.1,36.7v0.4c0.1,1.2,0.1,2.5,0.1,3.6C1741.3,1245.1,1740.9,1269.2,1740.4,1269.6z"/>
			<path class="st4" d="M1633.6,1242.3c1.1-16.3,3.1-44.4,1.2-76.8c-0.3-6-0.5-12-0.5-17.9c7.3-17.7,13.3-30.5,13.3-30.5h18.4
				C1665.9,1117,1679.4,1209,1633.6,1242.3z"/>
			<g>
				<path class="st4" d="M1539.5,1346.6l78.4,11.2c10.2,1.5,19.7-5.7,21.2-15.9l4.8-34c1.5-10.2-5.7-19.7-15.9-21.2l-78.4-11.2
					c-10.2-1.5-19.7,5.7-21.2,15.9l-4.8,34C1522.1,1335.6,1529.3,1345.1,1539.5,1346.6z"/>
				<path class="st20" d="M1632.4,1296.8L1632.4,1296.8c-2.2-5.5-7-9.9-13-11.3h0c0,0,0,0,0,0c-0.6-0.1-1.2-0.3-1.8-0.4l-15.6-2.2
					l1-7.3c0.2-1.6-0.2-3.3-1.2-4.6c-1-1.3-2.5-2.2-4.1-2.4l-4.1-0.6l-16.4-2.3l-3-0.4c-3.4-0.5-6.5,1.9-7,5.3l-1,7.3l-26.9-3.8
					c-10.2-1.5-19.8,5.7-21.3,16l-4.9,34.4c-1.5,10.2,5.7,19.8,16,21.3l78.2,11.2c1.4,0.2,2.7,0.2,4.1,0.1h0c0,0,0,0,0,0
					c2.1-0.2,4.2-0.7,6.1-1.5c5.8-2.5,10.1-7.9,11.1-14.6l4.9-34.4C1634.1,1303,1633.6,1299.8,1632.4,1296.8z M1571.2,1271
					c0.1-1,1-1.8,1.9-2c0.2,0,0.5,0,0.7,0l3.5,0.5l12.9,1.8l7,1c1.3,0.2,2.1,1.4,2,2.6l-1,7.3l-28-4L1571.2,1271z"/>
			</g>
			<path class="st3" d="M1599.1,1245.5c0,0-4.1,5.5-4.3,7.7c-1.1,14.9,5.7,16.9-11.9,25.2c0,0-7.5,2.9-7.6-3
				c-0.1-5.8,5.2-5.9,4.2-14.1c-1.1-9.4-1-9.5,5.2-14.4l4.1-6.8L1599.1,1245.5z"/>
			<path class="st20" d="M1588.6,1249.7c6.6,1.3,13.8,0.8,13.8,0.8s19.6-60.7,22.2-66.2c2.5-5.5,58.4-71.2,58.4-71.2l-23.3-58.2
				c0,0-60.4,100.9-66.5,115.1c-10.1,23.4-13.7,75.9-13.7,75.9S1583.4,1248.6,1588.6,1249.7z"/>
			<path class="st20" d="M1666.7,1018.3c0,0,3.6-0.6,3-5.6c-0.6-5-0.6-11.5,3.5-10.3c4,1.2,4.2,4.5,5.9,2.6
				c1.7-1.9,1.7-9.9,13.7-10.4c12-0.6,16.9,3.6,22.5,1.2c5.6-2.5,5.9-10.9,5.9-10.9s-1.6,3-4,4c0,0,9.3-12.8-1.5-21.5
				c-10.8-8.8-21.8-3-28.1-2.6c-13.8,0.8-22.7,1.7-27.2,10.7S1657.8,1009.6,1666.7,1018.3z"/>
			<path class="st3" d="M1592.6,1252c0,0,4,4.1,4.2,5.9c0.8,5.5,2.6,7.9,1.7,8.5c-1.9,1.2-4.5-2.8-5.7-6.5
				C1591.6,1256.2,1592.6,1252,1592.6,1252z"/>
		</g>
	</g>
	<path class="st26" d="M3077.7,1599.6H236.5c-1.8,0-3.3-1.5-3.3-3.3v-1.4c0-1.8,1.5-3.3,3.3-3.3h2841.2c1.8,0,3.3,1.5,3.3,3.3v1.4
		C3081,1598.1,3079.5,1599.6,3077.7,1599.6z"/>
	<g>
		<path class="st4" d="M928.8,878c11.7,21.8,27.2,32.7,27.2,32.7h64.6C1020.6,910.7,919.9,861.4,928.8,878z"/>
		<g>
			<path class="st3" d="M973.8,1045.2c1.6,2,1.8,4.1,0.9,6.4c0,0,0,0,0,0c-1.7,4.2-6.9,8.8-12.9,13.4c-0.8,0.6-1.5,1.1-2.1,1.6
				c-0.2,0.1-0.3,0.3-0.5,0.4c-0.1,0.1-0.2,0.2-0.4,0.3c-5.6,4.9-3.6,6.1-13.8,16.2c-11.6,11.4-19.3,11.4-21.5,10.3
				c-1.8-1,2.1-7.1,6.5-13.9c0.2-0.3,0.4-0.7,0.6-1c0.6-0.9,1.2-1.8,1.7-2.8c5.2-8.3,4-12.3,3.2-24.8C935,1041,921.4,994,921.4,994
				l21.7-3.1c0,0,5.5,37.3,12.5,43.2c3.7,3.2,8,3.3,11.7,5.7c0.3,0.2,0.5,0.3,0.8,0.5C970,1041.7,972.1,1043.2,973.8,1045.2z"/>
			<path class="st4" d="M973.8,1045.2c1.6,2,1.8,4.1,0.9,6.4c0,0,0,0,0,0c-2,4.2-7.1,8.8-12.9,13.3c-0.8,0.6-1.4,1.1-2,1.7
				c-0.2,0.1-0.3,0.3-0.5,0.4c-0.1,0.1-0.2,0.2-0.4,0.3c-5.6,4.9-3.6,6.1-13.8,16.2c-11.6,11.4-19.3,11.4-21.5,10.3
				c-1.8-1,2.1-7.1,6.5-13.9c2.2-0.7,12.5-4.6,20.5-14.2c7-8.5,11.8-19.5,16.6-25.8c0.3,0.2,0.5,0.3,0.8,0.5
				C970,1041.7,972.1,1043.2,973.8,1045.2z"/>
			<path class="st3" d="M800.1,1026.9c-1.5,6.6-11,5.3-21.5,2.4c-10.5-2.9-8.1,0.3-23.2-1.8c-15.1-2.1-19.5-7.8-19.9-10.1
				c-0.4-2,7.1-2.5,15.2-3.2c1-0.1,2-0.2,3-0.3c9.1-0.9,15.8-6.5,24.2-11.1c7.9-4.3,20-22.5,20-22.5l20.7,2.2
				c0,0-11.3,16.2-15.7,23.3c-2.6,4.2-2.6,9.7-2.4,14.1C800.5,1022.2,800.6,1024.6,800.1,1026.9z"/>
			<path class="st4" d="M778.6,1029.3c-10.5-2.9-8.1,0.3-23.2-1.8c-15.1-2.1-19.5-7.8-19.9-10.1c-0.4-2,7.1-2.5,15.2-3.2l0.1,0.2
				c0,0,8.9,6.7,21.4,7.3c10.2,0.5,21.2-2.1,28.2-1.8c0.1,2.3,0.2,4.7-0.4,7.1C798.6,1033.6,789.1,1032.2,778.6,1029.3z"/>
			<path class="st4" d="M883.1,896.7l17.9,52.6l23.4,68.7c0,0,6.8,0.8,13.5-0.9c6.1-1.6,13.2-6,13.2-6s-5-73.2-17-115.5
				c-3.1-10.9-6.6-19.7-10.6-24.7C903.8,846.5,883.1,896.7,883.1,896.7z"/>
			<path class="st20" d="M905,814.5c12.8-3.7,48.8,2.5,85,10.6l8-12.3l78.7-4c0,0,24.3,58.1,9.2,94.4c-2.2,5.3-6.2,7.7-13.2,7.6
				c0,0-0.6,0-1.4,0c0,0-46.7,0.4-61.9,0c-39-1.1-81.9-29.9-87.5-31.1c-9.2-2.1-13.4,16.3-23.1,35.4c-9.8,19.1-89.1,83.4-89.1,83.4
				s-11.9-0.2-16.8-2.2c-5.2-2.1-7.1-4.8-7.1-4.8S876.2,822.9,905,814.5z"/>
			<path class="st4" d="M1001.3,704.7c27.5,16.2,83.4,49.6,83.7,49.4c0,0,20.6,8.4,32.7,0.9c20.1-12.6,31.6-47.5-3.6-78.8
				c-17.6-15.6-30.2-19.6-31.5-43.8c-0.7-13.1-17.4-56.8-47.3-53.6c-2.5,0.3-5,0.4-7.5,0.3c-3.5-0.2-9.2,0.1-15.2,3.5
				C995.4,592,959.6,697.6,1001.3,704.7z"/>
			<path class="st3" d="M1025.1,692.2c-0.1,0.1,13.6,5.2,23,1.3c8.8-3.6,15.8-17.8,15.7-17.8c-4-0.3-8.2-3.9-11-26.7l-1.7,0.6
				l-28.7,9.5c0,0,1.8,9.2,2.9,17.9C1026.3,684.2,1026.7,691.2,1025.1,692.2z"/>
			<path class="st25" d="M1022.5,659c0,0,1.8,9.2,2.9,17.9c16.4-2.5,23.3-18.6,25.8-27.4L1022.5,659z"/>
			<path class="st3" d="M1018,667.9c0,0,39-4.2,36.1-28.4c-3-24.3,0.1-41.1-25-39.5c-25,1.6-28.7,11.5-29.7,19.8
				C998.4,628.1,1007.7,668.4,1018,667.9z"/>
			<path class="st4" d="M1001.1,606.6c0,0,24.3,22.1,41.2,24.3c16.9,2.2,23.4-3.1,23.4-3.1s-9.8-8.6-15.4-22.1
				c-1.7-4-5.3-6.8-9.6-7.3C1028.7,597.1,1005.8,596,1001.1,606.6z"/>
			<path class="st4" d="M1016.7,605.1c0,0-8.5,7.8-11.3,13.7c-2.7,5.7-3.8,19.5-2,25c0,0-12.3-25.6-4.6-37.6
				C1007,593.4,1016.7,605.1,1016.7,605.1z"/>
			<path class="st13" d="M990.8,748.6c-1,78.8-1.4,62.3,7,70c2,1.9,7.8,3.1,15.5,3.8c24.1,2.3,66.6-0.6,68.4-5
				c6-15.3,2.2-20.2,7.5-43.7c0.6-2.5,1.2-5.2,2-8.1c4.3-16.1,8.2-21.5-4.8-48c-11.8-24-24.2-43.5-25.4-42.8
				c-33.4,18.6-35.6,2.1-35.6,2.1S991.3,710.2,990.8,748.6z"/>
			<path class="st20" d="M901,949.3l23.4,68.7c0,0,6.8,0.8,13.5-0.9c6.1-1.6,13.2-6,13.2-6s-5-73.2-17-115.5L901,949.3z"/>
			<path class="st13" d="M1025.4,676.9c0,0-34,4.8-38.4,19.3c-4.4,14.5-30.1,99.5-30.1,99.5s17.1,3.6,25.3-4.2
				c8.2-7.7,29.7-73,29.7-73L1025.4,676.9z"/>
			<path class="st27" d="M1013.3,822.4c24.1,2.3,66.6-0.6,68.4-5c6-15.3,2.2-20.2,7.5-43.7l-10.8-33.1c0,0,0.9,36.6-10.1,45.9
				c-11,9.3-44.6,17.3-50,25.2C1015.7,815.5,1013.9,819.3,1013.3,822.4z"/>
			<path class="st3" d="M1041.4,807.8c0,0-23.7-6-27.6-3.9c-3.9,2-13.5,9.5-14.8,12.1c-1.2,2.6,8.6-1.8,11.8-2.6
				c2.1-0.5,7.4,1.5,10.1,2.5c11.1,4.1,18.1,2.3,18.1,2.3L1041.4,807.8z"/>
			<path class="st13" d="M1061,674.7c0,0,31.9,2.8,42.6,18.6c15,22.2,43.4,115.6,25.3,127.5c-20.3,13.4-90.9,1.2-90.9,1.2
				s-2.1-11.1,1.4-16.3c3.4-5.2,57-12.4,59.5-14.8c2.5-2.4-29.4-48.8-29.2-56.2C1069.8,727.3,1061,674.7,1061,674.7z"/>
			<path class="st3" d="M1012.5,810.4c0,0-5.2,6.3-6.8,7c-1.7,0.7-2.7,0.5-2.7,0.5l3.5-6L1012.5,810.4z"/>
			<path class="st3" d="M1013.8,803.8l-14.7,6.6c0,0,0.6,1,2.4,1c1.8,0,6.3-1.6,6.3-1.6L1013.8,803.8z"/>
		</g>
		<g>
			<g>
				<polygon class="st8" points="1005.4,827.3 890.6,824.2 858.5,737.4 973,740.5 				"/>
				<polygon class="st23" points="889.4,820.8 1040.9,824.9 1040.8,828.3 890.6,824.2 				"/>
			</g>
			<path class="st13" d="M920.8,782.1c-0.8-3,1-5.4,4-5.4c3,0.1,6.1,2.6,6.9,5.7c0.8,3-1,5.4-4,5.4
				C924.7,787.6,921.6,785.1,920.8,782.1z"/>
		</g>
	</g>
</g>
</svg>
