<svg xmlns="http://www.w3.org/2000/svg" viewBox="0 0 527.31 544.1"><defs><style>.cls-1{fill:#119ad7;}.cls-2{fill:#223975;}.cls-3{fill:#293170;}</style></defs><g id="Laag_3" data-name="Laag 3"><path class="cls-1" d="M435.14,305.1l83.94-118.26q21-29.33,36.34-42t38.31-12.71q26.34,0,43.67,14.91t17.33,35.92A63.36,63.36,0,0,1,647.65,212q-7.06,13.92-21.71,33L519.08,389.15,639.61,561.89q28.29,40.5,28.29,61,0,21-17.57,36.11T606.9,674.1Q584,674.1,568.11,661T531.76,619L435.14,477.1" transform="translate(-140.6 -130)"/><path class="cls-2" d="M471.46,617.53,374.83,475.62,275.77,617.53Q254.3,647.28,239.41,660T201.6,672.62q-25.38,0-43.19-15.86T140.6,620.42q0-21,27.33-60L288.46,387.67,181.58,243.51q-27.81-35.67-27.81-62.06,0-20.53,16.59-35.67t43.44-15.16q23.41,0,38.78,13.21t35.88,41.53l86.37,118.26,83.94-118.26q21-29.33,36.34-42t38.32-12.71q26.34,0,43.67,14.91t17.33,35.92a63.39,63.39,0,0,1-7.08,29.08q-7.08,13.92-21.72,33L458.77,387.67,579.3,560.4q28.29,40.5,28.3,61,0,21-17.58,36.11T546.6,672.62q-23,0-38.8-13.15T471.46,617.53Z" transform="translate(-140.6 -130)"/><path class="cls-3" d="M375.1,303,459,184.73q21-29.31,36.34-42T533.69,130q26.35,0,43.68,14.91t17.32,35.92a63.5,63.5,0,0,1-7.07,29.08q-7.08,13.92-21.72,33L459,387.05,579.57,559.78q28.29,40.5,28.3,61,0,21-17.58,36.1T546.87,672q-22.95,0-38.8-13.16t-36.35-41.93L375.1,475" transform="translate(-140.6 -130)"/></g></svg>