<svg id="Layer_1" data-name="Layer 1" xmlns="http://www.w3.org/2000/svg" viewBox="0 0 196.41 47.47"><defs><style>.cls-1{fill:#119ad6;}.cls-2{fill:#233a74;}.cls-3{fill:#283270;}.cls-4,.cls-5{isolation:isolate;}.cls-5{font-size:30px;font-family:Quicksand-Light, Quicksand;font-weight:300;}.cls-6{letter-spacing:-0.02em;}.cls-7{letter-spacing:0em;}</style></defs><g id="FullLogo"><g id="LogoXenterion"><path id="Path_1" data-name="Path 1" class="cls-1" d="M25.7,15.28,33,5A20.48,20.48,0,0,1,36.19,1.3,5.07,5.07,0,0,1,39.53.19a5.61,5.61,0,0,1,3.81,1.3,4,4,0,0,1,1.52,3.13,5.77,5.77,0,0,1-.62,2.54A19.54,19.54,0,0,1,42.34,10L33,22.61,43.54,37.68C45.18,40,46,41.81,46,43a4,4,0,0,1-1.53,3.15,5.64,5.64,0,0,1-3.79,1.32,5.12,5.12,0,0,1-3.38-1.15,19.09,19.09,0,0,1-3.17-3.66L25.7,30.28"/><path id="Path_2" data-name="Path 2" class="cls-2" d="M28.87,42.54,20.44,30.16,11.79,42.54a21.91,21.91,0,0,1-3.17,3.7,4.87,4.87,0,0,1-3.3,1.1A5.48,5.48,0,0,1,1.55,46,4.15,4.15,0,0,1,0,42.78Q0,41,2.38,37.55L12.9,22.48,3.57,9.9C2,7.83,1.15,6,1.15,4.49A4.06,4.06,0,0,1,2.6,1.38,5.41,5.41,0,0,1,6.39.05,5,5,0,0,1,9.77,1.21,21.65,21.65,0,0,1,12.9,4.83l7.53,10.32L27.76,4.83a19.44,19.44,0,0,1,3.17-3.66A5,5,0,0,1,34.27.06a5.63,5.63,0,0,1,3.81,1.3,4,4,0,0,1,1.51,3.13A5.51,5.51,0,0,1,39,7a19.57,19.57,0,0,1-1.89,2.88L27.76,22.48,38.27,37.55c1.65,2.35,2.47,4.13,2.47,5.32A4,4,0,0,1,39.21,46a5.64,5.64,0,0,1-3.79,1.32A5.16,5.16,0,0,1,32,46.19,19.65,19.65,0,0,1,28.87,42.54Z"/><path id="Path_3" data-name="Path 3" class="cls-3" d="M20.46,15.1,27.78,4.78A19.82,19.82,0,0,1,31,1.11,5.13,5.13,0,0,1,34.3,0a5.69,5.69,0,0,1,3.81,1.3,4,4,0,0,1,1.51,3.14A5.56,5.56,0,0,1,39,7a19.12,19.12,0,0,1-1.9,2.88L27.78,22.43,38.3,37.5q2.46,3.53,2.47,5.32A4,4,0,0,1,39.23,46a5.58,5.58,0,0,1-3.79,1.31,5.11,5.11,0,0,1-3.38-1.14,19.71,19.71,0,0,1-3.17-3.66L20.46,30.1"/></g><g id="_Xenterion" data-name=" Xenterion" class="cls-4"><text class="cls-5" transform="translate(54 35)">| <tspan class="cls-6" x="13.8" y="0">X</tspan><tspan x="30.99" y="0">en</tspan><tspan class="cls-7" x="64.59" y="0">t</tspan><tspan x="73.92" y="0">erion</tspan></text></g></g></svg>