<svg id="help" xmlns="http://www.w3.org/2000/svg" width="77" height="77" viewBox="0 0 77 77">
  <g id="Group_73" data-name="Group 73">
    <g id="Group_72" data-name="Group 72">
      <path id="Path_863" data-name="Path 863" d="M225.651,343.22a4.037,4.037,0,0,0,0,8.073,4.037,4.037,0,0,0,0-8.073Z" transform="translate(-188.33 -291.603)" fill="#1c98d5"/>
      <path id="Path_864" data-name="Path 864" d="M194.349,140c-7.077,0-10.327,4.194-10.327,7.024a3.006,3.006,0,0,0,3.145,2.988c2.831,0,1.677-4.036,7.024-4.036,2.621,0,4.718,1.153,4.718,3.565,0,2.831-2.936,4.456-4.666,5.924a9.6,9.6,0,0,0-3.512,7.968c0,2.726.734,3.512,2.883,3.512,2.569,0,3.093-1.153,3.093-2.149,0-2.726.053-4.3,2.936-6.553,1.415-1.1,5.871-4.666,5.871-9.593S201.059,140,194.349,140Z" transform="translate(-156.347 -118.947)" fill="#1c98d5"/>
      <path id="Path_865" data-name="Path 865" d="M38.5,0A38.479,38.479,0,0,0,0,38.5V73.992A3.008,3.008,0,0,0,3.008,77H38.5a38.5,38.5,0,0,0,0-77Zm0,70.984H6.016V38.5A32.484,32.484,0,1,1,38.5,70.984Z" fill="#1c98d5"/>
    </g>
  </g>
</svg>
