        <svg xmlns="http://www.w3.org/2000/svg" width="69.616" height="66.59" viewBox="0 0 69.616 66.59">
          <g id="enter" transform="translate(0 -0.332)">
            <path id="Path_851" data-name="Path 851" d="M46.158,223.54H2.27a2.27,2.27,0,0,1,0-4.54H46.158a2.27,2.27,0,0,1,0,4.54Zm0,0" transform="translate(0 -187.643)" fill="#1c98d5"/>
            <path id="Path_852" data-name="Path 852" d="M226.273,162.389a2.271,2.271,0,0,1-1.6-3.877l10.5-10.5-10.5-10.5a2.271,2.271,0,0,1,3.212-3.212L239.988,146.4a2.271,2.271,0,0,1,0,3.211L227.881,161.72A2.253,2.253,0,0,1,226.273,162.389Zm0,0" transform="translate(-192.222 -114.385)" fill="#1c98d5"/>
            <path id="Path_853" data-name="Path 853" d="M67.619,66.922A33.122,33.122,0,0,1,36.63,45.807a2.27,2.27,0,1,1,4.225-1.658,28.755,28.755,0,1,0,0-21.043,2.27,2.27,0,1,1-4.225-1.658A33.3,33.3,0,1,1,67.619,66.922Zm0,0" transform="translate(-31.297)" fill="#1c98d5"/>
          </g>
        </svg>  