<svg id="exchange" xmlns="http://www.w3.org/2000/svg" width="78.374" height="78.374" viewBox="0 0 78.374 78.374">
          <g id="Group_48" data-name="Group 48" transform="translate(39.187 39.187)">
            <g id="Group_47" data-name="Group 47">
              <path id="Path_854" data-name="Path 854" d="M256.981,240a16.981,16.981,0,1,0,16.981,16.981A16.981,16.981,0,0,0,256.981,240Zm0,31.35a14.369,14.369,0,1,1,14.369-14.369A14.369,14.369,0,0,1,256.981,271.35Z" transform="translate(-240 -240)" fill="#1c98d5"/>
            </g>
          </g>
          <g id="Group_50" data-name="Group 50" transform="translate(48.331 44.402)">
            <g id="Group_49" data-name="Group 49">
              <path id="Path_855" data-name="Path 855" d="M311.675,278.478a3.919,3.919,0,0,0-3.919-3.919H306.45v-2.612h-2.612v2.612h-1.3l.021-2.6-2.612-.021-.021,2.623H296v2.613h2.612v13.062H296v2.612h3.929l.021,2.623,2.612-.021-.021-2.6h1.3v2.612h2.612v-2.612h1.306a3.919,3.919,0,0,0,3.919-3.919v-2.613a3.894,3.894,0,0,0-1.019-2.612,3.894,3.894,0,0,0,1.019-2.612Zm-2.613,10.45a1.306,1.306,0,0,1-1.306,1.306h-6.531v-5.225h6.531a1.306,1.306,0,0,1,1.306,1.306Zm0-7.837a1.306,1.306,0,0,1-1.306,1.306h-6.531v-5.225h6.531a1.306,1.306,0,0,1,1.306,1.306Z" transform="translate(-296 -271.936)" fill="#1c98d5"/>
            </g>
          </g>
          <g id="Group_52" data-name="Group 52" transform="translate(33.962 33.962)">
            <g id="Group_51" data-name="Group 51">
              <path id="Path_856" data-name="Path 856" d="M230.206,208a22.206,22.206,0,1,0,22.206,22.206A22.206,22.206,0,0,0,230.206,208Zm0,41.8A19.594,19.594,0,1,1,249.8,230.206,19.594,19.594,0,0,1,230.206,249.8Z" transform="translate(-208 -208)" fill="#1c98d5"/>
            </g>
          </g>
          <g id="Group_54" data-name="Group 54" transform="translate(5.225 5.225)">
            <g id="Group_53" data-name="Group 53">
              <path id="Path_857" data-name="Path 857" d="M48.981,32A16.981,16.981,0,1,0,65.962,48.981,16.981,16.981,0,0,0,48.981,32Zm0,31.35A14.369,14.369,0,1,1,63.35,48.981,14.386,14.386,0,0,1,48.981,63.35Z" transform="translate(-32 -32)" fill="#1c98d5"/>
            </g>
          </g>
          <g id="Group_56" data-name="Group 56">
            <g id="Group_55" data-name="Group 55">
              <path id="Path_858" data-name="Path 858" d="M22.206,0A22.206,22.206,0,1,0,44.412,22.206,22.206,22.206,0,0,0,22.206,0Zm0,41.8A19.594,19.594,0,1,1,41.8,22.206,19.616,19.616,0,0,1,22.206,41.8Z" fill="#1c98d5"/>
            </g>
          </g>
          <g id="Group_58" data-name="Group 58" transform="translate(15.675 10.45)">
            <g id="Group_57" data-name="Group 57">
              <path id="Path_859" data-name="Path 859" d="M102.531,74.45c-2.124,0-3.919-1.2-3.919-2.612s1.795-2.612,3.919-2.612,3.919,1.2,3.919,2.612a1.306,1.306,0,1,0,2.612,0c0-2.524-2.248-4.633-5.225-5.119V64h-2.612v2.718C98.248,67.2,96,69.314,96,71.837c0,2.882,2.93,5.225,6.531,5.225,2.124,0,3.919,1.2,3.919,2.612s-1.795,2.612-3.919,2.612-3.919-1.2-3.919-2.612a1.306,1.306,0,0,0-2.612,0c0,2.524,2.248,4.633,5.225,5.119v2.718h2.612V84.794c2.977-.486,5.225-2.6,5.225-5.119C109.062,76.793,106.132,74.45,102.531,74.45Z" transform="translate(-96 -64)" fill="#1c98d5"/>
            </g>
          </g>
          <g id="Group_60" data-name="Group 60" transform="translate(45.177 7.903)">
            <g id="Group_59" data-name="Group 59">
              <path id="Path_860" data-name="Path 860" d="M287.679,53.56h-5.99L285,50.247,283.152,48.4l-6.465,6.466,6.465,6.466L285,59.485l-3.311-3.313h5.99a11.769,11.769,0,0,1,11.756,11.756v6.531h2.612V67.928A14.386,14.386,0,0,0,287.679,53.56Z" transform="translate(-276.688 -48.4)" fill="#1c98d5"/>
            </g>
          </g>
          <g id="Group_62" data-name="Group 62" transform="translate(7.837 44.412)">
            <g id="Group_61" data-name="Group 61">
              <path id="Path_861" data-name="Path 861" d="M65.588,285.128l-1.847,1.847,3.311,3.313H62.369a11.769,11.769,0,0,1-11.756-11.756V272H48v6.531A14.386,14.386,0,0,0,62.369,292.9h4.684l-3.311,3.313,1.847,1.847,6.465-6.466Z" transform="translate(-48 -272)" fill="#1c98d5"/>
            </g>
          </g>
        </svg>    