<svg xmlns="http://www.w3.org/2000/svg" width="66.59" height="66.59" viewBox="0 0 66.59 66.59">
          <path id="user" d="M56.838,9.752A33.295,33.295,0,0,0,9.752,56.838,33.295,33.295,0,0,0,56.838,9.752ZM16.692,57.536a16.859,16.859,0,0,1,33.206,0,29.329,29.329,0,0,1-33.206,0Zm6.017-28.42A10.587,10.587,0,1,1,33.295,39.7,10.6,10.6,0,0,1,22.708,29.116ZM53.278,54.83A20.794,20.794,0,0,0,41.189,41.258a14.488,14.488,0,1,0-15.789,0A20.791,20.791,0,0,0,13.312,54.829a29.393,29.393,0,1,1,39.965,0Zm0,0" fill="#1c98d5"/>
        </svg>