<svg xmlns="http://www.w3.org/2000/svg" width="88" height="61.473" viewBox="0 0 88 61.473">
  <g id="gift-card" transform="translate(0 -74)">
    <g id="Group_34" data-name="Group 34" transform="translate(0 74)">
      <g id="Group_33" data-name="Group 33" transform="translate(0 0)">
        <path id="Path_845" data-name="Path 845" d="M79.406,74H8.594A8.53,8.53,0,0,0,0,82.444v44.585a8.53,8.53,0,0,0,8.594,8.444H35.234a1.689,1.689,0,1,0,0-3.378H8.594a5.118,5.118,0,0,1-5.156-5.066v-20.6H40.793a5.128,5.128,0,0,0,2.337,3.346,5.324,5.324,0,0,0,1.267.573l-3.026,5.113a1.665,1.665,0,0,0,.121,1.875,1.736,1.736,0,0,0,1.811.6l4.116-1.085,1.1,4.045a1.709,1.709,0,0,0,1.436,1.238,1.75,1.75,0,0,0,.225.015,1.725,1.725,0,0,0,1.488-.844L59.5,107.969l9.817,17.151a1.724,1.724,0,0,0,1.5.861,1.75,1.75,0,0,0,.216-.013,1.709,1.709,0,0,0,1.445-1.239l1.1-4.045,4.116,1.085a1.736,1.736,0,0,0,1.805-.6,1.665,1.665,0,0,0,.135-1.867l-5.054-8.752c.16.015.32.023.48.023a5.3,5.3,0,0,0,2.807-.8,5.127,5.127,0,0,0,2.337-3.346h4.355v20.6a5.118,5.118,0,0,1-5.156,5.066H62.219v-9.12a1.719,1.719,0,0,0-3.438,0v9.12H49.85a1.689,1.689,0,1,0,0,3.378H79.406A8.53,8.53,0,0,0,88,127.029V82.444A8.53,8.53,0,0,0,79.406,74ZM44.971,106.918a1.741,1.741,0,0,1-.841-1.5V93.583h0a1.741,1.741,0,0,1,.841-1.5,1.806,1.806,0,0,1,1.742-.106l8.433,3.909a5.053,5.053,0,0,0-.322,1.779v3.613a5.047,5.047,0,0,0,.343,1.831l-8.454,3.919A1.807,1.807,0,0,1,44.971,106.918Zm5.8,9.165-.473-1.737a1.693,1.693,0,0,0-.8-1.026,1.744,1.744,0,0,0-1.3-.169l-1.75.461,2.224-3.758,7.922-3.673ZM48.18,88.919a5.3,5.3,0,0,0-5.05.308,5.111,5.111,0,0,0-2.438,4.356v9.465H3.438v-20.6a5.118,5.118,0,0,1,5.156-5.066H58.781V91.845a1.655,1.655,0,0,0,.192.774,5.273,5.273,0,0,0-1.542.589Zm12.775,14.135h-.882a1.8,1.8,0,0,1-1.811-1.779V97.662a1.8,1.8,0,0,1,1.811-1.779h.882a1.8,1.8,0,0,1,1.811,1.779v3.613A1.8,1.8,0,0,1,60.954,103.054ZM74.62,117.46l-1.809-.477a1.746,1.746,0,0,0-1.3.169,1.693,1.693,0,0,0-.8,1.026l-.456,1.673-7.8-13.633a5.264,5.264,0,0,0,1.077-.449l5.934,2.751Zm1.409-10.542a1.806,1.806,0,0,1-1.742.106l-8.432-3.909a5.051,5.051,0,0,0,.347-1.841V97.662a5.054,5.054,0,0,0-.326-1.789l8.41-3.9a1.806,1.806,0,0,1,1.742.106,1.741,1.741,0,0,1,.841,1.5v11.833h0A1.741,1.741,0,0,1,76.03,106.918Zm8.533-3.871H80.308V93.583a5.111,5.111,0,0,0-2.438-4.356,5.3,5.3,0,0,0-5.05-.308L63.583,93.2a5.268,5.268,0,0,0-1.554-.587,1.656,1.656,0,0,0,.19-.769V77.378H79.406a5.118,5.118,0,0,1,5.156,5.066v20.6Z" transform="translate(0 -74)" fill="#1c98d5"/>
      </g>
    </g>
    <g id="Group_36" data-name="Group 36" transform="translate(40.588 131.821)">
      <g id="Group_35" data-name="Group 35">
        <path id="Path_846" data-name="Path 846" d="M239.867,418.535a1.825,1.825,0,1,0,.535,1.291A1.84,1.84,0,0,0,239.867,418.535Z" transform="translate(-236.75 -418)" fill="#1c98d5"/>
      </g>
    </g>
    <g id="Group_38" data-name="Group 38" transform="translate(9.86 83.86)">
      <g id="Group_37" data-name="Group 37" transform="translate(0 0)">
        <path id="Path_847" data-name="Path 847" d="M82.76,128H55.826a1.826,1.826,0,1,0,0,3.652H82.76a1.826,1.826,0,1,0,0-3.652Z" transform="translate(-54 -128)" fill="#1c98d5"/>
      </g>
    </g>
    <g id="Group_40" data-name="Group 40" transform="translate(9.86 121.064)">
      <g id="Group_39" data-name="Group 39">
        <path id="Path_848" data-name="Path 848" d="M82.76,354H55.826a1.826,1.826,0,0,0,0,3.652H82.76a1.826,1.826,0,0,0,0-3.652Z" transform="translate(-54 -354)" fill="#1c98d5"/>
      </g>
    </g>
    <g id="Group_42" data-name="Group 42" transform="translate(9.86 92.153)">
      <g id="Group_41" data-name="Group 41" transform="translate(0 0)">
        <path id="Path_849" data-name="Path 849" d="M67.147,182H55.826a1.826,1.826,0,1,0,0,3.652H67.147a1.826,1.826,0,1,0,0-3.652Z" transform="translate(-54 -182)" fill="#1c98d5"/>
      </g>
    </g>
    <g id="Group_44" data-name="Group 44" transform="translate(26.52 92.153)">
      <g id="Group_43" data-name="Group 43" transform="translate(0 0)">
        <path id="Path_850" data-name="Path 850" d="M157.807,182.535a1.825,1.825,0,1,0,.535,1.291A1.84,1.84,0,0,0,157.807,182.535Z" transform="translate(-154.69 -182)" fill="#1c98d5"/>
      </g>
    </g>
  </g>
</svg>