<svg id="Layer_1" data-name="Layer 1" xmlns="http://www.w3.org/2000/svg" viewBox="0 0 171.48 160.26"><defs><style>.cls-1,.cls-2{isolation:isolate;}.cls-2{font-size:40px;font-family:Quicksand-Light, Quicksand;font-weight:300;}.cls-3{letter-spacing:-0.02em;}.cls-4{letter-spacing:0em;}.cls-5{fill:#119ad6;}.cls-6{fill:#233a74;}.cls-7{fill:#283270;}</style></defs><g id="FullLogo"><g id="Xenterion" class="cls-1"><text class="cls-2" transform="translate(0 151.82)"><tspan class="cls-3">X</tspan><tspan x="22.92" y="0">en</tspan><tspan class="cls-4" x="67.72" y="0">t</tspan><tspan x="80.16" y="0">erion</tspan></text></g></g><g id="LogoXenterion"><path id="Path_1" data-name="Path 1" class="cls-5" d="M106,55l16.19-22.81a43.7,43.7,0,0,1,7-8.1,11.19,11.19,0,0,1,7.39-2.46A12.46,12.46,0,0,1,145,24.5a8.84,8.84,0,0,1,3.35,6.93A12.26,12.26,0,0,1,147,37a41.83,41.83,0,0,1-4.19,6.36L122.15,71.2l23.25,33.32q5.46,7.82,5.46,11.77a8.92,8.92,0,0,1-3.39,7,12.38,12.38,0,0,1-8.38,2.91,11.34,11.34,0,0,1-7.48-2.52,42.61,42.61,0,0,1-7-8.1L106,88.17" transform="translate(-11.82 -21.2)"/><path id="Path_2" data-name="Path 2" class="cls-6" d="M113,115.25,94.32,87.88l-19.1,27.37a48.61,48.61,0,0,1-7,8.2,10.78,10.78,0,0,1-7.29,2.43,12.11,12.11,0,0,1-8.33-3.06,9.21,9.21,0,0,1-3.44-7q0-4.05,5.28-11.57L77.66,70.91,57,43.11q-5.35-6.88-5.36-12a9,9,0,0,1,3.2-6.88,11.94,11.94,0,0,1,8.38-2.92,11.08,11.08,0,0,1,7.48,2.54,48.44,48.44,0,0,1,6.92,8L94.32,54.71l16.19-22.82a44.36,44.36,0,0,1,7-8.1,11.25,11.25,0,0,1,7.39-2.45,12.49,12.49,0,0,1,8.43,2.87,8.84,8.84,0,0,1,3.35,6.93,12.3,12.3,0,0,1-1.37,5.61,43.21,43.21,0,0,1-4.19,6.37l-20.61,27.8,23.25,33.31q5.44,7.81,5.45,11.77a8.88,8.88,0,0,1-3.39,7,12.35,12.35,0,0,1-8.37,2.91,11.33,11.33,0,0,1-7.49-2.54A44,44,0,0,1,113,115.25Z" transform="translate(-11.82 -21.2)"/><path id="Path_3" data-name="Path 3" class="cls-7" d="M94.38,54.58l16.18-22.81a44.08,44.08,0,0,1,7-8.1,11.23,11.23,0,0,1,7.4-2.46,12.45,12.45,0,0,1,8.43,2.88A8.86,8.86,0,0,1,136.74,31a12.2,12.2,0,0,1-1.37,5.61A41.83,41.83,0,0,1,131.18,43l-20.62,27.8,23.26,33.32q5.46,7.81,5.46,11.77a8.9,8.9,0,0,1-3.39,7,12.44,12.44,0,0,1-8.38,2.92,11.3,11.3,0,0,1-7.48-2.54,43.69,43.69,0,0,1-7-8.09L94.38,87.76" transform="translate(-11.82 -21.2)"/></g></svg>